<svg width="52" height="42" viewBox="0 0 52 42" fill="none" xmlns="http://www.w3.org/2000/svg">
<path d="M50.3648 0.995804H1.63522C0.732143 0.995804 0 1.72784 0 2.63102V35.1174C0 36.0205 0.732143 36.7526 1.63522 36.7526H30.3824V39.914C30.3824 40.29 30.5761 40.6394 30.895 40.8386C31.0709 40.9486 31.2714 41.0042 31.4725 41.0042C31.6357 41.0042 31.7994 40.9676 31.9508 40.8936L35.046 39.3829L38.1414 40.8936C38.4797 41.0588 38.8787 41.0378 39.1972 40.8386C39.5161 40.6394 39.7098 40.29 39.7098 39.914V36.7526H50.3648C51.2679 36.7526 52 36.0205 52 35.1174V2.63102C52 1.72784 51.2679 0.995804 50.3648 0.995804ZM30.3248 24.5094C30.3248 21.9062 32.4428 19.7883 35.0459 19.7883C37.6492 19.7883 39.7671 21.9062 39.7671 24.5094C39.7671 27.1127 37.6492 29.2306 35.0459 29.2306C32.4428 29.2306 30.3248 27.1127 30.3248 24.5094ZM39.7097 29.5912C41.0841 28.3288 41.9473 26.5183 41.9473 24.5094C41.9473 20.704 38.8514 17.608 35.0458 17.608C31.2404 17.608 28.1444 20.7039 28.1444 24.5094C28.1444 26.5184 29.0078 28.3291 30.3823 29.5914V30.3207H11.1273C10.681 27.9473 8.80522 26.0716 6.43187 25.6252V12.1231C8.80522 11.6767 10.681 9.80103 11.1273 7.42767H40.8725C41.319 9.80103 43.1947 11.6768 45.568 12.1231V25.6252C43.1947 26.0716 41.3189 27.9473 40.8725 30.3206H39.7097V29.5912ZM37.5294 38.1688L35.5242 37.1901C35.2222 37.0427 34.8697 37.0427 34.5678 37.1901L32.5627 38.1688V30.9469C33.3339 31.2454 34.1707 31.4109 35.0458 31.4109C35.9212 31.4109 36.7581 31.2453 37.5293 30.9468V38.1688H37.5294ZM48.7296 33.4822H39.7097V32.501H41.8616C42.4636 32.501 42.9518 32.0129 42.9518 31.4109C42.9518 29.3671 44.6145 27.7044 46.6583 27.7044C47.2603 27.7044 47.7484 27.2162 47.7484 26.6143V11.1342C47.7484 10.5322 47.2603 10.044 46.6583 10.044C44.6145 10.044 42.9518 8.38133 42.9518 6.33752C42.9518 5.73554 42.4636 5.24738 41.8616 5.24738H10.1384C9.53639 5.24738 9.04822 5.73554 9.04822 6.33752C9.04822 8.38133 7.38553 10.044 5.34172 10.044C4.73974 10.044 4.25157 10.5322 4.25157 11.1342V26.6143C4.25157 27.2162 4.73974 27.7044 5.34172 27.7044C7.38553 27.7044 9.04822 29.3671 9.04822 31.4109C9.04822 32.0129 9.53639 32.501 10.1384 32.501H30.3824V33.4822H3.27044V4.26624H48.7296V33.4822Z" fill="#2B72EE"/>
</svg>
