<svg width="12" height="12" viewBox="0 0 12 12" fill="none" xmlns="http://www.w3.org/2000/svg">
<path d="M6 0C2.69161 0 0 2.69161 0 6C0 9.30839 2.69161 12 6 12C9.30839 12 12 9.30839 12 6C12 2.69161 9.30839 0 6 0ZM8.78487 6.64561H6C5.64497 6.64561 5.35713 6.35773 5.35713 6.00274V3.21785C5.35713 2.86282 5.64497 2.57498 6 2.57498C6.35503 2.57498 6.64287 2.86282 6.64287 3.21785V5.3599H8.78487C9.1399 5.3599 9.42773 5.64769 9.42773 6.00277C9.42771 6.35773 9.13988 6.64561 8.78487 6.64561Z" fill="black"/>
</svg>
