<svg width="36" height="27" viewBox="0 0 36 27" fill="none" xmlns="http://www.w3.org/2000/svg">
<path d="M22.4375 21.5625C25.6562 20.5938 27.7969 18.8125 28.8594 16.2188C29.2969 15.1875 29.5156 13.9375 29.5156 12.4688H22.2031V0.140625H35.5156V10.0312C35.5156 14.5 34.4219 18.1562 32.2344 21C30.0781 23.8125 26.8125 25.6406 22.4375 26.4844V21.5625ZM0.3125 21.5625C3.46875 20.5625 5.59375 18.8438 6.6875 16.4062C7.28125 15.125 7.53125 13.8125 7.4375 12.4688H0.078125V0.140625H13.4375V10.0312C13.4375 14.625 12.3125 18.3125 10.0625 21.0938C7.84375 23.875 4.59375 25.6719 0.3125 26.4844V21.5625Z" fill="#2B72EE"/>
</svg>
