<svg width="22" height="22" viewBox="0 0 22 22" fill="none" xmlns="http://www.w3.org/2000/svg">
<path d="M3.07988 0.880005C1.84754 0.880005 0.879883 1.84766 0.879883 3.08V14.96C0.879883 16.1923 1.84754 17.16 3.07988 17.16H14.9599C16.1922 17.16 17.1599 16.1923 17.1599 14.96V4.3175L16.2799 5.28V14.96C16.2799 15.7077 15.7075 16.28 14.9599 16.28H3.07988C2.33223 16.28 1.75988 15.7077 1.75988 14.96V3.08C1.75988 2.33235 2.33223 1.76 3.07988 1.76H14.6986L15.4411 0.921255C15.2658 0.921255 15.1352 0.880005 14.9599 0.880005H3.07988ZM15.9499 2.35125L8.33238 10.8213L4.68863 7.59L4.11113 8.25L8.07113 11.77L8.40113 12.0588L8.68988 11.7288L16.6099 2.92875L15.9499 2.35125ZM18.0399 4.84V5.72001H18.9199C19.6675 5.72001 20.2399 6.29235 20.2399 7.04V18.92C20.2399 19.6677 19.6675 20.24 18.9199 20.24H7.03988C6.29223 20.24 5.71988 19.6677 5.71988 18.92V18.04H4.83988V18.92C4.83988 20.1523 5.80754 21.12 7.03988 21.12H18.9199C20.1522 21.12 21.1199 20.1523 21.1199 18.92V7.04C21.1199 5.80766 20.1522 4.84 18.9199 4.84H18.0399Z" fill="#2B72EE"/>
</svg>
