<svg width="48" height="48" viewBox="0 0 48 48" fill="none" xmlns="http://www.w3.org/2000/svg">
<path d="M14.6298 35.2549C16.2843 34.1666 17.3795 32.2945 17.3795 30.1704C17.3795 26.8166 14.6509 24.088 11.297 24.088C7.94306 24.088 5.21447 26.8166 5.21447 30.1704C5.21447 32.2944 6.30966 34.1666 7.96416 35.2549C3.35672 36.6803 0 40.9803 0 46.0498C0 46.2487 0.0790176 46.4395 0.21967 46.5802C0.360322 46.7208 0.551088 46.7998 0.75 46.7998H21.8438C22.0427 46.7998 22.2334 46.7208 22.3741 46.5802C22.5147 46.4395 22.5938 46.2487 22.5938 46.0498C22.5938 40.9804 19.2371 36.6804 14.6298 35.2549ZM6.71447 30.1704C6.71447 27.6437 8.77013 25.588 11.297 25.588C13.8238 25.588 15.8795 27.6437 15.8795 30.1704C15.8795 32.6968 13.8245 34.7523 11.2982 34.7529H11.2958C8.76947 34.7523 6.71447 32.6969 6.71447 30.1704ZM1.52841 45.2998C1.91259 40.2472 6.14644 36.2536 11.2957 36.2529H11.2981C16.4473 36.2536 20.6811 40.2472 21.0653 45.2998H1.52841ZM40.0359 35.2549C41.6904 34.1666 42.7856 32.2945 42.7856 30.1704C42.7856 26.8166 40.057 24.088 36.7032 24.088C33.3493 24.088 30.6207 26.8166 30.6207 30.1704C30.6207 32.2944 31.7159 34.1666 33.3704 35.2549C28.763 36.6803 25.4062 40.9803 25.4062 46.0498C25.4062 46.2487 25.4853 46.4395 25.6259 46.5802C25.7666 46.7208 25.9573 46.7998 26.1562 46.7998H47.25C47.4489 46.7998 47.6397 46.7208 47.7803 46.5802C47.921 46.4395 48 46.2487 48 46.0498C48 40.9804 44.6434 36.6804 40.0359 35.2549ZM32.1207 30.1704C32.1207 27.6437 34.1764 25.588 36.7032 25.588C39.23 25.588 41.2856 27.6437 41.2856 30.1704C41.2856 32.6968 39.2306 34.7523 36.7043 34.7529H36.702C34.1757 34.7523 32.1207 32.6969 32.1207 30.1704ZM26.9347 45.2998C27.3188 40.2472 31.5527 36.2536 36.7019 36.2529H36.7043C41.8536 36.2536 46.0873 40.2472 46.4715 45.2998H26.9347ZM5.55403 14.823H7.44187L9.97894 20.562C10.0378 20.6949 10.1339 20.8078 10.2557 20.887C10.3774 20.9663 10.5196 21.0085 10.6649 21.0085C10.8102 21.0085 10.9524 20.9663 11.0741 20.887C11.1959 20.8078 11.2921 20.6949 11.3509 20.562L13.8879 14.823H34.1122L36.6493 20.562C36.7081 20.6949 36.8043 20.8078 36.926 20.887C37.0478 20.9663 37.19 21.0085 37.3353 21.0085C37.4806 21.0085 37.6227 20.9663 37.7445 20.887C37.8663 20.8078 37.9624 20.6949 38.0212 20.562L40.5584 14.823H42.4462C43.8936 14.823 45.0712 13.6454 45.0712 12.198V3.8252C45.0712 2.37779 43.8936 1.2002 42.4462 1.2002H5.55403C4.10663 1.2002 2.92903 2.37779 2.92903 3.8252V12.1981C2.92903 13.6454 4.10663 14.823 5.55403 14.823ZM4.42903 3.8252C4.42903 3.20485 4.93369 2.7002 5.55403 2.7002H42.4461C43.0664 2.7002 43.5711 3.20485 43.5711 3.8252V12.1981C43.5711 12.8184 43.0664 13.3231 42.4461 13.3231H40.0699C39.9246 13.3231 39.7824 13.3653 39.6606 13.4447C39.5388 13.524 39.4427 13.6369 39.3839 13.7698L37.3352 18.404L35.2866 13.7699C35.2278 13.637 35.1317 13.524 35.0099 13.4447C34.8881 13.3653 34.7459 13.3231 34.6006 13.3231H13.3995C13.2542 13.3231 13.112 13.3654 12.9902 13.4447C12.8684 13.524 12.7723 13.637 12.7135 13.7699L10.6649 18.404L8.61628 13.7699C8.55752 13.637 8.46141 13.524 8.33963 13.4447C8.21785 13.3654 8.07565 13.3231 7.93031 13.3231H5.55403C4.93369 13.3231 4.42903 12.8184 4.42903 12.1981V3.8252ZM9.09375 8.0116C9.09375 7.81269 9.17277 7.62192 9.31342 7.48127C9.45407 7.34062 9.64484 7.2616 9.84375 7.2616H18.7075C18.9064 7.2616 19.0972 7.34062 19.2379 7.48127C19.3785 7.62192 19.4575 7.81269 19.4575 8.0116C19.4575 8.21051 19.3785 8.40128 19.2379 8.54193C19.0972 8.68258 18.9064 8.7616 18.7075 8.7616H9.84375C9.64484 8.7616 9.45407 8.68258 9.31342 8.54193C9.17277 8.40128 9.09375 8.21051 9.09375 8.0116ZM32.6175 8.0116C32.6175 7.81269 32.6965 7.62192 32.8372 7.48127C32.9778 7.34062 33.1686 7.2616 33.3675 7.2616H38.1562C38.3552 7.2616 38.5459 7.34062 38.6866 7.48127C38.8272 7.62192 38.9062 7.81269 38.9062 8.0116C38.9062 8.21051 38.8272 8.40128 38.6866 8.54193C38.5459 8.68258 38.3552 8.7616 38.1562 8.7616H33.3675C33.1686 8.7616 32.9778 8.68258 32.8372 8.54193C32.6965 8.40128 32.6175 8.21051 32.6175 8.0116ZM22.3189 8.0116C22.3189 7.81269 22.3979 7.62192 22.5385 7.48127C22.6792 7.34062 22.87 7.2616 23.0689 7.2616H29.4627C29.6616 7.2616 29.8524 7.34062 29.993 7.48127C30.1337 7.62192 30.2127 7.81269 30.2127 8.0116C30.2127 8.21051 30.1337 8.40128 29.993 8.54193C29.8524 8.68258 29.6616 8.7616 29.4627 8.7616H23.0689C22.87 8.7616 22.6792 8.68258 22.5385 8.54193C22.3979 8.40128 22.3189 8.21051 22.3189 8.0116Z" fill="white"/>
</svg>
