<svg width="275" height="75" viewBox="0 0 275 75" fill="none" xmlns="http://www.w3.org/2000/svg">
<path fillRule="evenodd" clipRule="evenodd" d="M8.6127 50.8313C11.4771 47.5525 21.8306 38.4375 22.2335 37.1124C22.3832 36.6193 20.9633 35.2932 20.5691 34.4627C17.7088 28.4418 20.4569 22.4068 25.9022 20.1857C29.8042 18.5932 34.0095 19.0869 37.0575 22.1485C39.173 24.2752 40.4422 27.3485 40.4422 30.5183C40.4422 32.1513 39.3114 34.7508 38.2518 36.0125C37.1836 37.328 37.119 37.2134 38.9095 38.7125C39.8158 39.4699 42.7663 42.5615 43.344 42.5615C43.9376 42.5615 45.9773 39.3477 46.2597 38.8794C47.3346 36.7608 48.019 34.556 48.326 32.3507C48.754 29.2769 48.4495 26.2025 47.4469 23.3641C42.4531 9.22103 25.6152 7.05985 15.4836 17.8424C10.7036 23.0627 10.1592 30.5771 12.6602 36.8212C12.9365 37.3493 13.2671 38.2463 12.8258 38.7414C11.9364 39.7398 9.6133 41.9893 8.52248 42.5615C4.75639 35.487 3.52154 26.9701 7.14461 19.6459C10.6851 12.4861 18.4895 5.97571 26.1186 5.22285C27.438 5.09297 27.0392 5.30351 27.0392 0C23.0711 0.0892881 17.0286 2.23271 12.7258 5.0742C6.98878 8.8654 2.98126 14.4089 1.0385 20.5977C-1.60345 29.0105 0.750926 46.1361 8.6127 50.8313Z" fill="#F8FBFF"/>
<path fillRule="evenodd" clipRule="evenodd" d="M31.0723 0.00195312C59.5088 2.26713 69.6855 38.8448 43.6433 54.9862C41.8149 56.1195 40.4611 57.6709 40.4929 55.4621C40.5134 54.0471 40.5359 52.6307 40.5574 51.2158C63.419 34.5757 51.8024 8.23168 33.259 5.73618C32.2733 5.60326 31.2373 5.45817 31.2255 5.02238C31.2194 4.77836 31.2091 4.5318 31.2025 4.28626C31.1594 2.86019 31.1153 1.43006 31.0723 0.00246044V0.00195312Z" fill="#373435"/>
<path fillRule="evenodd" clipRule="evenodd" d="M31.3409 48.486L32.2907 70.8689L29.1336 75L25.9826 70.8689L27.0709 48.486H24.5012L25.7135 42.6138H32.565L33.7726 48.486H31.3409Z" fill="#373435"/>
<path d="M68.4888 16.4038V45.1384H73.3V32.1667H84.0836V27.9387H73.3V20.7551H84.4989V16.4038H68.4888Z" fill="#F8FBFF"/>
<path d="M89.8902 31.1813C90.7196 30.5654 93.0012 29.4163 95.697 29.4163C98.0611 29.4163 99.7619 30.2372 99.7619 32.5359V34.8345C98.5593 34.1775 96.734 33.5211 94.2458 33.5211C89.5176 33.5211 86.7803 35.8608 86.7803 39.514C86.7803 43.3727 89.8497 45.5481 93.4579 45.5481C95.9051 45.5481 98.5593 44.5629 99.7624 42.5513V45.1377H104.159V31.6734C104.159 27.938 100.799 25.8032 96.1542 25.8032C92.587 25.8032 89.8082 27.0345 88.0664 28.0608L89.8913 31.1803L89.8902 31.1813ZM91.3004 39.268C91.3004 37.503 92.503 36.4356 95.3238 36.4356C96.9416 36.4356 98.3933 36.7228 99.7619 37.3386V37.6258C99.7619 40.4992 97.5224 42.2231 94.8676 42.2231C92.7936 42.2231 91.3004 41.1557 91.3004 39.2675V39.268Z" fill="#F8FBFF"/>
<path d="M110.256 38.8985L107.642 41.5254C109.302 43.6597 112.204 45.7123 116.186 45.7123C120.334 45.7123 122.989 43.3726 122.989 39.8011C122.989 36.3939 120.334 35.1216 117.14 33.8492C114.818 32.9462 112.993 32.2892 112.993 30.8936C112.993 29.8262 113.947 29.2925 115.232 29.2925C117.099 29.2925 118.965 30.3599 120.21 31.7966L122.698 29.1697C121.122 27.2815 118.426 25.8447 115.315 25.8447C111.79 25.8447 108.762 27.5686 108.762 30.9758C108.762 34.3829 111.583 35.8196 114.196 36.7227C116.726 37.6257 118.468 38.3648 118.468 40.0476C118.468 41.2789 117.514 42.0591 115.896 42.0591C113.947 42.0591 112.122 40.9507 110.256 38.8985Z" fill="#F8FBFF"/>
<path d="M124.316 26.2558V30.1555H127.551V45.1382H131.948V30.1555H135.141V26.2558H131.948V19.6875H127.551V26.2558H124.316Z" fill="#F8FBFF"/>
<path d="M151.027 16.4038V45.1384H155.921V34.2604H158.908L166.249 45.1384H172.18L163.968 33.7267C167.991 32.5366 170.439 29.4987 170.439 25.3118C170.439 19.9342 166.291 16.4038 159.986 16.4038H151.027H151.027ZM159.779 20.5907C163.138 20.5907 165.378 22.3557 165.378 25.4346C165.378 28.5135 163.138 30.2374 159.779 30.2374H155.921V20.5907H159.779Z" fill="#282829"/>
<path d="M183.627 45.5485C188.024 45.5485 191.176 43.8657 193.208 40.4174L189.309 38.8985C188.107 40.9101 186.281 41.8953 183.834 41.8953C180.723 41.8953 178.774 40.0481 178.484 36.7231H193.332C193.332 36.5177 193.374 35.9845 193.374 35.4919C193.374 29.4578 189.848 25.8452 183.834 25.8452C177.779 25.8452 173.88 29.745 173.88 35.6968C173.88 41.6081 177.737 45.5485 183.627 45.5485ZM183.793 29.2108C186.489 29.2108 188.273 30.9757 188.48 33.6442H178.609C179.148 30.7708 180.931 29.2519 183.793 29.2108Z" fill="#282829"/>
<path d="M200.674 35.6969C200.674 32.2075 203.246 29.6628 206.606 29.6628C209.26 29.6628 211.873 31.0174 212.827 32.8645V27.9384C211.5 26.6661 209.136 25.8447 206.398 25.8447C200.508 25.8447 196.071 29.8678 196.071 35.6964C196.071 41.4844 200.509 45.548 206.398 45.548C209.135 45.548 211.499 44.7682 212.827 43.4137V38.5287C211.873 40.3348 209.384 41.7304 206.606 41.7304C203.246 41.7304 200.674 39.2674 200.674 35.6964V35.6969Z" fill="#282829"/>
<path d="M227.883 30.9763L230.081 27.2409C229.21 26.2557 227.924 25.8042 226.555 25.8042C224.937 25.8042 223.32 26.8305 222.2 28.5133V26.2557H217.762V45.1381H222.2V34.5062C222.2 31.7972 223.113 29.9911 225.352 29.9911C226.431 29.9911 227.052 30.3193 227.882 30.9763H227.883Z" fill="#282829"/>
<path d="M237.754 37.7497V26.2559H233.151V38.2423C233.151 42.7574 235.515 45.5492 239.787 45.5492C242.441 45.5492 244.308 44.3996 245.552 42.2242V45.1388H250.032V26.2564H245.552V37.7502C245.552 40.2954 243.852 41.9782 241.322 41.9782C238.916 41.9782 237.754 40.4593 237.754 37.7502V37.7497Z" fill="#282829"/>
<path d="M255.589 18.7438C255.589 20.2627 256.875 21.4528 258.41 21.4528C259.986 21.4528 261.272 20.2627 261.272 18.7438C261.272 17.2248 259.986 16.0347 258.41 16.0347C256.875 16.0347 255.589 17.2248 255.589 18.7438ZM256.212 26.2561V45.1385H260.65V26.2561H256.212Z" fill="#282829"/>
<path d="M264.175 26.2558V30.1555H267.41V45.1382H271.807V30.1555H275V26.2558H271.807V19.6875H267.41V26.2558H264.175Z" fill="#282829"/>
<path d="M159.821 60.9051C159.821 59.5658 158.863 58.7541 157.592 58.3553C158.581 57.9566 159.193 57.2443 159.193 56.2753C159.193 54.5799 157.545 53.7397 155.285 53.7397H151.251V63.7116H155.551C158.157 63.7116 159.82 62.8852 159.82 60.9051H159.821ZM155.002 55.6057C155.897 55.6057 156.446 55.9618 156.446 56.6315C156.446 57.3011 155.897 57.6999 155.002 57.6999H153.904V55.6057H155.002ZM153.904 61.8452V59.3806H155.254C156.274 59.3806 157.074 59.6941 157.074 60.5632C157.074 61.5322 156.274 61.8452 155.254 61.8452H153.904Z" fill="#F8FBFF"/>
<path d="M172.596 57.1587H170.164L168.453 61.0331L166.742 57.1587H164.137L167.26 63.1846L165.503 66.8454H167.888L172.596 57.1587Z" fill="#F8FBFF"/>
<path d="M185.294 58.7254C185.294 56.8879 186.816 55.8053 188.589 55.8053C190.143 55.8053 191.147 56.4177 191.869 57.1157V54.5228C190.975 53.8958 190.033 53.5112 188.432 53.5112C184.9 53.5112 182.405 55.6196 182.405 58.7249C182.405 61.8308 184.9 63.9387 188.432 63.9387C190.033 63.9387 190.975 63.5541 191.869 62.9271V60.3347C191.147 61.0327 190.143 61.6451 188.589 61.6451C186.816 61.6451 185.294 60.5625 185.294 58.7244V58.7254Z" fill="#F8FBFF"/>
<path d="M198.352 59.1673C198.634 58.9964 199.654 58.6118 200.612 58.6118C201.506 58.6118 201.977 58.9395 201.977 59.5803V60.1642C201.475 59.9217 200.738 59.7365 199.843 59.7365C198.038 59.7365 197.018 60.5203 197.018 61.7734C197.018 63.1269 198.195 63.8534 199.592 63.8534C200.597 63.8534 201.538 63.4973 201.977 62.7992V63.7109H204.253V59.0953C204.253 57.7417 202.809 56.9727 200.91 56.9727C199.544 56.9727 198.383 57.3714 197.551 57.7275L198.351 59.1663L198.352 59.1673ZM199.403 61.6603C199.403 61.19 199.749 60.9196 200.581 60.9196C201.083 60.9196 201.554 61.0053 201.977 61.1763C201.914 62.0169 201.209 62.4583 200.439 62.4583C199.858 62.4583 199.403 62.1732 199.403 61.6603Z" fill="#F8FBFF"/>
<path d="M209.793 52.6001V63.7119H212.179V52.6001H209.793Z" fill="#F8FBFF"/>
<path d="M217.154 57.1586V58.9393H218.064V63.7117H220.34V58.9393H222.082V57.1586H220.34V55.278C220.34 54.6084 220.622 54.309 221.093 54.309C221.376 54.309 221.612 54.4085 221.816 54.6652L222.773 53.0839C222.443 52.7987 221.847 52.3716 220.779 52.3716C218.974 52.3716 218.064 53.269 218.064 54.7362V57.1581H217.154V57.1586Z" fill="#F8FBFF"/>
<path d="M226.822 54.6942C226.822 55.3781 227.434 55.8625 228.204 55.8625C228.973 55.8625 229.585 55.3781 229.585 54.6942C229.585 54.0103 228.973 53.54 228.204 53.54C227.435 53.54 226.822 54.0103 226.822 54.6942ZM227.058 57.1587V63.7118H229.349V57.1587H227.058Z" fill="#F8FBFF"/>
<path d="M239.754 59.7227V63.7118H242.218V59.4949C242.218 57.9278 241.433 57.002 239.644 57.002C238.592 57.002 237.87 57.4149 237.447 58.1419V57.1587H235.061V63.7118H237.447V59.7227C237.447 58.9536 237.933 58.5117 238.702 58.5117C239.471 58.5117 239.753 58.9536 239.753 59.7227H239.754Z" fill="#F8FBFF"/>
<path d="M247.711 54.6942C247.711 55.3781 248.324 55.8625 249.093 55.8625C249.862 55.8625 250.474 55.3781 250.474 54.6942C250.474 54.0103 249.862 53.54 249.093 53.54C248.324 53.54 247.711 54.0103 247.711 54.6942ZM247.947 57.1587V63.7118H250.238V57.1587H247.947Z" fill="#F8FBFF"/>
<path d="M255.103 57.1588V58.9395H256.375V63.7118H258.65V58.9395H259.938V57.1588H258.65V54.8794H256.375V57.1588H255.103Z" fill="#F8FBFF"/>
<path d="M272.101 57.1587H269.669L267.958 61.0331L266.247 57.1587H263.641L266.765 63.1846L265.007 66.8454H267.393L272.101 57.1587Z" fill="#F8FBFF"/>
</svg>
