<svg width="57" height="35" viewBox="0 0 57 35" fill="none" xmlns="http://www.w3.org/2000/svg">
<path d="M51.1129 23.3497L51.0816 17.9738L56.2602 15.0806L28.0529 0.228271L0 15.3776L11.2471 21.8249L11.2696 25.6559L11.2719 25.9619L11.3746 25.9127C11.2561 26.0734 11.1801 26.2386 11.1824 26.4038C11.1913 28.288 18.8094 29.7791 28.2119 29.728C37.6099 29.6788 45.2168 28.1006 45.2101 26.2208C45.2101 26.0556 45.1229 25.8949 45.0067 25.7297L45.1094 25.7788V25.4729L45.0893 21.6264L49.9661 18.5969L49.9929 23.3565C49.4562 23.5864 49.0829 24.1133 49.0873 24.7296C49.0918 25.5378 49.7491 26.1917 50.5652 26.1851C51.3859 26.1805 52.0366 25.5197 52.032 24.7138C52.0274 24.0976 51.6519 23.5752 51.1129 23.3497ZM28.2051 28.4308C19.8626 28.4776 13.0963 27.5623 13.0897 26.3949C13.0831 25.2273 19.8402 24.2472 28.1829 24.2047C36.5276 24.1579 43.2916 25.0687 43.2962 26.234C43.3026 27.3973 36.5498 28.3862 28.2051 28.4308ZM44.7046 18.5053C43.5754 17.3199 39.5282 14.1899 28.1291 14.2548C16.7142 14.3151 12.7185 17.483 11.6028 18.6863L11.5962 17.5523C11.5962 17.5523 14.8339 12.6341 28.1204 12.5648C41.4001 12.4933 44.6982 17.3736 44.6982 17.3736L44.7046 18.5053ZM49.3779 26.5064L48.8032 34.8312C50.5808 32.0429 52.0657 33.0809 52.0657 33.0809L52.03 26.4929C50.1201 27.241 49.3779 26.5064 49.3779 26.5064Z" fill="white"/>
</svg>
