<svg width="317" height="332" viewBox="0 0 317 332" fill="none" xmlns="http://www.w3.org/2000/svg">
<g clipPath="url(#clip0_686_599)">
<path d="M171.142 263.476L161.661 263.677L156.849 263.757C155.241 263.791 153.625 263.784 152.013 263.797L151.693 263.8L151.691 263.475L151.652 255.401L151.65 255.039L152.013 255.04L161.577 255.086C164.765 255.089 167.953 255.167 171.141 255.204L171.341 255.206L171.339 255.401C171.325 256.771 171.277 258.133 171.244 259.481L171.142 263.476ZM171.142 263.476L171.039 259.396C171.006 258.051 170.958 256.722 170.944 255.401L171.141 255.598C167.953 255.634 164.765 255.712 161.577 255.716L152.013 255.761L152.374 255.401L152.335 263.476L152.013 263.154C153.589 263.167 155.161 263.16 156.741 263.194L161.494 263.274L171.142 263.476Z" fill="#ECECEC"/>
<path d="M160.471 273.658L150.991 273.859L146.179 273.94C144.571 273.974 142.955 273.967 141.343 273.979L141.023 273.982L141.021 273.658L140.982 265.583L140.98 265.221L141.343 265.222L150.907 265.268C154.095 265.271 157.283 265.349 160.471 265.386L160.67 265.388L160.669 265.583C160.655 266.953 160.607 268.315 160.574 269.663L160.471 273.658ZM160.471 273.658L160.369 269.578C160.336 268.234 160.288 266.904 160.274 265.583L160.471 265.78C157.283 265.817 154.095 265.894 150.907 265.898L141.343 265.943L141.704 265.583L141.665 273.658L141.343 273.336C142.919 273.349 144.491 273.342 146.071 273.376L150.824 273.457L160.471 273.658Z" fill="#ECECEC"/>
<path d="M149.843 263.476L140.362 263.677L135.55 263.757C133.942 263.791 132.326 263.784 130.714 263.797L130.394 263.8L130.392 263.475L130.353 255.401L130.352 255.039L130.714 255.04L140.278 255.086C143.466 255.089 146.655 255.167 149.843 255.204L150.042 255.206L150.04 255.401C150.026 256.771 149.978 258.133 149.945 259.481L149.843 263.476ZM149.843 263.476L149.74 259.396C149.708 258.051 149.659 256.722 149.646 255.401L149.843 255.598C146.655 255.634 143.466 255.712 140.278 255.716L130.714 255.761L131.075 255.401L131.036 263.476L130.714 263.154C132.29 263.167 133.862 263.16 135.442 263.194L140.195 263.274L149.843 263.476Z" fill="#ECECEC"/>
<path d="M316.01 244.892L306.529 245.093L301.717 245.174C300.109 245.208 298.493 245.201 296.881 245.214L296.561 245.216L296.559 244.892L296.52 236.817L296.519 236.455L296.881 236.457L306.445 236.502C309.633 236.506 312.822 236.583 316.01 236.62L316.209 236.623L316.207 236.817C316.193 238.188 316.145 239.55 316.112 240.897L316.01 244.892ZM316.01 244.892L315.907 240.812C315.874 239.468 315.826 238.139 315.813 236.817L316.01 237.014C312.821 237.051 309.633 237.129 306.445 237.132L296.881 237.178L297.242 236.817L297.203 244.892L296.881 244.571C298.457 244.583 300.029 244.576 301.609 244.61L306.362 244.691L316.01 244.892Z" fill="#ECECEC"/>
<path d="M305.34 41.0721L295.859 41.2732L291.047 41.354C289.439 41.388 287.823 41.381 286.211 41.3937L285.891 41.3963L285.889 41.072L285.85 32.9972L285.849 32.635L286.211 32.6368L295.775 32.6821C298.964 32.6857 302.152 32.7633 305.34 32.8003L305.539 32.8026L305.537 32.9973C305.523 34.3674 305.475 35.7298 305.442 37.0772L305.34 41.0721ZM305.34 41.0721L305.237 36.9922C305.205 35.6479 305.156 34.3187 305.143 32.9972L305.34 33.1941C302.152 33.231 298.963 33.3086 295.775 33.3122L286.211 33.3576L286.572 32.9973L286.533 41.072L286.211 40.7505C287.787 40.7632 289.359 40.7561 290.939 40.7901L295.692 40.871L305.34 41.0721Z" fill="#ECECEC"/>
<path d="M316.01 51.2542L306.529 51.4553L301.717 51.5361C300.109 51.5701 298.493 51.5631 296.881 51.5758L296.561 51.5783L296.559 51.2541L296.52 43.1793L296.519 42.8171L296.881 42.8189L306.445 42.8642C309.633 42.8678 312.822 42.9454 316.01 42.9824L316.209 42.9847L316.207 43.1794C316.193 44.5495 316.145 45.9119 316.112 47.2593L316.01 51.2542ZM316.01 51.2542L315.907 47.1743C315.874 45.83 315.826 44.5008 315.813 43.1793L316.01 43.3762C312.821 43.4131 309.633 43.4907 306.445 43.4943L296.881 43.5397L297.242 43.1794L297.203 51.2541L296.881 50.9326C298.457 50.9453 300.029 50.9383 301.609 50.9723L306.362 51.0531L316.01 51.2542Z" fill="#ECECEC"/>
<path d="M33.6834 41.0721L24.2025 41.2732L19.3908 41.3541C17.7831 41.388 16.1669 41.381 14.5549 41.3937L14.2345 41.3963L14.2329 41.072L14.1941 32.9973L14.1924 32.6351L14.5549 32.6369L24.1192 32.6822C27.3072 32.6858 30.4953 32.7634 33.6834 32.8004L33.8825 32.8027L33.8806 32.9974C33.8671 34.3675 33.8186 35.7299 33.786 37.0773L33.6834 41.0721ZM33.6834 41.0721L33.5808 36.9922C33.5482 35.648 33.4998 34.3187 33.4863 32.9972L33.6833 33.1941C30.4952 33.2311 27.3071 33.3086 24.1191 33.3122L14.5549 33.3576L14.9155 32.9973L14.8768 41.072L14.5549 40.7505C16.1309 40.7632 17.7028 40.7562 19.2832 40.7902L24.0358 40.871L33.6834 41.0721Z" fill="#ECECEC"/>
<path d="M35.6023 0H34.8799V63.2443H35.6023V0Z" fill="#C8C8C8"/>
<path d="M57.2242 84.4137L55.4566 88.2965H15.0207L13.2578 84.4137L30.4729 72.51H40.0091L57.2242 84.4137Z" fill="#ECECEC"/>
<path d="M41.2048 61.0409L40.0097 72.51H30.4735L29.2783 61.0409H41.2048Z" fill="#DCDCDC"/>
<path d="M57.2232 84.4149L55.4544 88.2977H15.0197L13.2568 84.4149H57.2232Z" fill="#DCDCDC"/>
<path d="M82.8044 0H82.082V50.7173H82.8044V0Z" fill="#C8C8C8"/>
<path d="M104.426 71.8868L102.659 75.7695H62.2228L60.46 71.8868L77.6751 59.983H87.2112L104.426 71.8868Z" fill="#ECECEC"/>
<path d="M88.406 48.5139L87.2108 59.983H77.6746L76.4795 48.5139H88.406Z" fill="#DCDCDC"/>
<path d="M104.424 71.888L102.656 75.7707H62.2209L60.458 71.888H104.424Z" fill="#DCDCDC"/>
<path d="M287.435 174.088H212.286V277.979H287.435V174.088Z" fill="#DCDCDC"/>
<path d="M291.076 170.233H208.646V174.088H291.076V170.233Z" fill="#ECECEC"/>
<path d="M317 170.233H291.076V174.088H317V170.233Z" fill="#DCDCDC"/>
<path d="M312.896 174.088H287.436V277.979H312.896V174.088Z" fill="#ECECEC"/>
<path d="M279.341 222.168H220.38V188.882H279.341L279.341 222.168ZM220.56 221.988H279.16V189.062H220.56V221.988Z" fill="#A8A8A8"/>
<path d="M253.11 198.609H241.631V205.201H253.11V198.609Z" fill="#A8A8A8"/>
<path d="M256.594 204.794H244.934V199.016H256.594V204.794ZM245.114 204.613H256.413V199.197H245.114V204.613Z" fill="#A8A8A8"/>
<path d="M279.341 263.994H220.38V230.707H279.341L279.341 263.994ZM220.56 263.814H279.16V230.888H220.56V263.814Z" fill="#A8A8A8"/>
<path d="M253.11 240.435H241.631V247.027H253.11V240.435Z" fill="#A8A8A8"/>
<path d="M256.594 246.619H244.934V240.842H256.594V246.619ZM245.114 246.439H256.413V241.022H245.114V246.439Z" fill="#A8A8A8"/>
<path d="M73.6473 191.339C72.8433 192.096 71.8466 192.619 70.7659 192.849C70.0829 193.021 69.3811 193.116 68.6873 193.246H66.3117C65.3378 193.094 64.358 192.977 63.3919 192.786C59.8391 192.022 56.4738 190.56 53.4918 188.485C45.6363 183.301 39.0185 176.453 34.1075 168.428C32.4589 165.781 31.3233 162.847 30.76 159.78C30.6165 158.975 30.5076 158.162 30.3818 157.352V154.979C30.5778 154.067 30.7352 153.146 30.9818 152.248C31.2145 151.406 31.6619 150.639 32.2803 150.022C32.3932 150.123 32.5031 150.211 32.603 150.311C36.3821 154.082 40.1624 157.852 43.9441 161.622C44.0663 161.724 44.1534 161.861 44.1932 162.015C44.233 162.169 44.2234 162.332 44.1659 162.48C43.8781 163.413 43.8396 164.406 44.0542 165.359C44.2688 166.312 44.729 167.193 45.3893 167.913C48.6109 171.578 52.0645 175.032 55.7288 178.254C56.4588 178.917 57.3495 179.377 58.3126 179.59C59.2758 179.802 60.2778 179.759 61.2192 179.466C61.4895 179.394 61.6874 179.349 61.923 179.585C65.7853 183.46 69.6538 187.329 73.5285 191.193C73.5631 191.227 73.5897 191.269 73.6473 191.339Z" fill="#ECECEC"/>
<path d="M81.0602 182.863V183.654C80.7161 184.145 80.3457 184.617 79.9507 185.068C78.7828 186.276 77.5791 187.451 76.3883 188.638C76.2616 188.764 76.1301 188.884 76.0262 188.983C72.1224 185.086 68.2357 181.205 64.3662 177.342C65.8905 175.839 67.4158 174.294 68.9896 172.799C69.1597 172.64 69.3602 172.517 69.5791 172.437C69.798 172.357 70.0308 172.322 70.2635 172.334C70.4962 172.347 70.724 172.406 70.9334 172.508C71.1427 172.61 71.3293 172.753 71.4818 172.929C72.3569 173.78 73.2111 174.65 74.0743 175.512C76.1024 177.538 78.1403 179.557 80.1516 181.6C80.4874 181.997 80.7912 182.419 81.0602 182.863Z" fill="#ECECEC"/>
<path d="M50.5098 155.038C49.0647 156.43 47.5928 157.795 46.1625 159.144C42.429 155.416 38.55 151.543 34.5928 147.593C34.85 147.363 35.1421 147.124 35.4093 146.859C36.4734 145.804 37.5166 144.725 38.5984 143.688C39.0399 143.306 39.5022 142.949 39.9832 142.619H40.7751C41.2185 142.888 41.6398 143.192 42.035 143.528C44.8699 146.332 47.6828 149.157 50.5028 151.975C50.7515 152.145 50.9551 152.374 51.0959 152.64C51.2368 152.907 51.3107 153.203 51.3114 153.505C51.3121 153.806 51.2395 154.103 51.0999 154.37C50.9602 154.637 50.7578 154.866 50.5098 155.038Z" fill="#ECECEC"/>
<path d="M300.184 32.4455H224.197V74.9187H300.184V32.4455Z" fill="#DCDCDC"/>
<path d="M209.979 74.9182H224.197V60.1287L209.979 74.9182Z" fill="#DCDCDC"/>
<path d="M284.005 54.6223H233.167V55.5373H284.005V54.6223Z" fill="white"/>
<path d="M273.552 59.564H233.167V60.4792H273.552V59.564Z" fill="white"/>
<path d="M276.6 44.7386H233.167V45.6538H276.6V44.7386Z" fill="white"/>
<path d="M289.875 39.7968H233.167V40.712H289.875V39.7968Z" fill="white"/>
<path d="M277.741 64.5058H233.167V65.4209H277.741V64.5058Z" fill="white"/>
<path opacity="0.35" d="M184.78 332C253.053 332 308.399 325.962 308.399 318.513C308.399 311.064 253.053 305.025 184.78 305.025C116.508 305.025 61.1621 311.064 61.1621 318.513C61.1621 325.962 116.508 332 184.78 332Z" fill="#ECECEC"/>
<path d="M23.2694 263.182C26.613 260.833 30.5262 244.462 30.7596 234.712C30.651 231.493 31.678 228.339 33.6611 225.8C34.4664 224.894 35.041 223.807 35.3362 222.632C35.6314 221.457 35.6385 220.228 35.3568 219.05C34.1586 212.399 37.309 209.528 37.3411 209.5L36.9765 209.085C36.8361 209.207 33.5551 212.168 34.8127 219.148C35.0809 220.254 35.0751 221.409 34.7959 222.512C34.5166 223.616 33.9723 224.634 33.2101 225.481C31.1706 228.113 30.1091 231.371 30.2067 234.698C29.9562 245.163 25.9554 260.619 22.9512 262.73L23.2694 263.182Z" fill="url(#paint0_linear_686_599)"/>
<path d="M16.2604 258.407C15.9447 257.692 15.6183 256.953 15.2485 256.173C13.3385 252.145 11.6465 251.482 8.84318 250.383C8.15814 250.115 7.38175 249.81 6.52959 249.428C2.51397 247.625 3.29144 244.968 3.97748 242.624C4.07334 242.296 4.1691 241.969 4.25193 241.646C4.60516 240.267 3.92662 239.576 2.8996 238.529C1.89831 237.588 1.07044 236.479 0.453843 235.253C-0.347692 233.579 0.0608981 232.681 0.544675 232.223C1.56353 231.259 3.91233 231.436 6.13007 232.646C6.8267 233.081 7.45277 233.619 7.98663 234.243C8.90498 235.359 10.0739 236.243 11.3984 236.824C12.7229 237.404 14.1658 237.664 15.6098 237.583C18.1472 237.595 19.537 237.945 20.2569 238.753C21.0738 239.67 20.9198 241.043 20.7065 242.943C20.6329 243.6 20.5493 244.345 20.4986 245.15C20.3648 248.129 21.2705 251.062 23.0612 253.448C24.7562 255.465 26.8446 259.648 25.9432 262.223C25.7516 262.758 25.4157 263.23 24.9724 263.587C24.5292 263.943 23.996 264.17 23.4317 264.242C22.9667 264.34 22.4931 264.391 22.0179 264.395C18.9054 264.395 17.7663 261.817 16.2604 258.407ZM5.86493 233.131C3.88454 232.051 1.76093 231.833 0.925084 232.624C0.289904 233.225 0.589505 234.256 0.952667 235.014C1.54167 236.187 2.3346 237.246 3.2945 238.142C4.36929 239.237 5.21803 240.103 4.78771 241.783C4.7032 242.112 4.60591 242.445 4.50818 242.779C3.825 245.113 3.17989 247.318 6.75628 248.924C7.59621 249.301 8.36597 249.603 9.04528 249.869C11.8749 250.978 13.7444 251.711 15.7484 255.937C16.1212 256.723 16.4492 257.466 16.7663 258.184C18.4961 262.101 19.5402 264.465 23.322 263.701C23.7909 263.644 24.2351 263.459 24.6054 263.166C24.9758 262.873 25.2581 262.484 25.4212 262.041C26.2154 259.772 24.315 255.799 22.6371 253.803C20.7379 251.317 19.7844 248.238 19.9467 245.115C19.9982 244.297 20.0826 243.545 20.1569 242.881C20.3541 241.123 20.4967 239.853 19.8438 239.12C19.2469 238.45 17.9402 238.147 15.6073 238.136C14.0882 238.222 12.5702 237.949 11.1766 237.339C9.78298 236.728 8.55304 235.799 7.58665 234.625C7.09156 234.043 6.51103 233.539 5.86493 233.131Z" fill="url(#paint1_linear_686_599)"/>
<path d="M23.372 267.585L23.9241 267.556C23.897 267.037 23.2004 254.82 18.2901 251.245C14.4427 248.637 11.6456 244.751 10.3958 240.277C9.44257 236.943 4.59132 236.052 4.38526 236.015L4.28906 236.559C4.33616 236.568 9.00617 237.427 9.86408 240.429C11.1457 245.022 14.0158 249.012 17.9644 251.691C22.664 255.113 23.3653 267.46 23.372 267.585Z" fill="url(#paint2_linear_686_599)"/>
<path d="M22.4369 270.332C21.2815 269.757 21.3234 267.446 21.3868 263.948C21.4669 259.528 21.5766 253.474 19.2602 247.905C16.7995 241.99 18.9941 240.261 21.1164 238.589C23.4936 236.716 25.7388 234.947 21.4297 226.964C19.4505 223.297 18.8223 220.817 19.4522 219.159C20.0749 217.52 21.822 216.881 23.6717 216.205C26.8644 215.037 30.483 213.714 30.0155 206.964C29.8722 204.894 30.1158 203.622 30.782 202.959C31.506 202.239 32.5725 202.317 33.8072 202.407C35.673 202.543 37.7865 202.698 39.6276 200.298C39.8189 199.699 41.5793 194.346 43.6848 193.43C43.8863 193.335 44.1067 193.286 44.3296 193.287C44.5526 193.289 44.7724 193.34 44.9729 193.437C45.5594 193.646 46.0936 193.979 46.5388 194.414C46.984 194.848 47.3296 195.374 47.5517 195.955C48.0418 197.695 46.7665 199.656 45.2896 201.928C42.969 205.498 40.3384 209.544 43.0667 214.359C46.6738 220.725 44.7685 222.953 42.1317 226.036C40.2178 228.065 38.7324 230.457 37.7641 233.071C36.8435 235.698 38.4139 238.202 39.9326 240.624C41.8377 243.662 43.8076 246.803 39.66 249.529C32.8026 254.036 26.0304 268.748 25.9627 268.896L25.9348 268.958L25.8818 268.999C25.0941 269.767 24.0911 270.276 23.0062 270.46C22.809 270.463 22.614 270.419 22.4369 270.332ZM39.3561 249.068C43.0519 246.639 41.3891 243.987 39.464 240.917C37.9498 238.503 36.2337 235.766 37.2422 232.889C38.2311 230.209 39.7511 227.756 41.7112 225.678C44.2948 222.656 46.0017 220.66 42.5854 214.631C39.6919 209.524 42.5386 205.146 44.8259 201.627C46.2295 199.468 47.4416 197.604 47.0194 196.105C46.8155 195.601 46.5061 195.147 46.112 194.773C45.7179 194.399 45.2482 194.113 44.7344 193.935C44.6052 193.873 44.4635 193.841 44.32 193.841C44.1764 193.841 44.0348 193.874 43.9057 193.936C41.9522 194.786 40.1584 200.453 40.1405 200.51L40.1262 200.556L40.0972 200.594C38.068 203.273 35.6833 203.098 33.7668 202.958C32.6217 202.874 31.7173 202.808 31.1723 203.35C30.6355 203.885 30.4376 205.054 30.5672 206.926C31.0634 214.09 27.0703 215.55 23.8617 216.723C22.0592 217.382 20.5022 217.952 19.9693 219.355C19.4005 220.852 20.0192 223.187 21.9164 226.702C26.446 235.094 23.9108 237.091 21.459 239.023C19.4081 240.638 17.4709 242.164 19.7708 247.693C22.1317 253.368 22.0207 259.489 21.9397 263.958C21.8843 267.009 21.8407 269.418 22.6834 269.838C23.1765 270.083 24.1199 269.669 25.4879 268.606C26.0362 267.415 32.5223 253.559 39.3561 249.068Z" fill="url(#paint3_linear_686_599)"/>
<path d="M11.6136 206.208C15.1037 205.013 14.3786 211.733 15.8532 216.705C17.3277 221.677 32.2589 218.873 25.9915 231.324C19.7242 243.774 33.9178 235.488 29.6782 246.352C25.4385 257.217 29.3095 268.837 24.7012 265.881C20.0928 262.925 22.1122 249.244 17.3196 247.618C12.5269 245.992 11.7449 244.096 16.4901 239.677C21.2354 235.257 4.05593 230.87 8.2956 221.946C12.5353 213.022 7.58132 207.589 11.6136 206.208Z" fill="url(#paint4_linear_686_599)"/>
<path d="M23.0949 265.167C23.5338 263.308 27.2821 246.94 23.7846 244.961C20.7023 243.217 20.7781 236.435 21.2591 230.03C21.6847 224.36 14.3959 221.71 14.0854 221.6L13.9004 222.121C13.9725 222.147 21.1015 224.741 20.7075 229.989C20.2137 236.566 20.1608 243.546 23.5122 245.442C26.1676 246.944 23.7228 260.099 22.5567 265.041L23.0949 265.167Z" fill="white"/>
<path d="M36.2619 259.339L31.2793 278.225H20.144L15.1602 259.339H36.2619Z" fill="url(#paint5_linear_686_599)"/>
<path d="M36.2623 259.339C36.2623 259.339 25.2928 261.397 25.2928 278.224H20.144L15.1611 259.339H36.2623Z" fill="url(#paint6_linear_686_599)"/>
<path d="M13.5654 277.979L51.4951 277.803L89.4247 277.74L165.283 277.619L241.142 277.739L279.07 277.802L317 277.979L279.07 278.155L241.142 278.219L165.283 278.339L89.4247 278.218L51.4951 278.154L13.5654 277.979Z" fill="#1A2E35"/>
<path d="M208.923 75.476V299.08C208.923 305.4 204.184 310.513 198.341 310.513H93.8786C88.0215 310.513 83.2832 305.4 83.2832 299.08V75.476C83.2832 62.6005 88.0215 61.9726 93.8786 61.9726H114.807C116.023 61.9726 117.017 63.3526 117.017 65.0637V65.8021C117.017 69.811 119.214 69.8248 121.907 69.8248H170.298C173.02 69.8248 175.202 69.811 175.202 65.8021V65.0638C175.202 63.3526 176.183 61.9726 177.42 61.9726H198.341C204.184 61.9726 208.923 63.6838 208.923 75.476Z" fill="white"/>
<path d="M111.193 66.9948C111.126 67.0616 111.059 67.1285 110.991 67.1953C110.953 67.2334 110.915 67.2719 110.877 67.3104C110.621 67.0542 110.317 66.851 109.983 66.7124C109.648 66.5738 109.289 66.5026 108.927 66.5028C108.565 66.503 108.207 66.5746 107.872 66.7136C107.538 66.8525 107.234 67.0561 106.979 67.3125C106.943 67.275 106.907 67.2363 106.87 67.1986C106.803 67.1315 106.737 67.0649 106.67 66.9983L106.664 66.9948V66.9899L106.679 66.9778C106.764 66.9023 106.847 66.824 106.935 66.7517C107.334 66.4298 107.806 66.2102 108.309 66.1121C108.439 66.0884 108.57 66.0762 108.701 66.0601C108.745 66.0547 109.035 66.0538 109.044 66.0543C109.133 66.0611 109.222 66.0649 109.311 66.0745C109.556 66.1022 109.798 66.1597 110.029 66.2459C110.198 66.3077 110.36 66.3838 110.516 66.4733C110.68 66.5669 110.836 66.6757 110.98 66.798C111.053 66.86 111.122 66.9258 111.193 66.9899L111.193 66.9948Z" fill="white"/>
<path d="M107.62 67.945C107.513 67.8391 107.409 67.7353 107.301 67.6284C107.65 67.2734 108.107 67.0441 108.601 66.9765C108.955 66.9235 109.316 66.9545 109.656 67.0669C109.995 67.1794 110.304 67.3702 110.556 67.6239L110.235 67.943C109.888 67.597 109.417 67.4028 108.927 67.4032C108.437 67.4036 107.967 67.5985 107.62 67.945Z" fill="white"/>
<path d="M109.916 68.2636L109.598 68.5808C109.51 68.4928 109.406 68.423 109.291 68.3754C109.176 68.3279 109.053 68.3035 108.928 68.3037C108.804 68.3038 108.68 68.3285 108.566 68.3764C108.451 68.4242 108.346 68.4943 108.259 68.5825L107.941 68.2657C108.07 68.135 108.224 68.0312 108.393 67.9603C108.563 67.8893 108.745 67.8527 108.928 67.8525C109.112 67.8523 109.294 67.8885 109.463 67.9591C109.633 68.0297 109.787 68.1332 109.916 68.2636Z" fill="white"/>
<path d="M108.929 69.1561C109.087 69.1561 109.216 69.0277 109.216 68.8693C109.216 68.7109 109.087 68.5825 108.929 68.5825C108.77 68.5825 108.642 68.7109 108.642 68.8693C108.642 69.0277 108.77 69.1561 108.929 69.1561Z" fill="white"/>
<path d="M92.3102 68.4369C92.77 68.4369 93.1428 68.0645 93.1428 67.6051C93.1428 67.1457 92.77 66.7733 92.3102 66.7733C91.8503 66.7733 91.4775 67.1457 91.4775 67.6051C91.4775 68.0645 91.8503 68.4369 92.3102 68.4369Z" fill="white"/>
<path d="M94.9332 68.4369C95.3931 68.4369 95.7659 68.0645 95.7659 67.6051C95.7659 67.1457 95.3931 66.7733 94.9332 66.7733C94.4734 66.7733 94.1006 67.1457 94.1006 67.6051C94.1006 68.0645 94.4734 68.4369 94.9332 68.4369Z" fill="white"/>
<path d="M97.5563 68.4369C98.0161 68.4369 98.3889 68.0645 98.3889 67.6051C98.3889 67.1457 98.0161 66.7733 97.5563 66.7733C97.0964 66.7733 96.7236 67.1457 96.7236 67.6051C96.7236 68.0645 97.0964 68.4369 97.5563 68.4369Z" fill="white"/>
<path d="M100.178 68.4369C100.638 68.4369 101.011 68.0645 101.011 67.6051C101.011 67.1457 100.638 66.7733 100.178 66.7733C99.7185 66.7733 99.3457 67.1457 99.3457 67.6051C99.3457 68.0645 99.7185 68.4369 100.178 68.4369Z" fill="white"/>
<path d="M102.801 68.4369C103.261 68.4369 103.634 68.0645 103.634 67.6051C103.634 67.1457 103.261 66.7733 102.801 66.7733C102.342 66.7733 101.969 67.1457 101.969 67.6051C101.969 68.0645 102.342 68.4369 102.801 68.4369Z" fill="white"/>
<path d="M199.5 69.4208H192.722V66.2841H199.5V69.4208ZM193.067 69.0758H199.155V66.6291H193.067V69.0758Z" fill="white"/>
<path d="M197.653 66.8169H193.283V68.8881H197.653V66.8169Z" fill="white"/>
<path d="M200.107 67.0135H199.504V68.6914H200.107V67.0135Z" fill="white"/>
<path d="M152.706 64.8176H139.507C139.4 64.8176 139.294 64.7965 139.195 64.7556C139.096 64.7147 139.006 64.6547 138.93 64.579C138.854 64.5034 138.794 64.4136 138.753 64.3148C138.712 64.2159 138.691 64.11 138.691 64.0031C138.691 63.8961 138.712 63.7902 138.753 63.6914C138.794 63.5925 138.854 63.5028 138.93 63.4271C139.006 63.3515 139.096 63.2915 139.195 63.2506C139.294 63.2097 139.4 63.1886 139.507 63.1886H152.706C152.813 63.1886 152.919 63.2097 153.018 63.2506C153.117 63.2915 153.207 63.3515 153.283 63.4271C153.359 63.5028 153.419 63.5925 153.46 63.6914C153.501 63.7902 153.522 63.8961 153.522 64.0031C153.522 64.11 153.501 64.2159 153.46 64.3148C153.419 64.4136 153.359 64.5034 153.283 64.579C153.207 64.6547 153.117 64.7147 153.018 64.7556C152.919 64.7965 152.813 64.8176 152.706 64.8176Z" fill="white"/>
<path d="M104.52 138.733C104.526 138.059 104.665 137.393 104.93 136.774C105.194 136.154 105.579 135.592 106.061 135.121C106.543 134.65 107.113 134.279 107.739 134.028C108.365 133.778 109.035 133.653 109.709 133.661C110.87 133.659 111.999 134.044 112.915 134.757C113 134.821 113.072 134.902 113.126 134.994C113.18 135.086 113.215 135.188 113.23 135.294C113.244 135.4 113.237 135.507 113.21 135.61C113.182 135.714 113.135 135.81 113.07 135.895C112.934 136.061 112.739 136.167 112.526 136.191C112.313 136.215 112.1 136.154 111.931 136.022C111.294 135.531 110.513 135.265 109.709 135.263C109.24 135.255 108.773 135.342 108.338 135.518C107.903 135.694 107.508 135.956 107.177 136.288C106.844 136.6 106.579 136.976 106.398 137.394C106.216 137.812 106.123 138.263 106.123 138.719C106.123 139.175 106.216 139.625 106.398 140.043C106.579 140.461 106.844 140.838 107.177 141.149C107.508 141.482 107.903 141.744 108.338 141.92C108.773 142.096 109.24 142.183 109.709 142.175C110.387 142.168 111.051 141.984 111.636 141.641V139.716H109.624C109.412 139.714 109.21 139.629 109.06 139.479C108.91 139.329 108.825 139.127 108.823 138.915C108.823 138.811 108.844 138.708 108.884 138.611C108.925 138.515 108.984 138.428 109.059 138.355C109.133 138.281 109.222 138.224 109.319 138.185C109.416 138.146 109.52 138.127 109.624 138.129H112.423C112.528 138.126 112.633 138.144 112.732 138.182C112.83 138.22 112.92 138.277 112.996 138.351C113.072 138.424 113.133 138.511 113.175 138.608C113.216 138.705 113.238 138.81 113.239 138.915V142.02C113.233 142.101 113.218 142.181 113.196 142.259C113.182 142.287 113.182 142.301 113.168 142.329V142.344C113.119 142.482 113.025 142.601 112.901 142.681C111.989 143.391 110.865 143.777 109.709 143.776C109.036 143.787 108.368 143.664 107.743 143.416C107.118 143.168 106.548 142.799 106.066 142.331C105.584 141.862 105.199 141.303 104.934 140.686C104.669 140.068 104.528 139.405 104.52 138.733Z" fill="#A8A8A8"/>
<path d="M115.762 140.264C115.753 139.344 116.109 138.459 116.752 137.8C117.395 137.142 118.273 136.765 119.193 136.752C120.072 136.745 120.919 137.082 121.553 137.691C122.186 138.3 122.556 139.133 122.582 140.011V140.082C122.584 140.124 122.579 140.167 122.568 140.208C122.54 140.377 122.449 140.528 122.313 140.632C122.178 140.737 122.007 140.786 121.837 140.77H117.365C117.432 141.119 117.598 141.441 117.843 141.697C118.205 142.06 118.683 142.284 119.193 142.329C119.706 142.38 120.221 142.256 120.655 141.978C120.796 141.844 120.981 141.765 121.175 141.757C121.369 141.75 121.56 141.813 121.71 141.936C121.771 141.996 121.819 142.067 121.852 142.145C121.884 142.224 121.901 142.308 121.901 142.393C121.901 142.477 121.884 142.562 121.852 142.64C121.819 142.718 121.771 142.79 121.71 142.849C121.025 143.475 120.121 143.808 119.193 143.776C118.273 143.761 117.397 143.383 116.754 142.725C116.112 142.068 115.755 141.183 115.762 140.264ZM117.295 139.576H121.274C121.114 139.15 120.831 138.78 120.46 138.515C120.09 138.25 119.649 138.101 119.193 138.087C118.756 138.088 118.332 138.236 117.988 138.506C117.644 138.775 117.4 139.152 117.295 139.576Z" fill="#A8A8A8"/>
<path d="M127.423 137.525C127.418 137.731 127.333 137.927 127.186 138.071C127.039 138.215 126.842 138.296 126.635 138.298H126.284V142.217C126.387 142.217 126.488 142.238 126.583 142.278C126.678 142.317 126.764 142.375 126.836 142.449C126.908 142.522 126.964 142.609 127.002 142.704C127.04 142.799 127.059 142.901 127.057 143.004C127.059 143.106 127.04 143.207 127.002 143.301C126.963 143.396 126.906 143.481 126.834 143.553C126.762 143.625 126.676 143.682 126.582 143.721C126.487 143.759 126.386 143.778 126.284 143.776C125.87 143.775 125.474 143.61 125.182 143.318C124.89 143.026 124.725 142.63 124.723 142.217V138.298H124.316C124.214 138.298 124.113 138.278 124.019 138.239C123.925 138.201 123.84 138.144 123.768 138.072C123.696 138 123.639 137.915 123.6 137.821C123.562 137.727 123.542 137.626 123.542 137.525C123.541 137.423 123.56 137.322 123.598 137.227C123.636 137.133 123.693 137.047 123.765 136.975C123.837 136.903 123.923 136.846 124.018 136.808C124.112 136.77 124.214 136.751 124.316 136.752H124.723V134.715C124.723 134.612 124.744 134.511 124.784 134.416C124.823 134.322 124.882 134.236 124.955 134.164C125.028 134.092 125.115 134.035 125.21 133.997C125.306 133.959 125.408 133.941 125.51 133.942C125.612 133.941 125.714 133.96 125.808 133.998C125.903 134.036 125.989 134.093 126.061 134.165C126.133 134.237 126.19 134.323 126.228 134.417C126.266 134.512 126.285 134.613 126.284 134.715V136.752H126.635C126.842 136.751 127.041 136.832 127.189 136.976C127.336 137.121 127.421 137.318 127.423 137.525Z" fill="#A8A8A8"/>
<path d="M135.642 134.996C135.644 135.097 135.626 135.197 135.589 135.29C135.551 135.384 135.496 135.469 135.425 135.541C135.354 135.613 135.27 135.671 135.177 135.709C135.083 135.748 134.984 135.769 134.883 135.768C134.679 135.766 134.486 135.684 134.343 135.539C134.201 135.394 134.122 135.199 134.123 134.996V134.701C134.123 134.601 134.142 134.503 134.18 134.41C134.218 134.318 134.274 134.234 134.345 134.164C134.415 134.093 134.499 134.037 134.591 133.999C134.684 133.961 134.783 133.942 134.883 133.942C134.983 133.941 135.082 133.959 135.175 133.997C135.268 134.034 135.352 134.09 135.423 134.161C135.494 134.232 135.55 134.316 135.588 134.409C135.625 134.502 135.644 134.601 135.642 134.701V134.996ZM135.642 137.539V143.018C135.644 143.118 135.625 143.217 135.588 143.31C135.55 143.403 135.494 143.487 135.423 143.558C135.352 143.629 135.268 143.684 135.175 143.722C135.082 143.759 134.983 143.778 134.883 143.776C134.783 143.777 134.684 143.757 134.592 143.719C134.499 143.681 134.415 143.626 134.345 143.555C134.274 143.485 134.218 143.401 134.18 143.309C134.142 143.217 134.123 143.118 134.123 143.018V137.539C134.12 137.438 134.138 137.337 134.175 137.243C134.212 137.148 134.267 137.063 134.338 136.991C134.409 136.918 134.494 136.861 134.587 136.823C134.681 136.784 134.781 136.765 134.883 136.766C134.984 136.764 135.085 136.782 135.179 136.82C135.274 136.858 135.359 136.915 135.43 136.988C135.501 137.06 135.557 137.146 135.593 137.241C135.63 137.336 135.647 137.437 135.642 137.539Z" fill="#A8A8A8"/>
<path d="M143.927 139.674V143.032C143.929 143.227 143.853 143.416 143.716 143.555C143.579 143.695 143.392 143.774 143.196 143.776C142.999 143.773 142.812 143.693 142.673 143.554C142.534 143.415 142.454 143.228 142.45 143.032V139.674C142.444 139.293 142.287 138.929 142.013 138.663C141.738 138.397 141.37 138.25 140.988 138.255C140.802 138.255 140.618 138.292 140.446 138.363C140.274 138.435 140.118 138.539 139.988 138.671C139.857 138.803 139.754 138.96 139.684 139.132C139.614 139.304 139.579 139.489 139.581 139.674V143.032C139.585 143.08 139.575 143.129 139.553 143.172C139.516 143.343 139.422 143.495 139.286 143.605C139.151 143.714 138.982 143.775 138.808 143.776C138.71 143.777 138.613 143.758 138.522 143.721C138.431 143.683 138.349 143.629 138.28 143.559C138.21 143.49 138.155 143.408 138.118 143.317C138.081 143.227 138.062 143.13 138.063 143.032V137.497C138.062 137.399 138.081 137.302 138.118 137.211C138.155 137.121 138.21 137.038 138.28 136.969C138.349 136.9 138.431 136.845 138.522 136.808C138.613 136.77 138.71 136.752 138.808 136.752C138.952 136.752 139.094 136.793 139.216 136.87C139.338 136.947 139.436 137.057 139.497 137.187C139.943 136.905 140.46 136.755 140.988 136.752C141.764 136.753 142.509 137.061 143.06 137.608C143.61 138.156 143.922 138.898 143.927 139.674Z" fill="#A8A8A8"/>
<path d="M154.073 137.525C154.068 137.731 153.983 137.927 153.836 138.071C153.688 138.215 153.491 138.296 153.285 138.298H152.933V142.217C153.036 142.217 153.138 142.238 153.232 142.278C153.327 142.317 153.413 142.375 153.485 142.449C153.557 142.522 153.614 142.609 153.652 142.704C153.69 142.799 153.709 142.901 153.707 143.004C153.708 143.106 153.689 143.207 153.651 143.301C153.613 143.396 153.556 143.481 153.484 143.553C153.411 143.625 153.326 143.682 153.231 143.721C153.137 143.759 153.035 143.778 152.933 143.776C152.52 143.775 152.124 143.61 151.831 143.318C151.539 143.026 151.374 142.63 151.373 142.217V138.298H150.965C150.863 138.298 150.763 138.278 150.669 138.239C150.575 138.201 150.489 138.144 150.417 138.072C150.345 138 150.288 137.915 150.25 137.821C150.211 137.727 150.191 137.626 150.191 137.525C150.19 137.423 150.209 137.322 150.247 137.227C150.286 137.133 150.343 137.047 150.415 136.975C150.487 136.903 150.573 136.846 150.667 136.808C150.762 136.77 150.863 136.751 150.965 136.752H151.373V134.715C151.373 134.612 151.393 134.511 151.433 134.416C151.473 134.322 151.531 134.236 151.604 134.164C151.678 134.092 151.764 134.035 151.86 133.997C151.955 133.959 152.057 133.941 152.16 133.942C152.262 133.941 152.363 133.96 152.458 133.998C152.552 134.036 152.638 134.093 152.71 134.165C152.782 134.237 152.839 134.323 152.878 134.417C152.916 134.512 152.935 134.613 152.933 134.715V136.752H153.285C153.492 136.751 153.691 136.832 153.838 136.976C153.986 137.121 154.07 137.318 154.073 137.525Z" fill="#A8A8A8"/>
<path d="M156.973 142.751C156.337 142.086 155.989 141.198 156.002 140.278C156.005 139.366 156.351 138.488 156.973 137.82C157.28 137.484 157.653 137.216 158.07 137.032C158.486 136.848 158.936 136.753 159.392 136.752C159.837 136.752 160.277 136.847 160.682 137.031C161.087 137.215 161.448 137.484 161.74 137.82C162.377 138.48 162.73 139.362 162.724 140.278C162.735 140.735 162.653 141.19 162.484 141.615C162.315 142.04 162.062 142.426 161.74 142.751C161.448 143.086 161.087 143.355 160.682 143.54C160.277 143.724 159.837 143.819 159.392 143.819C158.936 143.818 158.486 143.722 158.07 143.539C157.654 143.355 157.28 143.087 156.973 142.751ZM157.536 140.278C157.521 140.819 157.701 141.347 158.042 141.768C158.406 142.111 158.891 142.298 159.392 142.287C159.874 142.29 160.339 142.103 160.686 141.768C161.051 141.359 161.247 140.826 161.234 140.278C161.245 139.739 161.048 139.216 160.686 138.817C160.333 138.488 159.874 138.299 159.392 138.283C158.892 138.29 158.411 138.48 158.042 138.817C157.703 139.228 157.524 139.746 157.536 140.278Z" fill="#A8A8A8"/>
<path d="M167.68 143.776C166.905 143.772 166.164 143.463 165.616 142.916C165.069 142.369 164.759 141.628 164.755 140.854V137.497C164.758 137.301 164.838 137.113 164.977 136.974C165.116 136.835 165.304 136.756 165.5 136.752C165.698 136.754 165.886 136.833 166.026 136.972C166.165 137.111 166.244 137.3 166.245 137.497V140.854C166.244 141.043 166.28 141.23 166.351 141.404C166.423 141.579 166.529 141.738 166.662 141.871C166.796 142.004 166.954 142.11 167.129 142.181C167.304 142.253 167.491 142.289 167.68 142.287C168.066 142.292 168.438 142.144 168.714 141.875C168.991 141.607 169.15 141.24 169.157 140.854V137.497C169.156 137.4 169.174 137.304 169.21 137.214C169.246 137.124 169.3 137.042 169.368 136.973C169.435 136.904 169.516 136.849 169.606 136.811C169.695 136.773 169.791 136.753 169.888 136.752C170.085 136.758 170.273 136.838 170.414 136.976C170.554 137.114 170.638 137.3 170.647 137.497V140.854C170.635 141.633 170.318 142.376 169.763 142.923C169.208 143.469 168.46 143.776 167.68 143.776Z" fill="#A8A8A8"/>
<path d="M173.028 140.278C173.041 139.34 173.422 138.444 174.091 137.784C174.759 137.124 175.661 136.753 176.6 136.752C177.41 136.759 178.195 137.03 178.836 137.525C178.988 137.647 179.089 137.821 179.118 138.014C179.146 138.207 179.101 138.403 178.991 138.564C178.931 138.643 178.856 138.709 178.771 138.759C178.685 138.809 178.591 138.841 178.493 138.854C178.395 138.867 178.295 138.861 178.199 138.835C178.104 138.81 178.014 138.765 177.936 138.705C177.551 138.416 177.082 138.258 176.6 138.255C176.33 138.247 176.061 138.293 175.809 138.39C175.557 138.488 175.327 138.635 175.132 138.823C174.938 139.011 174.784 139.236 174.678 139.485C174.573 139.734 174.519 140.001 174.519 140.271C174.519 140.541 174.573 140.809 174.678 141.057C174.784 141.306 174.938 141.531 175.132 141.719C175.327 141.907 175.557 142.055 175.809 142.152C176.061 142.25 176.33 142.295 176.6 142.287C177.082 142.282 177.55 142.125 177.936 141.837C178.098 141.722 178.298 141.673 178.495 141.702C178.692 141.731 178.869 141.835 178.991 141.992C179.1 142.153 179.145 142.35 179.116 142.542C179.088 142.735 178.988 142.909 178.836 143.032C178.186 143.506 177.405 143.766 176.6 143.776C175.664 143.779 174.765 143.413 174.097 142.759C173.428 142.104 173.044 141.213 173.028 140.278Z" fill="#A8A8A8"/>
<path d="M183.116 143.004C183.116 143.106 183.095 143.208 183.055 143.303C183.016 143.397 182.957 143.483 182.884 143.555C182.811 143.627 182.724 143.683 182.628 143.721C182.533 143.759 182.431 143.778 182.328 143.776C182.159 143.772 181.995 143.714 181.861 143.61C181.727 143.507 181.63 143.363 181.583 143.2C181.566 143.136 181.556 143.07 181.555 143.004V134.715C181.557 134.509 181.64 134.313 181.786 134.168C181.932 134.024 182.13 133.943 182.335 133.943C182.541 133.943 182.738 134.024 182.885 134.168C183.031 134.313 183.114 134.509 183.116 134.715V137.159C183.576 136.902 184.093 136.762 184.621 136.752C185.435 136.755 186.216 137.08 186.79 137.657C187.365 138.234 187.687 139.015 187.686 139.829V143.004C187.686 143.209 187.605 143.405 187.46 143.55C187.315 143.695 187.118 143.776 186.913 143.776C186.708 143.776 186.511 143.695 186.366 143.55C186.221 143.405 186.14 143.209 186.14 143.004V139.829C186.141 139.63 186.102 139.432 186.027 139.248C185.951 139.064 185.84 138.896 185.7 138.755C185.559 138.614 185.392 138.502 185.208 138.426C185.024 138.349 184.827 138.31 184.628 138.31C184.428 138.31 184.231 138.349 184.047 138.426C183.863 138.502 183.696 138.614 183.556 138.755C183.415 138.896 183.304 139.064 183.229 139.248C183.153 139.432 183.115 139.63 183.116 139.829L183.116 143.004Z" fill="#A8A8A8"/>
<path d="M196.151 151.75H96.0537V251.231H196.151V151.75Z" fill="white"/>
<path d="M196.151 251.231L96.054 251.276H96.0089L96.0088 251.231L95.9639 151.75L95.9639 151.66L96.054 151.66L196.151 151.705H196.196L196.196 151.75L196.151 251.231ZM196.151 251.231L196.106 151.75L196.151 151.795L96.054 151.84L96.144 151.75L96.0991 251.231L96.054 251.186L196.151 251.231Z" fill="#DCDCDC"/>
<path d="M105.449 164.18C105.449 164.243 105.424 164.303 105.38 164.347C105.335 164.392 105.275 164.417 105.212 164.417C105.15 164.417 105.09 164.392 105.045 164.347C105.001 164.303 104.976 164.243 104.976 164.18V161.655C104.974 161.617 104.982 161.578 104.999 161.543C105.015 161.509 105.04 161.479 105.071 161.456C105.122 161.42 105.185 161.405 105.247 161.415C105.308 161.424 105.364 161.458 105.401 161.508L106.804 163.447V161.659C106.804 161.597 106.829 161.538 106.873 161.494C106.917 161.45 106.976 161.426 107.038 161.425C107.101 161.425 107.161 161.45 107.206 161.494C107.25 161.538 107.276 161.597 107.277 161.659V164.18C107.277 164.243 107.251 164.304 107.207 164.348C107.162 164.393 107.102 164.418 107.038 164.419C107.004 164.418 106.971 164.41 106.94 164.395C106.909 164.38 106.882 164.359 106.86 164.332C106.852 164.324 106.845 164.316 106.839 164.306L105.449 162.38L105.449 164.18Z" fill="#A8A8A8"/>
<path d="M110.106 163.338V164.189C110.106 164.25 110.082 164.308 110.039 164.351C109.996 164.394 109.937 164.418 109.876 164.419C109.823 164.417 109.772 164.398 109.731 164.365C109.69 164.331 109.662 164.284 109.65 164.232C109.482 164.354 109.28 164.419 109.073 164.419C108.935 164.419 108.798 164.391 108.671 164.337C108.544 164.282 108.429 164.202 108.335 164.102C108.142 163.894 108.037 163.621 108.039 163.338C108.035 163.055 108.141 162.782 108.335 162.575C108.428 162.472 108.542 162.391 108.67 162.335C108.797 162.279 108.934 162.25 109.073 162.25C109.281 162.251 109.483 162.318 109.65 162.441C109.661 162.388 109.689 162.34 109.73 162.305C109.771 162.271 109.823 162.251 109.876 162.25C109.938 162.25 109.997 162.275 110.04 162.319C110.083 162.363 110.107 162.422 110.106 162.484V163.338ZM109.646 163.338C109.65 163.173 109.589 163.013 109.477 162.892C109.426 162.835 109.364 162.79 109.294 162.759C109.224 162.729 109.149 162.713 109.073 162.714C108.997 162.712 108.921 162.727 108.851 162.758C108.782 162.789 108.719 162.834 108.669 162.892C108.558 163.013 108.499 163.174 108.504 163.338C108.5 163.503 108.559 163.662 108.669 163.785C108.721 163.84 108.784 163.883 108.853 163.912C108.923 163.941 108.998 163.956 109.073 163.955C109.148 163.955 109.223 163.94 109.292 163.911C109.361 163.882 109.424 163.839 109.477 163.785C109.588 163.663 109.648 163.503 109.646 163.338Z" fill="#A8A8A8"/>
<path d="M112.772 163.147V164.189C112.771 164.25 112.747 164.308 112.704 164.351C112.661 164.394 112.602 164.418 112.541 164.419C112.48 164.418 112.422 164.393 112.378 164.351C112.334 164.308 112.309 164.25 112.307 164.189V163.147C112.304 163.031 112.255 162.92 112.171 162.839C112.087 162.758 111.974 162.713 111.857 162.715C111.74 162.716 111.629 162.764 111.547 162.848C111.466 162.931 111.42 163.044 111.421 163.16V164.189C111.421 164.197 111.416 164.21 111.416 164.219V164.232C111.412 164.241 111.412 164.25 111.403 164.258V164.28C111.383 164.32 111.352 164.355 111.314 164.379C111.276 164.403 111.232 164.417 111.186 164.419C111.169 164.419 111.156 164.414 111.143 164.414C111.091 164.403 111.044 164.375 111.01 164.334C110.976 164.293 110.957 164.242 110.956 164.189V162.484C110.955 162.453 110.961 162.423 110.972 162.395C110.984 162.366 111 162.34 111.022 162.318C111.043 162.297 111.069 162.279 111.097 162.267C111.126 162.256 111.156 162.25 111.186 162.25C111.23 162.248 111.273 162.26 111.31 162.283C111.348 162.306 111.377 162.34 111.395 162.38C111.535 162.295 111.696 162.251 111.859 162.25C111.946 162.344 112.052 162.419 112.169 162.471C112.286 162.522 112.413 162.549 112.541 162.549C112.669 162.549 112.796 162.522 112.914 162.471C113.031 162.419 113.136 162.344 113.223 162.25C113.342 162.25 113.46 162.274 113.57 162.32C113.68 162.366 113.78 162.433 113.864 162.518C113.948 162.603 114.014 162.703 114.059 162.813C114.104 162.923 114.127 163.041 114.126 163.161V164.189C114.126 164.25 114.102 164.308 114.059 164.351C114.016 164.394 113.957 164.418 113.896 164.419C113.835 164.419 113.776 164.394 113.732 164.351C113.688 164.308 113.663 164.25 113.662 164.189V163.161C113.662 163.043 113.617 162.931 113.534 162.847C113.452 162.763 113.34 162.715 113.223 162.714C113.106 162.713 112.994 162.758 112.909 162.839C112.825 162.92 112.776 163.031 112.772 163.147Z" fill="#A8A8A8"/>
<path d="M114.932 163.334C114.929 163.05 115.039 162.777 115.237 162.573C115.436 162.37 115.707 162.254 115.991 162.25C116.263 162.247 116.524 162.351 116.72 162.54C116.916 162.728 117.03 162.985 117.038 163.256V163.278C117.039 163.291 117.037 163.304 117.033 163.317C117.025 163.369 116.997 163.416 116.955 163.448C116.913 163.48 116.86 163.495 116.808 163.49H115.427C115.447 163.598 115.499 163.697 115.574 163.777C115.686 163.889 115.834 163.958 115.991 163.972C116.15 163.987 116.309 163.949 116.443 163.863C116.486 163.822 116.543 163.798 116.603 163.795C116.663 163.793 116.722 163.812 116.769 163.85C116.787 163.869 116.802 163.891 116.812 163.915C116.822 163.939 116.828 163.965 116.828 163.991C116.828 164.018 116.822 164.043 116.812 164.068C116.802 164.092 116.787 164.114 116.769 164.132C116.557 164.326 116.278 164.428 115.991 164.419C115.707 164.414 115.437 164.297 115.238 164.094C115.04 163.891 114.93 163.618 114.932 163.334ZM115.405 163.122H116.634C116.585 162.99 116.497 162.876 116.383 162.794C116.268 162.712 116.132 162.666 115.991 162.661C115.856 162.662 115.725 162.708 115.619 162.791C115.513 162.875 115.438 162.991 115.405 163.122Z" fill="#A8A8A8"/>
<path opacity="0.2" d="M187.687 167.049H104.52V174.041H187.687V167.049Z" fill="#0073F1"/>
<path d="M104.971 183.112V180.552C104.97 180.52 104.976 180.489 104.988 180.46C105 180.431 105.017 180.404 105.04 180.382C105.062 180.36 105.088 180.342 105.118 180.331C105.147 180.319 105.178 180.313 105.21 180.313H106.63C106.693 180.314 106.753 180.339 106.798 180.384C106.842 180.428 106.868 180.489 106.868 180.552C106.868 180.615 106.843 180.676 106.798 180.722C106.754 180.767 106.693 180.793 106.63 180.795H105.453V181.589H106.465C106.528 181.59 106.589 181.615 106.633 181.66C106.678 181.705 106.703 181.766 106.703 181.83C106.703 181.893 106.678 181.954 106.633 181.999C106.589 182.044 106.528 182.07 106.465 182.071H105.453V182.869H106.63C106.693 182.869 106.754 182.895 106.799 182.94C106.843 182.985 106.868 183.046 106.868 183.11C106.868 183.173 106.843 183.234 106.799 183.279C106.754 183.324 106.693 183.35 106.63 183.351H105.223C105.214 183.351 105.214 183.346 105.214 183.346L105.21 183.351C105.178 183.351 105.147 183.345 105.118 183.333C105.089 183.321 105.063 183.303 105.04 183.281C105.018 183.259 105.001 183.232 104.989 183.203C104.977 183.174 104.971 183.143 104.971 183.112Z" fill="#A8A8A8"/>
<path d="M109.312 182.079V183.12C109.312 183.181 109.288 183.239 109.245 183.283C109.202 183.326 109.143 183.35 109.082 183.351C109.021 183.35 108.962 183.325 108.919 183.282C108.875 183.239 108.85 183.181 108.848 183.12V182.079C108.845 181.962 108.796 181.851 108.712 181.77C108.628 181.689 108.515 181.644 108.398 181.646C108.281 181.648 108.17 181.696 108.088 181.779C108.006 181.863 107.961 181.975 107.962 182.092V183.12C107.962 183.129 107.957 183.142 107.957 183.151V183.164C107.953 183.172 107.953 183.182 107.944 183.19V183.212C107.924 183.252 107.893 183.286 107.855 183.311C107.817 183.335 107.773 183.349 107.727 183.351C107.71 183.351 107.697 183.346 107.684 183.346C107.632 183.335 107.585 183.307 107.551 183.266C107.517 183.225 107.498 183.173 107.497 183.12V181.415C107.497 181.385 107.502 181.355 107.513 181.326C107.525 181.298 107.541 181.272 107.563 181.25C107.584 181.228 107.61 181.211 107.638 181.199C107.666 181.187 107.697 181.181 107.727 181.181C107.771 181.18 107.814 181.191 107.851 181.215C107.889 181.238 107.918 181.271 107.936 181.311C108.076 181.227 108.237 181.182 108.4 181.181C108.487 181.275 108.592 181.351 108.71 181.402C108.827 181.454 108.954 181.48 109.082 181.48C109.21 181.48 109.337 181.454 109.454 181.402C109.572 181.351 109.677 181.275 109.764 181.181C109.883 181.182 110.001 181.206 110.111 181.252C110.221 181.298 110.321 181.365 110.405 181.45C110.488 181.534 110.555 181.634 110.6 181.745C110.645 181.855 110.668 181.973 110.667 182.092V183.12C110.667 183.181 110.643 183.239 110.6 183.283C110.557 183.326 110.498 183.35 110.437 183.351C110.376 183.35 110.317 183.326 110.273 183.283C110.229 183.24 110.204 183.182 110.203 183.12V182.092C110.203 181.975 110.158 181.862 110.075 181.778C109.993 181.695 109.881 181.647 109.764 181.645C109.647 181.645 109.535 181.69 109.45 181.771C109.366 181.852 109.317 181.962 109.312 182.079Z" fill="#A8A8A8"/>
<path d="M113.461 182.27V183.12C113.461 183.181 113.436 183.239 113.393 183.283C113.35 183.326 113.292 183.35 113.231 183.351C113.178 183.349 113.126 183.33 113.085 183.296C113.044 183.263 113.016 183.216 113.005 183.164C112.837 183.285 112.635 183.351 112.427 183.351C112.289 183.351 112.152 183.323 112.025 183.269C111.898 183.214 111.784 183.134 111.689 183.033C111.497 182.826 111.391 182.553 111.394 182.27C111.39 181.987 111.496 181.713 111.689 181.506C111.783 181.404 111.897 181.322 112.024 181.266C112.151 181.21 112.289 181.181 112.427 181.181C112.635 181.183 112.837 181.249 113.005 181.372C113.015 181.319 113.043 181.272 113.084 181.237C113.125 181.202 113.177 181.182 113.231 181.181C113.293 181.182 113.351 181.207 113.394 181.251C113.438 181.295 113.461 181.354 113.461 181.415V182.27ZM113.001 182.27C113.004 182.105 112.943 181.945 112.831 181.823C112.78 181.767 112.718 181.722 112.648 181.691C112.579 181.66 112.504 181.645 112.427 181.645C112.351 181.644 112.276 181.659 112.206 181.69C112.136 181.72 112.074 181.766 112.024 181.823C111.913 181.945 111.853 182.105 111.859 182.27C111.855 182.435 111.914 182.594 112.024 182.717C112.076 182.772 112.138 182.815 112.208 182.844C112.277 182.873 112.352 182.887 112.427 182.886C112.503 182.887 112.577 182.872 112.647 182.843C112.716 182.814 112.779 182.771 112.831 182.717C112.942 182.595 113.003 182.435 113.001 182.27Z" fill="#A8A8A8"/>
<path d="M114.784 180.639C114.784 180.67 114.779 180.701 114.767 180.73C114.756 180.759 114.738 180.785 114.717 180.807C114.695 180.83 114.669 180.847 114.64 180.859C114.611 180.871 114.58 180.877 114.549 180.877C114.486 180.877 114.427 180.851 114.383 180.806C114.339 180.762 114.314 180.702 114.315 180.639V180.548C114.314 180.517 114.32 180.486 114.332 180.458C114.344 180.429 114.361 180.404 114.383 180.382C114.405 180.36 114.431 180.343 114.459 180.331C114.488 180.319 114.518 180.313 114.549 180.313C114.58 180.313 114.611 180.319 114.639 180.33C114.668 180.342 114.694 180.359 114.716 180.381C114.738 180.403 114.755 180.429 114.767 180.457C114.778 180.486 114.784 180.517 114.784 180.548V180.639ZM114.784 181.424V183.116C114.784 183.147 114.779 183.178 114.767 183.206C114.755 183.235 114.738 183.261 114.716 183.283C114.694 183.305 114.668 183.322 114.64 183.334C114.611 183.345 114.58 183.351 114.549 183.351C114.518 183.351 114.488 183.345 114.459 183.333C114.431 183.321 114.405 183.304 114.383 183.282C114.361 183.26 114.344 183.234 114.332 183.206C114.32 183.177 114.314 183.147 114.315 183.116V181.424C114.314 181.393 114.319 181.362 114.33 181.333C114.342 181.303 114.359 181.277 114.381 181.255C114.403 181.232 114.429 181.215 114.458 181.203C114.487 181.191 114.518 181.185 114.549 181.185C114.58 181.185 114.612 181.19 114.641 181.202C114.67 181.214 114.696 181.232 114.718 181.254C114.74 181.276 114.757 181.303 114.769 181.332C114.78 181.361 114.785 181.393 114.784 181.424Z" fill="#A8A8A8"/>
<path d="M115.708 180.313C115.772 180.313 115.834 180.338 115.879 180.382C115.925 180.427 115.951 180.488 115.952 180.552V183.112C115.951 183.175 115.926 183.236 115.88 183.28C115.835 183.325 115.774 183.35 115.711 183.35C115.647 183.35 115.586 183.325 115.541 183.28C115.496 183.236 115.47 183.175 115.47 183.112V180.552C115.47 180.489 115.496 180.428 115.54 180.384C115.585 180.339 115.645 180.314 115.708 180.313Z" fill="#A8A8A8"/>
<path d="M119.659 182.27V183.12C119.658 183.181 119.634 183.239 119.591 183.283C119.548 183.326 119.49 183.35 119.429 183.351C119.376 183.349 119.324 183.33 119.283 183.296C119.242 183.263 119.214 183.216 119.203 183.164C119.035 183.285 118.833 183.351 118.625 183.351C118.487 183.351 118.35 183.323 118.223 183.269C118.096 183.214 117.982 183.134 117.887 183.033C117.695 182.826 117.589 182.553 117.592 182.27C117.588 181.987 117.694 181.713 117.887 181.506C117.981 181.404 118.095 181.322 118.222 181.266C118.349 181.21 118.486 181.181 118.625 181.181C118.833 181.182 119.035 181.249 119.203 181.372C119.213 181.319 119.241 181.272 119.282 181.237C119.323 181.202 119.375 181.182 119.429 181.181C119.49 181.182 119.549 181.207 119.592 181.251C119.635 181.295 119.659 181.354 119.659 181.415V182.27ZM119.198 182.27C119.202 182.105 119.141 181.945 119.029 181.823C118.978 181.767 118.916 181.722 118.846 181.691C118.777 181.66 118.701 181.645 118.625 181.645C118.549 181.644 118.473 181.659 118.404 181.69C118.334 181.72 118.272 181.766 118.221 181.823C118.11 181.945 118.051 182.105 118.056 182.27C118.053 182.434 118.112 182.594 118.221 182.717C118.273 182.772 118.336 182.815 118.406 182.844C118.475 182.873 118.55 182.887 118.625 182.886C118.701 182.887 118.775 182.872 118.844 182.843C118.914 182.814 118.977 182.771 119.029 182.717C119.14 182.595 119.2 182.435 119.198 182.27Z" fill="#A8A8A8"/>
<path d="M122.476 183.116C122.476 183.178 122.451 183.237 122.407 183.281C122.363 183.325 122.304 183.35 122.241 183.351C122.187 183.351 122.135 183.332 122.093 183.298C122.051 183.264 122.022 183.217 122.011 183.164C121.837 183.283 121.632 183.348 121.421 183.351C121.138 183.343 120.87 183.225 120.673 183.022C120.475 182.82 120.365 182.548 120.365 182.266C120.365 181.983 120.475 181.712 120.673 181.51C120.87 181.307 121.138 181.189 121.421 181.181C121.629 181.182 121.832 181.245 122.003 181.363V180.548C122.003 180.485 122.028 180.425 122.072 180.38C122.116 180.336 122.177 180.311 122.239 180.311C122.302 180.311 122.362 180.336 122.407 180.38C122.451 180.425 122.476 180.485 122.476 180.548L122.476 183.116ZM121.421 181.654C121.344 181.654 121.268 181.67 121.198 181.701C121.128 181.731 121.064 181.776 121.012 181.832C120.901 181.949 120.839 182.104 120.839 182.266C120.839 182.427 120.901 182.582 121.012 182.699C121.065 182.755 121.128 182.8 121.198 182.831C121.268 182.861 121.344 182.877 121.421 182.878C121.497 182.878 121.573 182.862 121.643 182.831C121.714 182.801 121.777 182.756 121.829 182.699C121.94 182.583 122.003 182.427 122.003 182.266C122.003 182.104 121.94 181.949 121.829 181.832C121.777 181.776 121.714 181.731 121.643 181.7C121.573 181.67 121.497 181.654 121.421 181.654Z" fill="#A8A8A8"/>
<path d="M124.711 181.411C124.71 181.472 124.686 181.53 124.643 181.573C124.6 181.616 124.541 181.641 124.481 181.641C124.387 181.638 124.295 181.667 124.22 181.723C124.139 181.777 124.07 181.848 124.02 181.932C123.942 182.043 123.882 182.166 123.842 182.296V183.12C123.841 183.182 123.815 183.241 123.77 183.284C123.725 183.327 123.665 183.351 123.603 183.351C123.542 183.35 123.484 183.326 123.441 183.283C123.398 183.239 123.373 183.181 123.373 183.12V181.411C123.374 181.351 123.398 181.293 123.441 181.251C123.485 181.208 123.543 181.185 123.603 181.185C123.665 181.184 123.725 181.207 123.769 181.249C123.814 181.291 123.84 181.349 123.842 181.411V181.441C123.869 181.409 123.9 181.38 123.933 181.355C124.094 181.243 124.285 181.184 124.481 181.185C124.511 181.185 124.54 181.19 124.568 181.201C124.596 181.212 124.622 181.229 124.643 181.25C124.665 181.271 124.682 181.296 124.693 181.324C124.705 181.351 124.711 181.381 124.711 181.411Z" fill="#A8A8A8"/>
<path d="M124.909 182.266C124.906 181.982 125.016 181.708 125.215 181.505C125.414 181.302 125.685 181.185 125.969 181.181C126.241 181.179 126.502 181.283 126.698 181.471C126.893 181.659 127.007 181.916 127.015 182.188V182.209C127.016 182.222 127.014 182.236 127.011 182.248C127.002 182.3 126.974 182.347 126.932 182.379C126.89 182.412 126.838 182.427 126.785 182.422H125.404C125.425 182.53 125.476 182.629 125.552 182.709C125.664 182.82 125.811 182.89 125.969 182.904C126.127 182.919 126.286 182.881 126.421 182.795C126.464 182.754 126.521 182.729 126.581 182.727C126.641 182.724 126.7 182.744 126.746 182.782C126.765 182.8 126.78 182.822 126.79 182.847C126.8 182.871 126.805 182.897 126.805 182.923C126.805 182.949 126.8 182.975 126.79 182.999C126.78 183.023 126.765 183.045 126.746 183.064C126.535 183.257 126.256 183.36 125.969 183.351C125.685 183.346 125.414 183.229 125.216 183.026C125.017 182.823 124.907 182.55 124.909 182.266ZM125.383 182.053H126.612C126.562 181.922 126.475 181.808 126.36 181.726C126.246 181.644 126.11 181.598 125.969 181.593C125.834 181.594 125.703 181.639 125.597 181.723C125.491 181.806 125.415 181.922 125.383 182.053Z" fill="#A8A8A8"/>
<path d="M127.6 182.73C127.619 182.706 127.642 182.685 127.669 182.67C127.695 182.655 127.725 182.646 127.755 182.643C127.786 182.64 127.817 182.643 127.846 182.652C127.875 182.661 127.902 182.675 127.925 182.695C128.059 182.81 128.227 182.877 128.404 182.886C128.508 182.886 128.609 182.857 128.699 182.804C128.72 182.789 128.739 182.77 128.752 182.747C128.766 182.725 128.774 182.7 128.777 182.673C128.778 182.658 128.773 182.643 128.764 182.63C128.751 182.608 128.731 182.59 128.708 182.578C128.6 182.517 128.482 182.476 128.36 182.457H128.356C128.226 182.434 128.099 182.396 127.978 182.344C127.857 182.289 127.753 182.202 127.678 182.092C127.629 182.01 127.603 181.915 127.604 181.819C127.607 181.725 127.632 181.633 127.676 181.55C127.721 181.467 127.784 181.396 127.86 181.342C128.018 181.235 128.204 181.179 128.394 181.181C128.632 181.19 128.86 181.273 129.046 181.42C129.097 181.454 129.132 181.507 129.145 181.567C129.158 181.626 129.147 181.689 129.115 181.741C129.098 181.766 129.077 181.788 129.051 181.804C129.026 181.821 128.997 181.833 128.968 181.838C128.938 181.844 128.907 181.844 128.877 181.837C128.848 181.831 128.819 181.819 128.794 181.801C128.68 181.71 128.541 181.654 128.394 181.641C128.302 181.639 128.211 181.666 128.134 181.719C128.115 181.729 128.099 181.743 128.087 181.76C128.075 181.778 128.068 181.798 128.065 181.819C128.063 181.831 128.066 181.844 128.073 181.854C128.085 181.872 128.101 181.888 128.121 181.897C128.219 181.951 128.327 181.987 128.438 182.001L128.442 182.005H128.447C128.586 182.029 128.722 182.071 128.851 182.131C128.977 182.184 129.085 182.273 129.159 182.387C129.212 182.474 129.24 182.572 129.242 182.674C129.239 182.773 129.213 182.871 129.166 182.959C129.118 183.046 129.05 183.121 128.968 183.177C128.802 183.291 128.605 183.351 128.404 183.351C128.119 183.341 127.847 183.235 127.63 183.051C127.584 183.012 127.555 182.957 127.55 182.897C127.544 182.837 127.562 182.777 127.6 182.73Z" fill="#A8A8A8"/>
<path d="M129.692 182.73C129.711 182.706 129.734 182.685 129.761 182.67C129.788 182.655 129.817 182.646 129.847 182.643C129.878 182.64 129.909 182.643 129.938 182.652C129.967 182.661 129.995 182.675 130.018 182.695C130.151 182.81 130.319 182.877 130.495 182.886C130.599 182.886 130.701 182.857 130.79 182.804C130.812 182.789 130.831 182.77 130.844 182.748C130.858 182.725 130.866 182.7 130.869 182.673C130.87 182.658 130.865 182.643 130.856 182.63C130.852 182.617 130.834 182.6 130.799 182.578C130.692 182.517 130.574 182.476 130.452 182.457H130.447C130.317 182.434 130.191 182.396 130.069 182.344C129.948 182.289 129.845 182.202 129.77 182.092C129.721 182.01 129.695 181.915 129.696 181.819C129.699 181.725 129.724 181.633 129.768 181.55C129.813 181.467 129.876 181.396 129.952 181.342C130.11 181.235 130.296 181.179 130.486 181.181C130.723 181.19 130.952 181.273 131.138 181.42C131.188 181.454 131.224 181.507 131.237 181.567C131.249 181.626 131.239 181.689 131.207 181.741C131.19 181.766 131.169 181.788 131.143 181.804C131.118 181.821 131.089 181.833 131.059 181.838C131.03 181.844 130.999 181.844 130.969 181.837C130.939 181.831 130.911 181.819 130.886 181.801C130.772 181.71 130.632 181.654 130.486 181.641C130.393 181.639 130.302 181.666 130.226 181.719C130.207 181.729 130.191 181.743 130.179 181.76C130.167 181.778 130.159 181.798 130.156 181.819C130.155 181.825 130.155 181.831 130.157 181.837C130.159 181.843 130.161 181.849 130.165 181.854C130.177 181.872 130.193 181.888 130.213 181.897C130.311 181.951 130.419 181.987 130.53 182.001L130.534 182.005H130.538C130.678 182.029 130.814 182.071 130.943 182.131C131.069 182.184 131.176 182.273 131.251 182.387C131.304 182.474 131.332 182.572 131.333 182.674C131.331 182.773 131.305 182.871 131.258 182.959C131.21 183.046 131.142 183.121 131.06 183.177C130.894 183.291 130.697 183.351 130.495 183.351C130.211 183.341 129.939 183.235 129.722 183.051C129.676 183.012 129.647 182.957 129.642 182.897C129.636 182.837 129.654 182.777 129.692 182.73Z" fill="#A8A8A8"/>
<path opacity="0.2" d="M187.687 185.981H104.52V192.972H187.687V185.981Z" fill="#0073F1"/>
<path d="M107.086 199.653L106.196 200.871V202.043C106.196 202.075 106.19 202.106 106.178 202.135C106.166 202.164 106.149 202.191 106.126 202.213C106.104 202.235 106.078 202.253 106.048 202.264C106.019 202.276 105.988 202.282 105.956 202.282C105.893 202.281 105.833 202.256 105.788 202.211C105.744 202.167 105.718 202.106 105.718 202.043V200.871L104.836 199.653C104.817 199.629 104.802 199.6 104.794 199.57C104.786 199.54 104.784 199.509 104.788 199.478C104.793 199.447 104.804 199.417 104.82 199.391C104.837 199.364 104.858 199.341 104.884 199.323C104.909 199.304 104.937 199.291 104.967 199.283C104.998 199.275 105.029 199.274 105.06 199.279C105.091 199.284 105.12 199.295 105.147 199.311C105.173 199.328 105.196 199.35 105.214 199.375L105.956 200.39L106.699 199.375C106.718 199.35 106.741 199.328 106.768 199.312C106.795 199.295 106.825 199.284 106.856 199.28C106.887 199.275 106.919 199.276 106.949 199.284C106.98 199.291 107.008 199.305 107.034 199.323C107.083 199.361 107.117 199.416 107.126 199.478C107.136 199.539 107.122 199.602 107.086 199.653Z" fill="#A8A8A8"/>
<path d="M107.267 201.965C107.071 201.76 106.964 201.485 106.968 201.201C106.969 200.92 107.076 200.649 107.267 200.442C107.362 200.339 107.478 200.256 107.606 200.199C107.735 200.142 107.874 200.113 108.014 200.112C108.152 200.112 108.288 200.142 108.413 200.199C108.538 200.256 108.649 200.339 108.74 200.442C108.936 200.646 109.045 200.918 109.044 201.201C109.047 201.342 109.022 201.483 108.969 201.614C108.917 201.745 108.839 201.865 108.74 201.965C108.649 202.069 108.538 202.152 108.413 202.209C108.288 202.266 108.152 202.295 108.014 202.295C107.874 202.295 107.735 202.265 107.606 202.208C107.478 202.152 107.362 202.069 107.267 201.965ZM107.441 201.201C107.437 201.368 107.492 201.531 107.597 201.661C107.71 201.768 107.86 201.825 108.014 201.822C108.164 201.823 108.307 201.765 108.414 201.661C108.527 201.535 108.587 201.371 108.583 201.201C108.587 201.035 108.526 200.873 108.414 200.75C108.305 200.649 108.163 200.59 108.014 200.585C107.86 200.588 107.712 200.646 107.597 200.75C107.493 200.877 107.438 201.037 107.441 201.201Z" fill="#A8A8A8"/>
<path d="M110.57 202.282C110.331 202.28 110.102 202.185 109.933 202.016C109.764 201.847 109.668 201.618 109.667 201.38V200.342C109.668 200.282 109.693 200.224 109.736 200.181C109.778 200.138 109.836 200.114 109.897 200.112C109.958 200.113 110.016 200.137 110.059 200.18C110.102 200.223 110.127 200.281 110.127 200.342V201.38C110.127 201.438 110.138 201.496 110.16 201.549C110.182 201.603 110.215 201.652 110.256 201.694C110.297 201.735 110.346 201.767 110.4 201.789C110.454 201.811 110.512 201.823 110.57 201.822C110.689 201.823 110.804 201.778 110.89 201.695C110.975 201.612 111.024 201.499 111.026 201.38V200.342C111.026 200.282 111.049 200.224 111.092 200.181C111.134 200.138 111.192 200.113 111.252 200.112C111.313 200.114 111.371 200.139 111.414 200.181C111.458 200.224 111.484 200.281 111.487 200.342V201.38C111.483 201.62 111.385 201.849 111.214 202.018C111.042 202.187 110.811 202.282 110.57 202.282Z" fill="#A8A8A8"/>
<path d="M113.709 200.342C113.708 200.403 113.684 200.461 113.641 200.505C113.598 200.548 113.54 200.572 113.479 200.573C113.385 200.57 113.293 200.599 113.218 200.655C113.137 200.709 113.069 200.78 113.018 200.863C112.941 200.975 112.881 201.097 112.84 201.227V202.052C112.839 202.114 112.813 202.172 112.768 202.215C112.723 202.258 112.663 202.282 112.601 202.282C112.541 202.281 112.482 202.257 112.439 202.214C112.396 202.171 112.372 202.113 112.371 202.052V200.342C112.372 200.282 112.396 200.224 112.44 200.182C112.483 200.14 112.541 200.116 112.601 200.117C112.663 200.115 112.723 200.138 112.767 200.18C112.812 200.222 112.838 200.281 112.84 200.342V200.373C112.867 200.34 112.898 200.311 112.931 200.286C113.092 200.175 113.283 200.116 113.479 200.117C113.509 200.116 113.538 200.121 113.566 200.132C113.594 200.144 113.62 200.16 113.641 200.181C113.663 200.202 113.68 200.227 113.691 200.255C113.703 200.282 113.709 200.312 113.709 200.342Z" fill="#A8A8A8"/>
<path d="M117.394 201.01V202.052C117.393 202.113 117.369 202.171 117.326 202.214C117.282 202.257 117.224 202.281 117.163 202.282C117.102 202.281 117.044 202.256 117 202.213C116.956 202.171 116.931 202.113 116.929 202.052V201.01C116.926 200.893 116.877 200.782 116.793 200.701C116.709 200.62 116.596 200.575 116.479 200.577C116.362 200.579 116.25 200.627 116.169 200.711C116.087 200.794 116.042 200.907 116.043 201.024V202.052C116.043 202.06 116.038 202.074 116.038 202.082V202.096C116.034 202.104 116.034 202.112 116.025 202.121V202.143C116.005 202.183 115.974 202.217 115.936 202.242C115.898 202.266 115.854 202.28 115.808 202.282C115.791 202.282 115.778 202.277 115.765 202.277C115.713 202.266 115.666 202.238 115.632 202.197C115.598 202.156 115.579 202.105 115.578 202.052V200.347C115.578 200.316 115.583 200.286 115.594 200.258C115.606 200.229 115.623 200.203 115.644 200.181C115.665 200.16 115.691 200.142 115.719 200.13C115.747 200.118 115.778 200.112 115.808 200.112C115.852 200.111 115.895 200.123 115.933 200.146C115.97 200.169 115.999 200.203 116.017 200.243C116.157 200.158 116.318 200.113 116.481 200.112C116.568 200.207 116.674 200.282 116.791 200.334C116.908 200.385 117.035 200.412 117.163 200.412C117.291 200.412 117.418 200.385 117.536 200.334C117.653 200.282 117.758 200.207 117.845 200.112C117.964 200.113 118.082 200.137 118.192 200.183C118.302 200.229 118.402 200.296 118.486 200.381C118.57 200.466 118.636 200.566 118.681 200.676C118.726 200.786 118.749 200.905 118.748 201.024V202.052C118.748 202.113 118.724 202.171 118.681 202.214C118.638 202.257 118.579 202.281 118.518 202.282C118.457 202.281 118.398 202.257 118.354 202.214C118.311 202.171 118.285 202.113 118.284 202.052V201.024C118.284 200.906 118.239 200.794 118.156 200.71C118.074 200.626 117.962 200.578 117.845 200.577C117.728 200.576 117.616 200.621 117.532 200.702C117.447 200.783 117.398 200.894 117.394 201.01Z" fill="#A8A8A8"/>
<path d="M119.554 201.197C119.551 200.913 119.661 200.639 119.859 200.436C120.058 200.233 120.329 200.117 120.613 200.112C120.885 200.11 121.146 200.214 121.342 200.402C121.538 200.59 121.652 200.848 121.66 201.119V201.141C121.661 201.154 121.659 201.167 121.656 201.18C121.647 201.232 121.619 201.279 121.577 201.311C121.535 201.343 121.482 201.358 121.43 201.353H120.049C120.07 201.461 120.121 201.56 120.196 201.64C120.308 201.752 120.456 201.821 120.613 201.835C120.772 201.85 120.931 201.812 121.065 201.726C121.109 201.685 121.166 201.66 121.226 201.658C121.286 201.656 121.344 201.676 121.391 201.714C121.409 201.732 121.424 201.754 121.434 201.778C121.445 201.802 121.45 201.828 121.45 201.855C121.45 201.881 121.445 201.907 121.434 201.931C121.424 201.955 121.409 201.977 121.391 201.995C121.179 202.189 120.9 202.291 120.613 202.282C120.329 202.277 120.059 202.16 119.86 201.957C119.662 201.754 119.552 201.481 119.554 201.197ZM120.027 200.985H121.256C121.207 200.853 121.12 200.739 121.005 200.657C120.89 200.575 120.754 200.529 120.613 200.525C120.478 200.525 120.347 200.571 120.241 200.654C120.135 200.738 120.06 200.854 120.027 200.985Z" fill="#A8A8A8"/>
<path d="M122.244 201.661C122.263 201.637 122.286 201.617 122.313 201.602C122.34 201.587 122.369 201.577 122.4 201.574C122.43 201.571 122.461 201.574 122.49 201.583C122.52 201.592 122.547 201.607 122.57 201.627C122.704 201.741 122.872 201.808 123.048 201.818C123.152 201.817 123.254 201.789 123.343 201.735C123.365 201.721 123.383 201.701 123.397 201.679C123.41 201.656 123.419 201.631 123.421 201.605C123.422 201.589 123.417 201.574 123.408 201.561C123.404 201.549 123.387 201.531 123.352 201.509C123.244 201.448 123.126 201.407 123.004 201.388H123C122.87 201.365 122.743 201.328 122.622 201.275C122.501 201.22 122.397 201.133 122.322 201.024C122.273 200.941 122.248 200.846 122.249 200.75C122.252 200.656 122.276 200.564 122.321 200.482C122.365 200.399 122.428 200.328 122.505 200.273C122.662 200.166 122.849 200.11 123.039 200.112C123.276 200.121 123.504 200.204 123.691 200.351C123.741 200.386 123.776 200.438 123.789 200.498C123.802 200.557 123.791 200.62 123.76 200.672C123.743 200.697 123.721 200.719 123.696 200.736C123.67 200.752 123.642 200.764 123.612 200.769C123.582 200.775 123.551 200.775 123.521 200.768C123.492 200.762 123.463 200.75 123.438 200.733C123.324 200.641 123.185 200.585 123.039 200.573C122.946 200.571 122.855 200.598 122.778 200.65C122.76 200.66 122.744 200.674 122.732 200.692C122.719 200.709 122.712 200.729 122.709 200.75C122.708 200.756 122.708 200.762 122.71 200.768C122.711 200.774 122.714 200.78 122.718 200.785C122.729 200.804 122.746 200.819 122.765 200.828C122.864 200.883 122.971 200.918 123.082 200.933L123.087 200.937H123.091C123.231 200.96 123.367 201.002 123.495 201.062C123.622 201.115 123.729 201.204 123.803 201.319C123.856 201.405 123.885 201.504 123.886 201.605C123.884 201.705 123.858 201.802 123.81 201.89C123.763 201.977 123.695 202.052 123.612 202.108C123.446 202.222 123.249 202.283 123.048 202.282C122.764 202.272 122.491 202.166 122.275 201.982C122.229 201.943 122.2 201.888 122.194 201.828C122.189 201.768 122.207 201.708 122.244 201.661Z" fill="#A8A8A8"/>
<path d="M124.336 201.661C124.355 201.637 124.378 201.617 124.405 201.602C124.432 201.587 124.461 201.577 124.492 201.574C124.522 201.571 124.553 201.574 124.582 201.583C124.611 201.592 124.638 201.607 124.662 201.627C124.796 201.741 124.963 201.808 125.139 201.818C125.243 201.817 125.345 201.789 125.435 201.735C125.456 201.721 125.475 201.702 125.488 201.679C125.502 201.656 125.51 201.631 125.513 201.605C125.514 201.589 125.509 201.574 125.5 201.561C125.496 201.549 125.478 201.531 125.444 201.509C125.336 201.448 125.218 201.407 125.096 201.388H125.092C124.962 201.365 124.835 201.328 124.714 201.275C124.593 201.22 124.489 201.133 124.414 201.024C124.365 200.941 124.34 200.846 124.34 200.75C124.343 200.656 124.368 200.564 124.413 200.482C124.457 200.399 124.52 200.328 124.596 200.273C124.754 200.166 124.941 200.11 125.131 200.112C125.368 200.121 125.596 200.204 125.782 200.351C125.833 200.386 125.868 200.438 125.881 200.498C125.894 200.558 125.883 200.62 125.851 200.672C125.835 200.697 125.813 200.719 125.787 200.736C125.762 200.752 125.734 200.764 125.704 200.77C125.674 200.775 125.643 200.775 125.613 200.768C125.584 200.762 125.555 200.75 125.53 200.733C125.416 200.641 125.277 200.585 125.131 200.573C125.038 200.571 124.947 200.598 124.87 200.65C124.851 200.66 124.835 200.674 124.823 200.692C124.811 200.709 124.803 200.729 124.801 200.75C124.8 200.756 124.8 200.762 124.802 200.768C124.803 200.774 124.806 200.78 124.81 200.785C124.821 200.804 124.837 200.819 124.857 200.828C124.955 200.883 125.063 200.918 125.174 200.933L125.178 200.937H125.183C125.323 200.96 125.458 201.003 125.587 201.062C125.713 201.115 125.821 201.204 125.895 201.319C125.948 201.405 125.977 201.504 125.978 201.605C125.976 201.705 125.95 201.802 125.902 201.89C125.854 201.977 125.787 202.052 125.704 202.108C125.538 202.222 125.341 202.283 125.139 202.282C124.855 202.272 124.583 202.166 124.367 201.982C124.321 201.943 124.292 201.888 124.286 201.828C124.281 201.768 124.298 201.708 124.336 201.661Z" fill="#A8A8A8"/>
<path d="M128.413 201.201V202.052C128.413 202.113 128.388 202.171 128.345 202.214C128.302 202.257 128.244 202.281 128.183 202.282C128.13 202.28 128.079 202.261 128.038 202.228C127.997 202.194 127.968 202.147 127.957 202.096C127.789 202.217 127.587 202.282 127.379 202.282C127.241 202.282 127.104 202.254 126.977 202.2C126.851 202.145 126.736 202.066 126.641 201.965C126.449 201.758 126.343 201.484 126.346 201.201C126.342 200.918 126.448 200.645 126.641 200.438C126.735 200.336 126.849 200.254 126.976 200.198C127.103 200.142 127.24 200.113 127.379 200.112C127.587 200.114 127.789 200.181 127.957 200.303C127.967 200.251 127.995 200.203 128.036 200.168C128.077 200.133 128.129 200.114 128.183 200.112C128.244 200.113 128.303 200.138 128.347 200.182C128.39 200.226 128.414 200.285 128.413 200.347V201.201ZM127.953 201.201C127.956 201.036 127.896 200.876 127.784 200.754C127.733 200.698 127.67 200.653 127.601 200.622C127.531 200.592 127.455 200.576 127.379 200.577C127.303 200.575 127.228 200.59 127.158 200.621C127.088 200.652 127.026 200.697 126.976 200.754C126.865 200.876 126.806 201.037 126.811 201.201C126.807 201.366 126.866 201.525 126.976 201.648C127.028 201.703 127.09 201.746 127.16 201.775C127.229 201.804 127.304 201.819 127.379 201.818C127.455 201.818 127.529 201.803 127.599 201.774C127.668 201.745 127.731 201.702 127.784 201.648C127.895 201.526 127.955 201.366 127.953 201.201Z" fill="#A8A8A8"/>
<path d="M131.356 201.21V202.017C131.355 202.293 131.245 202.557 131.05 202.752C130.855 202.947 130.59 203.057 130.314 203.058C130.156 203.058 129.999 203.021 129.858 202.95C129.83 202.936 129.806 202.917 129.785 202.894C129.765 202.871 129.75 202.844 129.74 202.815C129.73 202.786 129.727 202.756 129.729 202.725C129.731 202.694 129.74 202.665 129.754 202.637C129.781 202.582 129.829 202.539 129.888 202.519C129.946 202.499 130.011 202.502 130.067 202.529C130.143 202.569 130.228 202.59 130.314 202.59C130.448 202.589 130.577 202.543 130.681 202.459C130.784 202.374 130.856 202.257 130.883 202.126C130.683 202.262 130.44 202.321 130.2 202.292C129.96 202.263 129.738 202.149 129.576 201.969C129.378 201.764 129.269 201.49 129.272 201.206C129.272 200.919 129.381 200.644 129.576 200.434C129.671 200.333 129.785 200.253 129.912 200.198C130.039 200.143 130.176 200.114 130.314 200.112C130.523 200.111 130.726 200.174 130.896 200.295C130.908 200.243 130.937 200.196 130.979 200.163C131.021 200.13 131.073 200.112 131.126 200.112C131.156 200.112 131.186 200.118 131.214 200.13C131.242 200.141 131.268 200.158 131.289 200.179C131.311 200.201 131.327 200.226 131.339 200.254C131.35 200.282 131.356 200.312 131.356 200.342L131.356 201.21ZM130.892 201.205C130.892 201.043 130.833 200.886 130.727 200.764C130.676 200.704 130.612 200.657 130.541 200.625C130.47 200.593 130.392 200.576 130.314 200.577C130.238 200.577 130.163 200.594 130.093 200.626C130.024 200.658 129.963 200.705 129.914 200.764C129.802 200.883 129.739 201.041 129.741 201.205C129.737 201.372 129.799 201.533 129.914 201.653C129.964 201.709 130.026 201.754 130.095 201.785C130.164 201.816 130.239 201.831 130.314 201.831C130.392 201.832 130.468 201.816 130.54 201.786C130.611 201.755 130.674 201.71 130.727 201.653C130.836 201.529 130.894 201.37 130.892 201.205Z" fill="#A8A8A8"/>
<path d="M132.127 201.197C132.124 200.913 132.234 200.639 132.433 200.436C132.631 200.233 132.902 200.117 133.187 200.112C133.458 200.11 133.72 200.214 133.915 200.402C134.111 200.59 134.225 200.848 134.233 201.119V201.141C134.234 201.154 134.233 201.167 134.229 201.18C134.22 201.232 134.192 201.279 134.15 201.311C134.108 201.343 134.056 201.358 134.003 201.353H132.622C132.643 201.461 132.694 201.56 132.77 201.64C132.881 201.752 133.029 201.821 133.187 201.835C133.345 201.851 133.504 201.812 133.638 201.726C133.681 201.685 133.739 201.66 133.799 201.658C133.859 201.656 133.917 201.676 133.964 201.714C133.983 201.732 133.997 201.754 134.008 201.778C134.018 201.802 134.023 201.828 134.023 201.855C134.023 201.881 134.018 201.907 134.008 201.931C133.997 201.955 133.983 201.977 133.964 201.995C133.752 202.189 133.473 202.291 133.187 202.282C132.903 202.277 132.632 202.16 132.433 201.957C132.235 201.754 132.125 201.481 132.127 201.197ZM132.6 200.985H133.829C133.78 200.853 133.693 200.739 133.578 200.657C133.464 200.575 133.327 200.529 133.187 200.525C133.051 200.525 132.921 200.571 132.814 200.654C132.708 200.738 132.633 200.854 132.6 200.985Z" fill="#A8A8A8"/>
<path d="M204.488 54.3549H87.7169C86.1512 54.3693 84.6038 54.6916 83.1629 55.3034C81.722 55.9152 80.4158 56.8047 79.319 57.9209C78.2222 59.037 77.3563 60.3581 76.7706 61.8087C76.185 63.2592 75.8911 64.8108 75.9058 66.3749V306.504C75.8785 309.663 77.1071 312.702 79.3217 314.956C81.5362 317.21 84.5557 318.493 87.7169 318.524H204.488C207.65 318.494 210.671 317.211 212.888 314.957C215.105 312.704 216.337 309.664 216.312 306.504V66.3749C216.339 63.2147 215.108 60.1734 212.891 57.9194C210.673 55.6654 207.651 54.3833 204.488 54.3549ZM208.922 299.08C208.922 305.4 204.184 310.513 198.34 310.513H93.8779C88.0208 310.513 83.2825 305.4 83.2825 299.08V75.476C83.2825 62.6005 88.0208 61.9726 93.8779 61.9726H114.806C116.022 61.9726 117.017 63.3526 117.017 65.0638V65.8021C117.017 69.811 119.213 69.8248 121.907 69.8248H170.298C173.019 69.8248 175.202 69.811 175.202 65.8021V65.0638C175.202 63.3526 176.182 61.9727 177.419 61.9727H198.34C204.184 61.9727 208.922 63.6839 208.922 75.4761L208.922 299.08Z" fill="#1A2E35"/>
<path opacity="0.2" d="M187.687 204.912H104.52V240.599H187.687V204.912Z" fill="#0073F1"/>
<path d="M147.227 118.77C146.436 117.598 146.008 116.219 145.999 114.806C145.999 109.783 151.519 105.711 158.325 105.711C165.131 105.711 170.647 109.783 170.647 114.806C170.647 119.828 165.131 123.9 158.325 123.9C155.3 123.949 152.333 123.071 149.823 121.384L145.577 122.462L147.227 118.77Z" fill="#0073F1"/>
<path d="M150.756 104.977C151.743 103.516 152.275 101.797 152.288 100.035C152.288 93.7736 145.405 88.6968 136.92 88.6968C128.435 88.6968 121.559 93.7736 121.559 100.035C121.559 106.296 128.435 111.373 136.92 111.373C140.691 111.434 144.39 110.339 147.52 108.236L152.813 109.58L150.756 104.977Z" fill="white"/>
<path d="M150.756 104.977C151.669 103.584 152.177 101.966 152.224 100.301C152.243 98.6464 151.795 97.0197 150.931 95.6074C149.106 92.8364 146.351 90.8065 143.162 89.8824C140.014 88.888 136.671 88.6694 133.419 89.2454C130.161 89.746 127.135 91.2313 124.747 93.5017C123.586 94.6374 122.717 96.0373 122.215 97.5816C121.723 99.1256 121.701 100.781 122.152 102.337C122.628 103.891 123.476 105.306 124.624 106.459C125.774 107.622 127.115 108.58 128.589 109.29C130.066 110.009 131.636 110.518 133.255 110.803C134.872 111.111 136.52 111.224 138.164 111.138C141.476 111.006 144.688 109.967 147.448 108.135L147.497 108.102L147.55 108.116L152.828 109.523L152.759 109.605L150.756 104.977ZM150.756 104.977L152.867 109.556L152.918 109.667L152.798 109.638L147.489 108.355L147.591 108.337C144.812 110.248 141.557 111.353 138.188 111.527C134.817 111.771 131.441 111.149 128.379 109.72C126.851 108.991 125.459 108.006 124.265 106.807C123.054 105.599 122.157 104.114 121.651 102.482C121.163 100.828 121.18 99.0665 121.699 97.4225C122.233 95.7983 123.153 94.3276 124.38 93.1361C125.591 91.9528 126.994 90.9842 128.531 90.2717C130.054 89.5497 131.673 89.0468 133.338 88.778C134.995 88.4959 136.681 88.4119 138.359 88.5277C140.034 88.6587 141.688 88.9926 143.282 89.522C144.882 90.0453 146.389 90.8155 147.75 91.8045C149.123 92.7835 150.275 94.039 151.132 95.4902C151.988 96.9407 152.408 98.6067 152.341 100.289C152.274 101.971 151.724 103.599 150.756 104.977Z" fill="#DCDCDC"/>
<path d="M167.515 261.661H124.69V274.631H167.515V261.661Z" fill="#0073F1"/>
<path d="M136.039 269.454C136.115 269.362 136.224 269.305 136.343 269.294C136.461 269.282 136.579 269.318 136.671 269.393C137.137 269.788 137.717 270.022 138.326 270.06C138.712 270.067 139.09 269.955 139.409 269.739C139.517 269.673 139.608 269.582 139.672 269.474C139.737 269.365 139.775 269.242 139.782 269.116C139.784 269.018 139.757 268.922 139.704 268.839C139.638 268.734 139.549 268.645 139.444 268.58C139.076 268.373 138.674 268.235 138.257 268.172H138.24C137.854 268.107 137.479 267.994 137.122 267.835C136.794 267.692 136.514 267.458 136.316 267.16C136.184 266.947 136.115 266.701 136.117 266.45C136.125 266.2 136.193 265.955 136.313 265.736C136.433 265.516 136.604 265.328 136.81 265.187C137.249 264.881 137.774 264.721 138.309 264.728C138.994 264.763 139.652 265.004 140.197 265.42C140.294 265.486 140.362 265.588 140.384 265.703C140.407 265.818 140.384 265.937 140.319 266.035C140.288 266.085 140.247 266.127 140.199 266.161C140.151 266.195 140.096 266.218 140.039 266.23C139.981 266.242 139.922 266.243 139.865 266.231C139.807 266.22 139.752 266.197 139.704 266.165C139.306 265.843 138.819 265.649 138.309 265.611C137.963 265.605 137.623 265.708 137.338 265.905C137.244 265.963 137.164 266.043 137.107 266.137C137.05 266.232 137.016 266.339 137.009 266.45C137.004 266.535 137.025 266.62 137.07 266.692C137.132 266.782 137.212 266.859 137.304 266.918C137.637 267.114 138.005 267.243 138.387 267.299H138.404C138.816 267.37 139.218 267.492 139.6 267.662C139.951 267.815 140.251 268.064 140.466 268.38C140.602 268.602 140.674 268.856 140.674 269.116C140.666 269.383 140.594 269.644 140.464 269.877C140.335 270.111 140.151 270.31 139.929 270.458C139.46 270.787 138.899 270.96 138.326 270.951C137.512 270.912 136.734 270.608 136.108 270.086C136.018 270.009 135.96 269.901 135.947 269.784C135.934 269.666 135.967 269.548 136.039 269.454Z" fill="white"/>
<path d="M141.613 268.796C141.608 268.229 141.827 267.683 142.223 267.278C142.619 266.872 143.16 266.64 143.727 266.632C144.269 266.628 144.791 266.835 145.181 267.211C145.571 267.586 145.799 268.099 145.815 268.64V268.683C145.817 268.71 145.814 268.736 145.806 268.761C145.789 268.865 145.733 268.959 145.649 269.023C145.566 269.087 145.461 269.117 145.356 269.108H142.601C142.642 269.322 142.744 269.52 142.896 269.678C143.118 269.902 143.413 270.04 143.727 270.068C144.043 270.099 144.361 270.023 144.628 269.852C144.715 269.769 144.828 269.721 144.948 269.716C145.068 269.711 145.185 269.75 145.278 269.826C145.315 269.862 145.345 269.906 145.365 269.954C145.385 270.003 145.396 270.054 145.396 270.107C145.396 270.159 145.385 270.211 145.365 270.259C145.345 270.307 145.315 270.351 145.278 270.388C144.856 270.774 144.299 270.979 143.727 270.96C143.161 270.95 142.621 270.717 142.225 270.312C141.829 269.907 141.609 269.362 141.613 268.796ZM142.558 268.372H145.01C144.911 268.109 144.736 267.882 144.508 267.718C144.28 267.555 144.008 267.463 143.727 267.454C143.458 267.455 143.197 267.546 142.985 267.712C142.773 267.879 142.622 268.111 142.558 268.372Z" fill="white"/>
<path d="M150.808 268.432V270.501C150.808 270.56 150.797 270.62 150.775 270.675C150.753 270.73 150.72 270.781 150.678 270.823C150.636 270.866 150.586 270.9 150.531 270.923C150.476 270.947 150.417 270.959 150.358 270.96C150.237 270.957 150.121 270.908 150.036 270.823C149.95 270.737 149.901 270.622 149.899 270.501V268.432C149.895 268.197 149.798 267.973 149.629 267.809C149.46 267.645 149.233 267.555 148.998 267.558C148.883 267.558 148.77 267.58 148.664 267.624C148.558 267.668 148.462 267.733 148.382 267.814C148.301 267.896 148.237 267.992 148.194 268.098C148.152 268.204 148.13 268.318 148.131 268.432V270.501C148.133 270.531 148.127 270.561 148.114 270.587C148.091 270.692 148.033 270.786 147.949 270.854C147.866 270.922 147.762 270.959 147.655 270.96C147.594 270.96 147.534 270.948 147.478 270.925C147.423 270.902 147.372 270.869 147.329 270.826C147.286 270.783 147.253 270.733 147.23 270.677C147.207 270.621 147.195 270.561 147.195 270.501V267.091C147.195 267.03 147.207 266.971 147.23 266.915C147.253 266.859 147.286 266.808 147.329 266.766C147.372 266.723 147.423 266.689 147.478 266.666C147.534 266.643 147.594 266.632 147.655 266.632C147.744 266.632 147.831 266.657 147.906 266.705C147.981 266.752 148.041 266.82 148.079 266.9C148.354 266.726 148.672 266.633 148.998 266.632C149.476 266.633 149.935 266.823 150.274 267.16C150.613 267.497 150.805 267.954 150.808 268.432Z" fill="white"/>
<path d="M156.261 270.492C156.26 270.608 156.217 270.72 156.139 270.806C156.062 270.891 155.955 270.945 155.84 270.957C155.724 270.969 155.609 270.938 155.515 270.87C155.422 270.801 155.357 270.701 155.333 270.587C154.986 270.826 154.576 270.956 154.155 270.96C153.591 270.944 153.056 270.709 152.663 270.304C152.27 269.9 152.05 269.359 152.05 268.796C152.05 268.232 152.27 267.691 152.663 267.287C153.056 266.883 153.591 266.648 154.155 266.632C154.57 266.633 154.975 266.76 155.316 266.996V265.368C155.317 265.244 155.368 265.125 155.456 265.038C155.544 264.95 155.664 264.901 155.788 264.901C155.913 264.901 156.032 264.95 156.121 265.038C156.209 265.125 156.259 265.244 156.261 265.368L156.261 270.492ZM154.155 267.576C154.002 267.576 153.851 267.608 153.711 267.669C153.571 267.73 153.445 267.819 153.341 267.931C153.118 268.164 152.994 268.474 152.994 268.796C152.994 269.118 153.118 269.428 153.341 269.662C153.445 269.773 153.571 269.862 153.711 269.923C153.851 269.984 154.002 270.015 154.155 270.016C154.308 270.016 154.459 269.985 154.599 269.924C154.74 269.863 154.866 269.774 154.97 269.662C155.192 269.428 155.316 269.118 155.316 268.796C155.316 268.474 155.192 268.164 154.97 267.931C154.866 267.818 154.74 267.729 154.6 267.668C154.459 267.607 154.308 267.575 154.155 267.576Z" fill="white"/>
<path d="M223.669 186.487L211.378 189.603C210.428 189.016 209.299 188.785 208.194 188.953C206.456 189.276 202.097 192.836 202.268 193.354C202.438 193.871 207.692 196.293 208.446 196.096C211.154 195.389 213.943 192.242 213.943 192.242L224.932 189.984L223.669 186.487Z" fill="#FD897B"/>
<path d="M266.432 145.918C263.933 148.574 257.319 148.348 257.319 148.348C256.746 148.409 256.168 148.279 255.675 147.979C255.183 147.679 254.803 147.225 254.595 146.687C256.988 146.095 257.354 144.378 257.725 142.893C257.919 141.976 257.928 141.028 257.751 140.107C257.67 139.592 257.561 139.082 257.425 138.578L265.102 131.901C264.349 135.968 263.568 143.24 266.432 145.918Z" fill="#FD897B"/>
<path opacity="0.2" d="M263.522 135.885C263.564 137.555 263 139.184 261.935 140.472C260.87 141.76 259.374 142.62 257.725 142.893C257.919 141.976 257.928 141.028 257.751 140.107L263.522 135.885Z" fill="black"/>
<path d="M264.159 136.972C263.411 138.291 262.25 139.329 260.855 139.925C259.459 140.522 257.907 140.645 256.435 140.275C254.522 139.832 252.849 138.678 251.758 137.047C251.605 136.821 251.463 136.587 251.335 136.346C248.977 131.854 247.701 123.772 252.38 120.335C253.41 119.571 254.619 119.082 255.891 118.916C257.163 118.75 258.457 118.912 259.648 119.387C260.84 119.862 261.891 120.633 262.7 121.628C263.509 122.623 264.05 123.808 264.271 125.07C265.306 130.458 266.168 133.577 264.159 136.972Z" fill="#FD897B"/>
<path d="M256.276 128.946C256.415 129.367 256.248 129.785 255.96 129.858C255.672 129.93 255.359 129.633 255.247 129.202C255.135 128.772 255.281 128.36 255.563 128.29C255.844 128.22 256.161 128.509 256.276 128.946Z" fill="#1A2E35"/>
<path d="M251.517 129.948C251.656 130.369 251.482 130.79 251.201 130.86C250.92 130.93 250.6 130.635 250.488 130.204C250.376 129.774 250.522 129.362 250.804 129.292C251.085 129.222 251.412 129.537 251.517 129.948Z" fill="#1A2E35"/>
<path d="M253.227 130.076C253.094 131.494 252.76 132.885 252.235 134.208C253.061 134.35 253.909 134.161 254.595 133.68L253.227 130.076Z" fill="#FD5652"/>
<path d="M257.688 126.632C257.643 126.65 257.594 126.656 257.547 126.65C257.499 126.643 257.454 126.624 257.416 126.595C257.164 126.383 256.866 126.233 256.545 126.157C256.225 126.081 255.891 126.08 255.571 126.156C255.538 126.166 255.504 126.171 255.47 126.168C255.436 126.166 255.402 126.157 255.372 126.141C255.341 126.126 255.314 126.105 255.291 126.079C255.269 126.053 255.252 126.023 255.241 125.99C255.23 125.958 255.226 125.923 255.228 125.889C255.231 125.855 255.24 125.822 255.255 125.791C255.271 125.761 255.292 125.733 255.318 125.711C255.344 125.689 255.374 125.671 255.407 125.661C255.809 125.558 256.232 125.552 256.637 125.643C257.042 125.734 257.421 125.919 257.741 126.184C257.796 126.226 257.832 126.287 257.842 126.356C257.852 126.424 257.834 126.494 257.792 126.549L257.788 126.554C257.759 126.585 257.725 126.611 257.688 126.632Z" fill="#1A2E35"/>
<path d="M255.603 135.813C256.245 135.744 256.862 135.524 257.403 135.172C257.944 134.82 258.394 134.345 258.718 133.786C258.733 133.753 258.735 133.715 258.723 133.68C258.711 133.646 258.686 133.617 258.653 133.601C258.638 133.592 258.621 133.587 258.603 133.585C258.586 133.584 258.568 133.585 258.551 133.591C258.534 133.596 258.519 133.604 258.505 133.615C258.492 133.626 258.48 133.64 258.472 133.655L258.467 133.665C258.162 134.18 257.741 134.617 257.238 134.941C256.734 135.266 256.162 135.468 255.567 135.533C255.531 135.536 255.498 135.553 255.475 135.58C255.452 135.606 255.44 135.641 255.443 135.677L255.445 135.692C255.447 135.727 255.464 135.76 255.491 135.783C255.518 135.806 255.553 135.818 255.588 135.815L255.603 135.813Z" fill="#1A2E35"/>
<path d="M249.118 128.686C249.075 128.717 249.024 128.734 248.971 128.734C248.937 128.728 248.905 128.715 248.876 128.696C248.848 128.677 248.823 128.653 248.804 128.625C248.785 128.596 248.771 128.565 248.764 128.531C248.757 128.498 248.757 128.463 248.763 128.429L248.765 128.424C248.84 128.014 249.013 127.628 249.268 127.298C249.524 126.969 249.856 126.706 250.235 126.531C250.299 126.506 250.371 126.508 250.434 126.535C250.498 126.563 250.548 126.615 250.573 126.679C250.596 126.744 250.594 126.815 250.567 126.878C250.539 126.941 250.488 126.991 250.425 127.018C250.129 127.164 249.872 127.378 249.674 127.641C249.476 127.905 249.342 128.211 249.284 128.535C249.269 128.571 249.246 128.602 249.218 128.629C249.189 128.655 249.155 128.674 249.118 128.686Z" fill="#1A2E35"/>
<path d="M267.702 128.842C267.416 130.194 266.606 131.378 265.447 132.135C263.907 133.125 262.598 131.877 262.57 130.142C262.561 128.599 263.329 126.179 265.101 125.904C265.487 125.844 265.882 125.882 266.25 126.015C266.618 126.148 266.946 126.37 267.205 126.663C267.464 126.955 267.645 127.308 267.732 127.689C267.819 128.07 267.808 128.466 267.702 128.842Z" fill="#FD897B"/>
<path d="M243.42 150.102C240.775 152.609 238.825 155.758 237.762 159.242C236.435 163.461 235.193 173.424 234.587 178.825C234.469 179.875 234.013 180.858 233.288 181.628C232.562 182.397 231.607 182.91 230.565 183.09L215.71 185.673L216.897 193.216L235.713 191.411C237.728 191.219 239.628 190.383 241.129 189.026C242.631 187.669 243.654 185.865 244.047 183.881C245.196 178.069 246.733 169.643 247.431 162.97C248.618 151.616 247.382 148.927 243.42 150.102Z" fill="#DECBC4"/>
<path opacity="0.1" d="M243.42 150.102C240.775 152.609 238.825 155.758 237.762 159.242C236.435 163.461 235.193 173.424 234.587 178.825C234.469 179.875 234.013 180.858 233.288 181.628C232.562 182.397 231.607 182.91 230.565 183.09L215.71 185.673L216.897 193.216L235.713 191.411C237.728 191.219 239.628 190.383 241.129 189.026C242.631 187.669 243.654 185.865 244.047 183.881C245.196 178.069 246.733 169.643 247.431 162.97C248.618 151.616 247.382 148.927 243.42 150.102Z" fill="black"/>
<path d="M233.125 317.459L227.226 316.251L232.184 303.07L238.084 304.278L233.125 317.459Z" fill="#FD897B"/>
<path d="M227.459 314.469L233.793 316.754C233.896 316.792 233.984 316.864 234.041 316.958C234.098 317.052 234.122 317.163 234.108 317.272L233.459 322.281C233.442 322.403 233.398 322.519 233.33 322.621C233.262 322.723 233.172 322.808 233.067 322.871C232.962 322.934 232.843 322.972 232.721 322.983C232.599 322.994 232.476 322.977 232.361 322.934C230.324 322.161 228.877 321.497 226.303 320.569C224.718 319.997 219.876 318.437 217.688 317.648C215.499 316.858 215.995 314.595 216.962 314.719C221.297 315.295 224.76 315.173 226.463 314.485C226.781 314.352 227.137 314.346 227.459 314.469Z" fill="#263237"/>
<path d="M225.404 314.761C225.039 314.662 224.72 314.441 224.498 314.135C224.43 314.021 224.393 313.892 224.39 313.76C224.387 313.627 224.417 313.496 224.479 313.379C224.503 313.307 224.548 313.243 224.608 313.195C224.667 313.148 224.74 313.119 224.816 313.111C225.501 313.021 226.812 314.663 226.954 314.849C226.972 314.867 226.982 314.891 226.985 314.917C226.988 314.942 226.983 314.967 226.971 314.99C226.959 315.013 226.94 315.033 226.916 315.046C226.893 315.059 226.866 315.064 226.84 315.062C226.351 315.015 225.87 314.914 225.404 314.761ZM225.018 313.401C224.965 313.377 224.905 313.369 224.847 313.377C224.814 313.365 224.757 313.397 224.715 313.494C224.675 313.572 224.654 313.659 224.655 313.747C224.656 313.835 224.678 313.921 224.72 313.998C225.209 314.474 225.861 314.747 226.544 314.761C226.127 314.214 225.609 313.753 225.018 313.401Z" fill="#2D3133"/>
<path d="M226.803 315.057L226.744 315.035C226.312 314.55 225.685 313.028 225.99 312.516C226.041 312.431 226.121 312.367 226.215 312.334C226.309 312.301 226.412 312.301 226.505 312.335C226.603 312.357 226.696 312.399 226.776 312.459C226.856 312.519 226.923 312.595 226.972 312.683C227.202 313.442 227.199 314.253 226.963 315.009C226.955 315.032 226.942 315.052 226.924 315.068C226.907 315.084 226.886 315.095 226.863 315.101C226.839 315.093 226.818 315.077 226.803 315.057ZM226.52 312.565L226.46 312.544C226.301 312.486 226.254 312.574 226.235 312.605C226.047 312.919 226.396 314.026 226.787 314.624C226.967 314.018 226.957 313.372 226.76 312.772C226.707 312.676 226.622 312.603 226.52 312.565Z" fill="#2D3133"/>
<path d="M269.97 317.719L264.258 318.398L263.023 306.087L268.736 305.409L269.97 317.719Z" fill="#FD897B"/>
<path d="M263.629 316.568L270.363 316.481C270.473 316.48 270.58 316.517 270.667 316.585C270.754 316.653 270.815 316.748 270.84 316.855L271.997 321.772C272.024 321.891 272.023 322.015 271.996 322.135C271.968 322.254 271.914 322.366 271.837 322.462C271.761 322.557 271.664 322.635 271.553 322.688C271.442 322.741 271.321 322.768 271.199 322.768C269.019 322.761 267.431 322.648 264.695 322.684C263.01 322.705 257.929 322.947 255.602 322.977C253.275 323.007 252.942 320.715 253.891 320.491C258.152 319.506 261.351 318.176 262.703 316.932C262.953 316.696 263.285 316.566 263.629 316.568Z" fill="#263237"/>
<path d="M261.808 317.564C261.432 317.599 261.055 317.504 260.739 317.296C260.636 317.213 260.556 317.105 260.506 316.982C260.456 316.86 260.439 316.726 260.455 316.595C260.452 316.519 260.472 316.443 260.511 316.378C260.55 316.312 260.608 316.259 260.676 316.226C261.286 315.901 263.091 316.977 263.29 317.101C263.313 317.112 263.331 317.13 263.343 317.153C263.355 317.176 263.359 317.202 263.355 317.227C263.352 317.253 263.341 317.278 263.324 317.299C263.306 317.319 263.283 317.334 263.258 317.341C262.784 317.468 262.298 317.543 261.808 317.564ZM260.968 316.426C260.909 316.422 260.851 316.435 260.799 316.464C260.764 316.464 260.722 316.514 260.717 316.62C260.707 316.707 260.718 316.795 260.75 316.877C260.782 316.959 260.833 317.032 260.899 317.089C261.524 317.363 262.231 317.389 262.875 317.163C262.292 316.798 261.645 316.548 260.968 316.426Z" fill="#2D3133"/>
<path d="M263.223 317.348L263.159 317.349C262.584 317.047 261.461 315.842 261.566 315.256C261.585 315.158 261.637 315.07 261.713 315.006C261.789 314.942 261.885 314.906 261.985 314.905C262.084 314.891 262.186 314.898 262.282 314.926C262.379 314.954 262.468 315.002 262.544 315.067C263.193 315.58 263.347 317.171 263.355 317.248C263.356 317.272 263.351 317.295 263.34 317.316C263.329 317.337 263.313 317.355 263.293 317.368C263.268 317.369 263.244 317.362 263.223 317.348ZM262.079 315.116L262.016 315.116C261.847 315.119 261.834 315.217 261.827 315.253C261.761 315.613 262.479 316.526 263.055 316.949C263.01 316.318 262.773 315.717 262.377 315.224C262.294 315.153 262.189 315.115 262.079 315.116Z" fill="#2D3133"/>
<path d="M243.408 205.244C243.408 205.244 229.048 275.46 228.544 302.389L238.117 306.668C238.117 306.668 245.914 276.211 248.446 259.101C248.446 259.101 255.163 245.511 256.969 234.438C256.969 234.438 256.592 283.022 261.631 308.693L270.616 308.001C270.616 308.001 279.68 216.821 278.045 202.224L243.408 205.244Z" fill="#2D3133"/>
<path opacity="0.2" d="M255.406 216.724C255.406 216.724 254.342 233.414 255.86 239.542C256.313 237.82 256.697 236.101 256.968 234.438L255.406 216.724Z" fill="black"/>
<path d="M243.42 150.102C243.42 150.102 244.944 147.094 258.326 146.317C271.708 145.54 277.703 147.519 277.703 147.519C277.703 147.519 276.49 175.827 278.045 202.224C278.045 202.224 255.658 210.187 243.407 205.244C243.407 205.244 234.223 171.055 243.42 150.102Z" fill="#DECBC4"/>
<path opacity="0.2" d="M263.123 146.145C261.643 146.164 260.046 146.217 258.325 146.317C257.293 146.377 256.339 146.452 255.443 146.536C255.454 146.556 256.584 148.698 258.325 148.699C259.274 148.701 260.208 148.468 261.045 148.023C261.881 147.577 262.595 146.932 263.123 146.145Z" fill="black"/>
<path opacity="0.3" d="M277.343 182.925L256.969 193.216C256.969 193.216 269.811 193.611 277.493 189.451C277.429 187.249 277.379 185.068 277.343 182.925Z" fill="black"/>
<path opacity="0.1" d="M258.066 154.245L265.309 186.426L263.698 190.592L258.066 154.245Z" fill="black"/>
<path d="M263.75 185.673L251.431 188.674C250.486 188.077 249.359 187.836 248.252 187.993C246.512 188.3 242.119 191.819 242.285 192.338C242.45 192.857 246.531 196.047 247.273 195.811C248.014 195.576 252.768 192.227 252.768 192.227L264.505 191.247L263.75 185.673Z" fill="#FD897B"/>
<path d="M276.909 147.48C276.909 147.48 271.729 148.856 272.468 158.447C272.789 162.619 272.952 167.073 273.035 170.774C273.09 173.255 272.436 175.7 271.15 177.823C269.864 179.946 268 181.659 265.775 182.762L255.662 186.893L256.968 193.216C256.968 193.216 271.658 191.876 276.828 187.744C281.998 183.612 283.798 174.805 282.956 167.502C281.787 157.359 282.175 147.067 276.909 147.48Z" fill="#DECBC4"/>
<path opacity="0.1" d="M276.909 147.48C276.909 147.48 271.729 148.856 272.468 158.447C272.789 162.619 272.952 167.073 273.035 170.774C273.09 173.255 272.436 175.7 271.15 177.823C269.864 179.946 268 181.659 265.775 182.762L255.662 186.893L256.968 193.216C256.968 193.216 271.658 191.876 276.828 187.744C281.998 183.612 283.798 174.805 282.956 167.502C281.787 157.359 282.175 147.067 276.909 147.48Z" fill="black"/>
<path d="M256.62 185.272L257.481 194.09L255.102 194.318L253.844 186.065L256.62 185.272Z" fill="#F5E2D9"/>
<path d="M218.376 184.078L219.348 193.378L216.966 193.589L215.602 184.879L218.376 184.078Z" fill="#F5E2D9"/>
<path opacity="0.4" d="M269.052 161.041L260.856 161.773L260.973 163.08L269.169 162.347L269.052 161.041Z" fill="#F5E2D9"/>
<path d="M258.325 146.317L260.979 149.849L266.572 146.165V145.81C266.582 145.512 266.521 145.215 266.393 144.946C266.265 144.676 266.075 144.441 265.838 144.26C265.57 144.096 265.267 143.999 264.954 143.978C264.64 143.958 264.327 144.014 264.041 144.143L258.325 146.317Z" fill="#F5E2D9"/>
<path d="M254.595 146.597L255.254 145.513C256.074 144.545 256.73 145.04 256.73 145.04L258.326 146.317L256 149.849L254.595 146.597Z" fill="#F5E2D9"/>
<path d="M267.567 128.696C267.939 126.289 266.266 125.959 265.164 126.25C264.015 126.554 262.873 128.28 262.873 128.28C261.804 126.547 261.195 122.162 261.195 122.162C259.833 122.913 258.315 123.339 256.76 123.405C255.206 123.471 253.657 123.176 252.236 122.543C251.684 124.022 250.659 125.277 249.319 126.114C249.319 126.114 247.336 125.206 248.44 120.637C249.693 115.451 257.504 110.426 265.374 115.599C273.243 120.773 268.474 130.371 268.474 130.371C267.58 131.978 266.445 133.438 265.108 134.7C265.238 133.772 265.236 132.829 265.102 131.901C265.743 131.608 266.303 131.162 266.732 130.604C267.162 130.045 267.448 129.39 267.567 128.696Z" fill="#263237"/>
<path d="M251.491 121.1C251.918 121.65 252.416 122.141 252.972 122.561C253.541 123.001 254.166 123.364 254.83 123.642C255.501 123.932 256.21 124.123 256.936 124.211C257.674 124.303 258.421 124.304 259.16 124.213C258.428 124.404 257.674 124.503 256.917 124.509C256.146 124.518 255.377 124.416 254.635 124.206C253.88 124.002 253.154 123.7 252.477 123.308C251.776 122.912 251.132 122.423 250.563 121.853L251.491 121.1Z" fill="#263237"/>
</g>
<defs>
<linearGradient id="paint0_linear_686_599" x1="37.3411" y1="236.133" x2="22.9512" y2="236.133" gradientUnits="userSpaceOnUse">
<stop offset="0.00521" stop-color="#1A2257"/>
<stop offset="1" stop-color="#5E60F0"/>
</linearGradient>
<linearGradient id="paint1_linear_686_599" x1="26.1604" y1="248" x2="1.55928e-05" y2="248" gradientUnits="userSpaceOnUse">
<stop offset="0.00521" stop-color="#1A2257"/>
<stop offset="1" stop-color="#5E60F0"/>
</linearGradient>
<linearGradient id="paint2_linear_686_599" x1="23.9241" y1="251.8" x2="4.28897" y2="251.8" gradientUnits="userSpaceOnUse">
<stop offset="0.00521" stop-color="#1A2257"/>
<stop offset="1" stop-color="#5E60F0"/>
</linearGradient>
<linearGradient id="paint3_linear_686_599" x1="47.6584" y1="231.874" x2="18.1728" y2="231.874" gradientUnits="userSpaceOnUse">
<stop offset="0.00521" stop-color="#1A2257"/>
<stop offset="1" stop-color="#5E60F0"/>
</linearGradient>
<linearGradient id="paint4_linear_686_599" x1="30.1031" y1="264.027" x2="12.9669" y2="212.566" gradientUnits="userSpaceOnUse">
<stop offset="0.00521" stop-color="#1A2257"/>
<stop offset="1" stop-color="#5E60F0"/>
</linearGradient>
<linearGradient id="paint5_linear_686_599" x1="16.82" y1="297.628" x2="25.3873" y2="260.659" gradientUnits="userSpaceOnUse">
<stop stop-color="#C7C2BF"/>
<stop offset="1" stop-color="#FCF4DC"/>
</linearGradient>
<linearGradient id="paint6_linear_686_599" x1="15.1611" y1="268.782" x2="36.2623" y2="268.782" gradientUnits="userSpaceOnUse">
<stop stop-color="#C7C2BF"/>
<stop offset="1" stop-color="#FCF4DC"/>
</linearGradient>
<clipPath id="clip0_686_599">
<rect width="317" height="332" fill="white"/>
</clipPath>
</defs>
</svg>
