<svg width="44" height="42" viewBox="0 0 44 42" fill="none" xmlns="http://www.w3.org/2000/svg">
<path d="M39.1875 6.9375H4.8125C3.5693 6.9375 2.37701 7.43136 1.49794 8.31044C0.61886 9.18951 0.125 10.3818 0.125 11.625V36.625C0.125 37.8682 0.61886 39.0605 1.49794 39.9396C2.37701 40.8186 3.5693 41.3125 4.8125 41.3125H39.1875C40.4307 41.3125 41.623 40.8186 42.5021 39.9396C43.3811 39.0605 43.875 37.8682 43.875 36.625V11.625C43.875 10.3818 43.3811 9.18951 42.5021 8.31044C41.623 7.43136 40.4307 6.9375 39.1875 6.9375ZM22 31.9375C22 32.3519 21.8354 32.7493 21.5424 33.0424C21.2493 33.3354 20.8519 33.5 20.4375 33.5H7.9375C7.5231 33.5 7.12567 33.3354 6.83265 33.0424C6.53962 32.7493 6.375 32.3519 6.375 31.9375V28.4688C6.3785 27.1373 6.74008 25.8314 7.42185 24.6878C8.10362 23.5442 9.08046 22.605 10.25 21.9688C9.78152 21.2625 9.51328 20.4424 9.47383 19.5958C9.43438 18.7492 9.62519 17.9078 10.026 17.161C10.4267 16.4142 11.0225 15.7901 11.7498 15.355C12.4771 14.9199 13.3087 14.6901 14.1562 14.6901C15.0038 14.6901 15.8354 14.9199 16.5627 15.355C17.29 15.7901 17.8858 16.4142 18.2865 17.161C18.6873 17.9078 18.8781 18.7492 18.8387 19.5958C18.7992 20.4424 18.531 21.2625 18.0625 21.9688C19.2437 22.5968 20.2332 23.5324 20.9263 24.6766C21.6194 25.8208 21.9904 27.131 22 28.4688V31.9375ZM36.0625 33.5H26.6875C26.2731 33.5 25.8757 33.3354 25.5826 33.0424C25.2896 32.7493 25.125 32.3519 25.125 31.9375C25.125 31.5231 25.2896 31.1257 25.5826 30.8326C25.8757 30.5396 26.2731 30.375 26.6875 30.375H36.0625C36.4769 30.375 36.8743 30.5396 37.1674 30.8326C37.4604 31.1257 37.625 31.5231 37.625 31.9375C37.625 32.3519 37.4604 32.7493 37.1674 33.0424C36.8743 33.3354 36.4769 33.5 36.0625 33.5ZM36.0625 27.25H26.6875C26.2731 27.25 25.8757 27.0854 25.5826 26.7924C25.2896 26.4993 25.125 26.1019 25.125 25.6875C25.125 25.2731 25.2896 24.8757 25.5826 24.5826C25.8757 24.2896 26.2731 24.125 26.6875 24.125H36.0625C36.4769 24.125 36.8743 24.2896 37.1674 24.5826C37.4604 24.8757 37.625 25.2731 37.625 25.6875C37.625 26.1019 37.4604 26.4993 37.1674 26.7924C36.8743 27.0854 36.4769 27.25 36.0625 27.25ZM36.0625 21H23.5625C23.1481 21 22.7507 20.8354 22.4576 20.5424C22.1646 20.2493 22 19.8519 22 19.4375C22 19.0231 22.1646 18.6257 22.4576 18.3326C22.7507 18.0396 23.1481 17.875 23.5625 17.875H36.0625C36.4769 17.875 36.8743 18.0396 37.1674 18.3326C37.4604 18.6257 37.625 19.0231 37.625 19.4375C37.625 19.8519 37.4604 20.2493 37.1674 20.5424C36.8743 20.8354 36.4769 21 36.0625 21ZM12.625 19.4375C12.625 19.1285 12.7166 18.8264 12.8883 18.5694C13.06 18.3125 13.304 18.1122 13.5896 17.9939C13.8751 17.8757 14.1892 17.8447 14.4923 17.905C14.7954 17.9653 15.0738 18.1141 15.2924 18.3326C15.5109 18.5512 15.6597 18.8296 15.72 19.1327C15.7803 19.4358 15.7493 19.7499 15.6311 20.0354C15.5128 20.321 15.3125 20.565 15.0556 20.7367C14.7986 20.9084 14.4965 21 14.1875 21C13.7731 21 13.3757 20.8354 13.0826 20.5424C12.7896 20.2493 12.625 19.8519 12.625 19.4375ZM18.875 28.4688V30.375H9.5V28.4688C9.50412 27.318 9.96308 26.2155 10.7768 25.4018C11.5905 24.5881 12.693 24.1291 13.8438 24.125H14.5312C15.682 24.1291 16.7845 24.5881 17.5982 25.4018C18.4119 26.2155 18.8709 27.318 18.875 28.4688ZM29.8125 3.8125H14.1875C13.7731 3.8125 13.3757 3.64788 13.0826 3.35485C12.7896 3.06183 12.625 2.6644 12.625 2.25C12.625 1.8356 12.7896 1.43817 13.0826 1.14515C13.3757 0.85212 13.7731 0.6875 14.1875 0.6875H29.8125C30.2269 0.6875 30.6243 0.85212 30.9174 1.14515C31.2104 1.43817 31.375 1.8356 31.375 2.25C31.375 2.6644 31.2104 3.06183 30.9174 3.35485C30.6243 3.64788 30.2269 3.8125 29.8125 3.8125Z" fill="#2B72EE"/>
</svg>
