<svg width="55" height="49" viewBox="0 0 55 49" fill="none" xmlns="http://www.w3.org/2000/svg">
<g clipPath="url(#clip0_17_75)">
<path fillRule="evenodd" clipRule="evenodd" d="M12.5503 31.667L12.5011 34.5671H17.7111C18.8166 34.5671 19.7163 35.4708 19.7163 36.5814V38.5957H19.6939V45.7132C19.6939 46.8238 18.7942 47.7276 17.6887 47.7276H15.6835V39.3196C15.6835 38.4878 15.8401 38.5912 15.0389 38.5912H9.88717V38.5777H7.318C5.66191 38.5777 4.30571 37.2109 4.30571 35.5518V25.6286C4.30571 23.9335 5.68429 22.5486 7.37171 22.5486H8.88905C11.2971 22.5486 11.5343 23.7042 12.143 24.9137L14.7033 25.9253C16.5563 26.7661 16.0818 26.9325 17.344 25.3633L18.9822 23.3265C19.7834 22.0406 23.4581 23.3849 22.0975 25.5431L19.2194 28.8029C18.2303 30.1608 16.9188 30.3496 15.3254 29.6842L12.5548 28.704L12.5503 31.667ZM35.8072 9.35217H34.2093V9.19031C34.2093 8.91604 34.2406 8.69572 34.3033 8.52487C34.3659 8.35401 34.4555 8.19664 34.5763 8.05726C34.6972 7.91787 34.9702 7.66609 35.3954 7.31538C35.6192 7.12654 35.7356 6.96018 35.7356 6.8073C35.7356 6.64994 35.6908 6.53303 35.5968 6.4476C35.5028 6.36218 35.3685 6.31721 35.185 6.31721C34.9836 6.31721 34.8225 6.38466 34.6882 6.51505C34.5584 6.64544 34.4734 6.87924 34.4375 7.20747L32.8128 7.00514C32.8665 6.40714 33.0858 5.92155 33.4663 5.55735C33.8467 5.19315 34.4286 5.00881 35.2074 5.00881C35.8161 5.00881 36.3085 5.1392 36.6845 5.39099C37.1947 5.7372 37.4498 6.19582 37.4498 6.77583C37.4498 7.01413 37.3827 7.24344 37.2529 7.46825C37.1231 7.68857 36.8545 7.96284 36.4472 8.28207C36.1653 8.50688 35.9862 8.68673 35.9146 8.82611C35.843 8.9565 35.8072 9.13186 35.8072 9.35217ZM33.4484 3.48009H35.9862H39.2223C39.5267 3.48009 39.8042 3.53404 40.0548 3.63746C40.3055 3.74087 40.5382 3.89824 40.7486 4.11406C40.959 4.32538 41.1201 4.55919 41.223 4.81097C41.326 5.06276 41.3797 5.34153 41.3797 5.64727V10.1975C41.3797 10.5032 41.326 10.782 41.223 11.0338C41.1201 11.2856 40.9634 11.5194 40.7486 11.7307C40.5337 11.942 40.301 12.1039 40.0503 12.2073C39.7997 12.3107 39.5222 12.3647 39.2223 12.3647H36.0936C35.8564 12.3647 35.6684 12.558 35.6684 12.7918C35.6684 12.8413 35.6774 12.8907 35.6953 12.9357C35.7669 13.2189 35.8519 13.4977 35.9459 13.7675C36.0444 14.0507 36.1518 14.325 36.2682 14.5858C36.3264 14.7207 36.3935 14.8511 36.4696 14.9815C36.0623 14.8016 35.6774 14.5903 35.3238 14.3565C34.9478 14.1092 34.6032 13.8349 34.2809 13.5337C33.9586 13.2279 33.6632 12.8952 33.3947 12.5355C33.3096 12.4231 33.1843 12.3647 33.0545 12.3647H31.3447C31.0448 12.3647 30.7673 12.3107 30.5167 12.2073C30.266 12.1039 30.0333 11.942 29.8184 11.7307C29.608 11.5194 29.4469 11.2856 29.344 11.0338C29.241 10.782 29.1873 10.5032 29.1873 10.1975V5.64727C29.1873 5.34153 29.241 5.06276 29.344 4.81097C29.4469 4.55919 29.6036 4.32538 29.8184 4.11406C30.0288 3.90273 30.2615 3.74087 30.5122 3.63746C30.7628 3.53404 31.0403 3.48009 31.3447 3.48009H33.4484ZM35.9907 2.6258H33.4528H31.3492C30.9374 2.6258 30.5525 2.69774 30.1944 2.84612C29.8363 2.99449 29.514 3.21481 29.2231 3.50707C28.9322 3.79932 28.7129 4.12755 28.5652 4.48275C28.4174 4.84245 28.3414 5.22912 28.3414 5.64278V10.193C28.3414 10.6066 28.4174 10.9933 28.5652 11.353C28.7129 11.7127 28.9322 12.0364 29.2231 12.3332C29.514 12.6254 29.8408 12.8458 30.1989 12.9941C30.5569 13.1425 30.9419 13.2189 31.3492 13.2189H32.8531C33.1172 13.5562 33.3991 13.8664 33.7035 14.1542C34.0616 14.4914 34.451 14.7971 34.8628 15.0714C35.279 15.3457 35.7221 15.5885 36.1876 15.7908C36.6576 15.9976 37.1544 16.1685 37.6781 16.3034C37.8258 16.3438 37.9914 16.2989 38.1033 16.173C38.26 15.9976 38.2421 15.7278 38.0675 15.5705C37.8213 15.3502 37.6154 15.1298 37.4454 14.9095C37.2798 14.6937 37.15 14.4734 37.047 14.2441V14.2396C36.9351 13.9923 36.8366 13.745 36.7516 13.4887C36.7203 13.3988 36.6889 13.3089 36.6621 13.2144H39.2268C39.6386 13.2144 40.019 13.138 40.3771 12.9896C40.7352 12.8413 41.0619 12.6209 41.3528 12.3287C41.6438 12.0364 41.8631 11.7082 42.0108 11.3485C42.1585 10.9888 42.2301 10.6021 42.2301 10.1885V5.64727C42.2301 5.23362 42.1585 4.84694 42.0108 4.48725C41.8631 4.12755 41.6438 3.80382 41.3528 3.51156C41.0619 3.21931 40.7352 2.99899 40.3816 2.85061C40.0235 2.70224 39.6386 2.6258 39.2268 2.6258H35.9907ZM34.1556 9.90971H35.8654V11.0158H34.1556V9.90971ZM14.6003 4.88741C15.115 4.88741 15.5313 5.30556 15.5313 5.82263C15.5313 6.33969 15.115 6.75784 14.6003 6.75784C14.0856 6.75784 13.6693 6.33969 13.6693 5.82263C13.6693 5.30556 14.0856 4.88741 14.6003 4.88741ZM22.178 4.88741C22.6928 4.88741 23.109 5.30556 23.109 5.82263C23.109 6.33969 22.6928 6.75784 22.178 6.75784C21.6633 6.75784 21.247 6.33969 21.247 5.82263C21.247 5.30556 21.6633 4.88741 22.178 4.88741ZM18.3869 4.88741C18.9017 4.88741 19.3179 5.30556 19.3179 5.82263C19.3179 6.33969 18.9017 6.75784 18.3869 6.75784C17.8722 6.75784 17.4559 6.33969 17.4559 5.82263C17.4559 5.30556 17.8767 4.88741 18.3869 4.88741ZM22.187 0C24.049 0 25.535 1.49275 25.535 3.36319V7.92687C25.535 9.7973 24.049 11.2945 22.187 11.2945H20.0475C18.6689 13.0526 16.8069 14.1721 14.6719 14.7297C14.5063 14.7746 14.3228 14.7207 14.202 14.5858C14.0274 14.388 14.0498 14.0912 14.2422 13.9159C15.1419 13.1155 15.4686 12.3961 15.8088 11.2945H14.5914C13.2396 11.2945 12.0088 10.4807 11.4896 9.22178C11.3239 8.82162 11.2434 8.38998 11.2434 7.92687V3.36319C11.2434 1.49725 12.7339 0 14.5914 0C17.3754 0 19.403 0 22.187 0ZM53.3527 45.8391C53.3348 45.7132 53.2856 45.5963 53.1871 45.5019C51.9026 44.207 50.1525 43.4786 48.3576 43.2943L48.5098 41.6531H53.948C54.512 41.6531 54.9775 41.1855 54.9775 40.619C54.9775 36.3296 53.9704 33.1058 54.9775 28.2274C55.2729 26.7796 52.3054 26.5728 52.3054 28.3038V39.2926H42.0197C41.4558 39.2926 40.9903 40.057 40.9903 40.6235V41.4283C40.9903 41.5542 41.0932 41.6576 41.2186 41.6576H46.6747L46.8851 43.2718C45.0992 43.3887 43.3222 44.0496 41.9884 45.2726C41.8228 45.4255 41.7646 45.6503 41.8139 45.8526C41.5453 46.0505 41.3752 46.2528 41.3752 46.7384C41.3752 47.224 41.8676 47.84 42.4718 47.84C43.0761 47.84 43.5684 47.224 43.5684 46.7384C43.5684 46.2528 43.3894 46.0505 43.1208 45.8481C44.2801 44.9489 45.7258 44.4813 47.1849 44.4363L47.3058 45.6278C47.3192 45.7672 46.5091 45.8122 46.5091 46.7429C46.5091 47.3004 47.0014 47.8445 47.6057 47.8445C48.2099 47.8445 48.7023 47.3004 48.7023 46.7429C48.7023 46.1898 48.3666 45.8167 47.91 45.6863L47.9996 44.4498C49.4139 44.5442 50.8507 45.0388 51.9473 45.956C51.7459 46.1539 51.6206 46.2843 51.6206 46.7384C51.6206 47.1925 52.1129 47.84 52.7172 47.84C53.3214 47.84 53.8138 47.224 53.8138 46.7384C53.8093 46.2438 53.6303 46.037 53.3527 45.8391ZM44.58 13.0346C42.2659 13.0346 40.3816 14.923 40.3816 17.2476C40.3816 19.5721 42.2614 21.4605 44.58 21.4605C46.894 21.4605 48.7739 19.5721 48.7739 17.2476C48.7694 14.923 46.894 13.0346 44.58 13.0346ZM42.8299 29.5628L42.9104 34.5626H37.705C36.5994 34.5626 35.6998 35.4663 35.6998 36.5769V38.5912H35.7221V45.7088C35.7221 46.8193 36.6218 47.7231 37.7273 47.7231H39.7326V39.1667C39.7326 38.281 40.0638 38.5912 41.0574 38.5912H45.5333V38.5777H48.1025C49.7631 38.5777 51.1148 37.2109 51.1148 35.5518V25.0395C51.1148 23.3445 49.7362 21.9596 48.0488 21.9596H46.5315C43.3759 21.9596 43.8772 24.1448 42.4763 25.5161C41.0977 26.8695 41.4423 27.0269 39.558 27.0269H35.4939C33.0679 27.0269 32.4771 30.2102 35.928 30.2102H39.652C41.317 30.2147 41.4603 30.48 42.8299 29.5628ZM37.5886 30.8622C31.0493 30.8622 23.9729 30.8622 17.4336 30.8622C17.3351 30.8622 17.2545 30.9431 17.2545 31.0375V33.6004C17.2545 33.6993 17.3351 33.7757 17.4336 33.7757C20.8487 33.7757 22.6346 33.7757 26.0542 33.7757V48.7482C26.0542 48.8786 26.1616 48.9865 26.2914 48.9865H29.4961C29.6259 48.9865 29.7334 48.8786 29.7334 48.7482V33.7892C31.9892 33.7892 35.3327 33.7892 37.5886 33.7892C37.6826 33.7892 37.7632 33.7083 37.7632 33.6139V31.051C37.7632 30.9476 38.9403 30.8712 38.8463 30.8712H37.5886V30.8622ZM0.554899 28.8209H2.01852C2.31841 28.8209 2.51535 29.0727 2.56011 29.3649C3.11064 32.8675 3.41501 36.3656 3.3971 39.8591H13.4008C13.7991 39.8591 14.1169 40.1829 14.1169 40.5785V42.0353H13.544V48.7302C13.544 48.8516 13.4455 48.9505 13.3247 48.9505H11.4045C11.2837 48.9505 11.1852 48.8516 11.1852 48.7302V45.4884H3.00322C2.88237 46.4776 2.73467 47.4623 2.56011 48.4515C2.5064 48.7482 2.31393 48.9955 2.01852 48.9955H0.554899C0.259489 48.9955 -0.0717287 48.7392 0.0133136 48.4515C1.94243 41.7116 1.5396 35.88 0.0133136 29.3649C-0.058301 29.0727 0.259489 28.8209 0.554899 28.8209ZM11.1897 44.4858V42.0398H3.36577C3.32101 43.4067 3.22702 43.1234 3.07931 44.4858H11.1897ZM8.79058 12.8862C11.1046 12.8862 12.9845 14.7746 12.9845 17.0992C12.9845 19.4237 11.1046 21.3122 8.79058 21.3122C6.47653 21.3122 4.59665 19.4237 4.59665 17.0992C4.59665 14.7746 6.47205 12.8862 8.79058 12.8862Z" fill="#2B72EE"/>
</g>
<defs>
<clipPath id="clip0_17_75">
<rect width="55" height="49" fill="white"/>
</clipPath>
</defs>
</svg>
