<svg width="11" height="15" viewBox="0 0 11 15" fill="none" xmlns="http://www.w3.org/2000/svg">
<path fillRule="evenodd" clipRule="evenodd" d="M8.1695 12.9737C7.50291 13.722 6.72662 14.3921 5.85493 14.9341C5.74761 15.0147 5.60213 15.0244 5.48288 14.9463C4.19502 14.1077 3.11346 13.1006 2.26324 12.0057C1.08985 10.4993 0.35172 8.82942 0.0989177 7.22054C-0.158654 5.5897 0.0822233 4.01989 0.87521 2.74426C1.18764 2.24012 1.58711 1.78114 2.07363 1.38441C3.19216 0.472554 4.46929 -0.00962009 5.74284 0.000145454C6.96869 0.009911 8.17904 0.477436 9.22483 1.45521C9.59211 1.79701 9.90096 2.18885 10.1538 2.61365C11.0064 4.05163 11.19 5.88511 10.8156 7.743C10.4459 9.57892 9.52772 11.4441 8.1695 12.97V12.9737ZM5.49958 2.90051C7.01162 2.90051 8.23628 4.15538 8.23628 5.702C8.23628 7.24984 7.01043 8.50349 5.49958 8.50349C3.98754 8.50349 2.76288 7.24984 2.76288 5.702C2.76169 4.15416 3.98754 2.90051 5.49958 2.90051Z" fill="#2B72EE"/>
</svg>
