<svg width="230" height="65" viewBox="0 0 230 65" fill="none" xmlns="http://www.w3.org/2000/svg">
<path fillRule="evenodd" clipRule="evenodd" d="M7.20333 44.0537C9.59902 41.2121 18.2583 33.3124 18.5953 32.164C18.7205 31.7366 17.5329 30.5873 17.2032 29.8676C14.811 24.6495 17.1093 19.4191 21.6636 17.4942C24.9271 16.1141 28.4443 16.5419 30.9935 19.1953C32.7628 21.0385 33.8243 23.702 33.8243 26.4491C33.8243 27.8644 32.8785 30.1173 31.9924 31.2108C31.0989 32.3509 31.0449 32.2515 32.5424 33.5508C33.3004 34.2072 35.7681 36.8866 36.2513 36.8866C36.7477 36.8866 38.4536 34.1012 38.6898 33.6954C39.5889 31.8593 40.1612 29.9485 40.418 28.0372C40.776 25.3732 40.5213 22.7088 39.6828 20.2488C35.5062 7.99154 21.4236 6.11852 12.9499 15.4634C8.95208 19.9876 8.49678 26.5001 10.5885 31.9116C10.8196 32.3693 11.0961 33.1467 10.727 33.5758C9.98315 34.4411 8.04019 36.3906 7.12788 36.8866C3.97807 30.7553 2.94528 23.374 5.97548 17.0264C8.93665 10.8213 15.4639 5.17894 21.8446 4.52646C22.9481 4.4139 22.6145 4.59637 22.6145 0C19.2958 0.0773829 14.2421 1.93501 10.6434 4.39763C5.84514 7.68333 2.49341 12.4877 0.868557 17.8513C-1.34107 25.1424 0.628046 39.9845 7.20333 44.0537Z" fill="#F8FBFF"/>
<path fillRule="evenodd" clipRule="evenodd" d="M25.9878 0.00189209C49.7711 1.96504 58.2824 33.6656 36.5017 47.6548C34.9725 48.637 33.8402 49.9815 33.8668 48.0672C33.884 46.8409 33.9028 45.6134 33.9208 44.3871C53.0413 29.9658 43.3257 7.13431 27.8167 4.97154C26.9923 4.85635 26.1258 4.7306 26.116 4.35292C26.1108 4.14144 26.1023 3.92775 26.0967 3.71495C26.0607 2.47902 26.0238 1.23958 25.9878 0.00233177V0.00189209Z" fill="#373435"/>
<path fillRule="evenodd" clipRule="evenodd" d="M26.2121 42.021L27.0065 61.4195L24.366 64.9998L21.7307 61.4195L22.6409 42.021H20.4917L21.5056 36.9318H27.2359L28.246 42.021H26.2121Z" fill="#373435"/>
<path d="M57.2812 14.2165V39.1197H61.3052V27.8777H70.3242V24.2134H61.3052V17.9876H70.6715V14.2165H57.2812Z" fill="#F8FBFF"/>
<path d="M75.1802 27.0238C75.8738 26.4901 77.7821 25.4942 80.0367 25.4942C82.014 25.4942 83.4364 26.2056 83.4364 28.1978V30.1899C82.4307 29.6205 80.904 29.0516 78.823 29.0516C74.8685 29.0516 72.5791 31.0794 72.5791 34.2455C72.5791 37.5897 75.1463 39.475 78.164 39.475C80.2108 39.475 82.4307 38.6211 83.4369 36.8778V39.1193H87.114V27.4503C87.114 24.213 84.3042 22.3628 80.4191 22.3628C77.4357 22.3628 75.1116 23.4299 73.6548 24.3194L75.181 27.0229L75.1802 27.0238ZM76.3596 34.0322C76.3596 32.5026 77.3653 31.5775 79.7246 31.5775C81.0776 31.5775 82.2918 31.8264 83.4364 32.3602V32.609C83.4364 35.0993 81.5634 36.5934 79.343 36.5934C77.6084 36.5934 76.3596 35.6683 76.3596 34.0318V34.0322Z" fill="#F8FBFF"/>
<path d="M92.2134 33.7121L90.0278 35.9888C91.4156 37.8385 93.8435 39.6174 97.1737 39.6174C100.643 39.6174 102.863 37.5896 102.863 34.4943C102.863 31.5414 100.643 30.4387 97.9716 29.336C96.0291 28.5534 94.5028 27.984 94.5028 26.7745C94.5028 25.8494 95.3007 25.3869 96.3759 25.3869C97.9369 25.3869 99.4978 26.3119 100.539 27.5571L102.62 25.2805C101.302 23.644 99.0473 22.3988 96.4454 22.3988C93.4966 22.3988 90.9646 23.8929 90.9646 26.8457C90.9646 29.7986 93.3234 31.0437 95.509 31.8264C97.6252 32.609 99.082 33.2496 99.082 34.708C99.082 35.7751 98.2841 36.4513 96.9311 36.4513C95.3007 36.4513 93.7744 35.4906 92.2134 33.7121Z" fill="#F8FBFF"/>
<path d="M103.973 22.7549V26.1347H106.679V39.1197H110.356V26.1347H113.027V22.7549H110.356V17.0625H106.679V22.7549H103.973Z" fill="#F8FBFF"/>
<path d="M126.313 14.2165V39.1197H130.406V29.6922H132.904L139.044 39.1197H144.005L137.136 29.2297C140.501 28.1982 142.548 25.5654 142.548 21.9368C142.548 17.2762 139.079 14.2165 133.806 14.2165H126.313H126.313ZM133.633 17.8452C136.442 17.8452 138.315 19.3748 138.315 22.0432C138.315 24.7116 136.442 26.2056 133.633 26.2056H130.406V17.8452H133.633Z" fill="#282829"/>
<path d="M153.579 39.4753C157.256 39.4753 159.892 38.0169 161.592 35.0284L158.331 33.712C157.325 35.4554 155.799 36.3092 153.752 36.3092C151.15 36.3092 149.52 34.7084 149.277 31.8267H161.696C161.696 31.6487 161.731 31.1866 161.731 30.7596C161.731 25.5301 158.782 22.3992 153.752 22.3992C148.688 22.3992 145.427 25.779 145.427 30.9373C145.427 36.0604 148.653 39.4753 153.579 39.4753ZM153.718 25.316C155.972 25.316 157.464 26.8456 157.638 29.1583H149.382C149.833 26.668 151.324 25.3516 153.718 25.316Z" fill="#282829"/>
<path d="M167.836 30.9373C167.836 27.9132 169.987 25.7078 172.797 25.7078C175.017 25.7078 177.202 26.8818 178 28.4826V24.2134C176.89 23.1107 174.913 22.3988 172.623 22.3988C167.697 22.3988 163.986 25.8855 163.986 30.9369C163.986 35.9531 167.698 39.4749 172.623 39.4749C174.913 39.4749 176.89 38.7992 178 37.6252V33.3916C177.202 34.9568 175.121 36.1664 172.797 36.1664C169.987 36.1664 167.836 34.0318 167.836 30.9369V30.9373Z" fill="#282829"/>
<path d="M190.592 26.8461L192.43 23.6088C191.702 22.755 190.627 22.3636 189.482 22.3636C188.129 22.3636 186.776 23.2531 185.839 24.7115V22.755H182.127V39.1197H185.839V29.9054C185.839 27.5575 186.602 25.9923 188.476 25.9923C189.378 25.9923 189.898 26.2768 190.592 26.8461H190.592Z" fill="#282829"/>
<path d="M198.849 32.7163V22.755H194.999V33.1432C194.999 37.0563 196.976 39.4759 200.549 39.4759C202.769 39.4759 204.33 38.4796 205.371 36.5942V39.1202H209.117V22.7554H205.371V32.7167C205.371 34.9226 203.948 36.381 201.832 36.381C199.82 36.381 198.849 35.0646 198.849 32.7167V32.7163Z" fill="#282829"/>
<path d="M213.765 16.2443C213.765 17.5607 214.84 18.5922 216.124 18.5922C217.442 18.5922 218.518 17.5607 218.518 16.2443C218.518 14.9279 217.442 13.8965 216.124 13.8965C214.84 13.8965 213.765 14.9279 213.765 16.2443ZM214.286 22.755V39.1197H217.997V22.755H214.286Z" fill="#282829"/>
<path d="M220.946 22.7549V26.1347H223.652V39.1197H227.329V26.1347H230V22.7549H227.329V17.0625H223.652V22.7549H220.946Z" fill="#282829"/>
<path d="M133.668 52.7843C133.668 51.6235 132.867 50.9201 131.804 50.5745C132.631 50.2289 133.143 49.6116 133.143 48.7718C133.143 47.3024 131.764 46.5743 129.874 46.5743H126.5V55.2166H130.097C132.276 55.2166 133.667 54.5003 133.667 52.7843H133.668ZM129.638 48.1914C130.386 48.1914 130.846 48.5001 130.846 49.0805C130.846 49.6608 130.386 50.0064 129.638 50.0064H128.719V48.1914H129.638ZM128.719 53.599V51.4631H129.848C130.701 51.4631 131.371 51.7348 131.371 52.4879C131.371 53.3277 130.701 53.599 129.848 53.599H128.719Z" fill="#F8FBFF"/>
<path d="M144.353 49.5373H142.318L140.888 52.8951L139.457 49.5373H137.278L139.89 54.7598L138.42 57.9325H140.415L144.353 49.5373Z" fill="#F8FBFF"/>
<path d="M154.972 50.8951C154.972 49.3026 156.246 48.3644 157.729 48.3644C159.029 48.3644 159.868 48.8951 160.472 49.5V47.2529C159.724 46.7094 158.936 46.3762 157.598 46.3762C154.644 46.3762 152.557 48.2035 152.557 50.8947C152.557 53.5864 154.644 55.4132 157.598 55.4132C158.936 55.4132 159.724 55.08 160.472 54.5365V52.2898C159.868 52.8948 159.028 53.4255 157.729 53.4255C156.246 53.4255 154.972 52.4872 154.972 50.8943V50.8951Z" fill="#F8FBFF"/>
<path d="M165.894 51.2781C166.13 51.13 166.983 50.7967 167.784 50.7967C168.532 50.7967 168.926 51.0807 168.926 51.636V52.1421C168.506 51.9319 167.889 51.7714 167.141 51.7714C165.631 51.7714 164.778 52.4507 164.778 53.5367C164.778 54.7098 165.763 55.3394 166.931 55.3394C167.771 55.3394 168.559 55.0308 168.926 54.4258V55.2159H170.829V51.2157C170.829 50.0426 169.622 49.3761 168.033 49.3761C166.891 49.3761 165.92 49.7217 165.224 50.0303L165.893 51.2773L165.894 51.2781ZM166.773 53.4387C166.773 53.0311 167.062 52.7968 167.758 52.7968C168.178 52.7968 168.572 52.8711 168.926 53.0192C168.873 53.7478 168.283 54.1303 167.64 54.1303C167.154 54.1303 166.773 53.8832 166.773 53.4387Z" fill="#F8FBFF"/>
<path d="M175.463 45.5865V55.2167H177.458V45.5865H175.463Z" fill="#F8FBFF"/>
<path d="M181.62 49.5373V51.0806H182.381V55.2166H184.284V51.0806H185.741V49.5373H184.284V47.9074C184.284 47.327 184.52 47.0676 184.914 47.0676C185.151 47.0676 185.348 47.1538 185.518 47.3763L186.319 46.0058C186.043 45.7587 185.545 45.3885 184.652 45.3885C183.142 45.3885 182.381 46.1663 182.381 47.4378V49.5369H181.62V49.5373Z" fill="#F8FBFF"/>
<path d="M189.706 47.4014C189.706 47.994 190.217 48.4139 190.861 48.4139C191.504 48.4139 192.016 47.994 192.016 47.4014C192.016 46.8087 191.504 46.4011 190.861 46.4011C190.218 46.4011 189.706 46.8087 189.706 47.4014ZM189.902 49.5373V55.2166H191.819V49.5373H189.902Z" fill="#F8FBFF"/>
<path d="M200.521 51.7594V55.2165H202.582V51.562C202.582 50.2038 201.925 49.4014 200.428 49.4014C199.549 49.4014 198.945 49.7593 198.591 50.3893V49.5373H196.596V55.2165H198.591V51.7594C198.591 51.0928 198.998 50.7099 199.641 50.7099C200.284 50.7099 200.52 51.0928 200.52 51.7594H200.521Z" fill="#F8FBFF"/>
<path d="M207.176 47.4014C207.176 47.994 207.688 48.4139 208.331 48.4139C208.974 48.4139 209.486 47.994 209.486 47.4014C209.486 46.8087 208.974 46.4011 208.331 46.4011C207.688 46.4011 207.176 46.8087 207.176 47.4014ZM207.373 49.5373V55.2166H209.289V49.5373H207.373Z" fill="#F8FBFF"/>
<path d="M213.359 49.5375V51.0807H214.422V55.2168H216.326V51.0807H217.402V49.5375H216.326V47.562H214.422V49.5375H213.359Z" fill="#F8FBFF"/>
<path d="M227.575 49.5373H225.54L224.11 52.8951L222.679 49.5373H220.5L223.112 54.7598L221.642 57.9325H223.637L227.575 49.5373Z" fill="#F8FBFF"/>
</svg>
