<svg width="18" height="13" viewBox="0 0 18 13" fill="none" xmlns="http://www.w3.org/2000/svg">
<path d="M14.3537 12.8206H2.74645C1.23196 12.8206 0 11.5887 0 10.0742V2.74645C0 1.23215 1.23215 0 2.74645 0H14.3537C15.868 0 17.1 1.23215 17.1 2.74645V10.0742C17.1 11.5887 15.868 12.8206 14.3537 12.8206ZM2.74645 0.80313C1.67485 0.80313 0.80313 1.67485 0.80313 2.74645V10.0742C0.80313 11.1458 1.67485 12.0177 2.74645 12.0177H14.3537C15.4253 12.0177 16.2971 11.1458 16.2971 10.0742V2.74645C16.2971 1.67485 15.4253 0.80313 14.3537 0.80313H2.74645Z" fill="#2B72EE"/>
<path d="M2.09834 2.78464C4.1511 4.78496 6.20386 6.78509 8.25662 8.78542C8.63928 9.1582 9.22657 8.57223 8.84334 8.19869C6.79058 6.19856 4.73782 4.19824 2.68506 2.19811C2.3024 1.82514 1.71511 2.41129 2.09834 2.78464Z" fill="#2B72EE"/>
<path d="M8.84321 8.78542C10.896 6.78529 12.9487 4.78497 15.0015 2.78484C15.3845 2.41149 14.7976 1.82515 14.4148 2.19812C12.362 4.19825 10.3092 6.19857 8.25649 8.1987C7.87345 8.57205 8.46036 9.15839 8.84321 8.78542Z" fill="#2B72EE"/>
<path d="M14.979 10.2013C13.6131 8.90588 12.247 7.61065 10.8811 6.31523C10.4937 5.94796 9.90602 6.53354 10.2944 6.90195C11.6603 8.19737 13.0264 9.4926 14.3923 10.788C14.7797 11.1553 15.3674 10.5695 14.979 10.2013Z" fill="#2B72EE"/>
<path d="M2.74433 10.7878C4.11024 9.49241 5.47634 8.19718 6.84225 6.90176C7.23042 6.53354 6.64313 5.94758 6.25553 6.31504C4.88962 7.61046 3.52352 8.90569 2.15761 10.2011C1.76944 10.5693 2.35673 11.1555 2.74433 10.7878Z" fill="#2B72EE"/>
</svg>
