<svg width="16" height="16" viewBox="0 0 16 16" fill="none" xmlns="http://www.w3.org/2000/svg">
<path d="M6.90024 9.08181L8.81034 10.9919C8.9814 11.163 9.24431 11.2016 9.45734 11.0873L11.7464 9.85842C11.9157 9.76745 12.1203 9.77184 12.2856 9.87001L15.6255 11.8519C15.8638 11.9933 15.9597 12.2891 15.8482 12.5427C15.5628 13.1921 15.0433 14.3825 14.8369 14.9089C14.7935 15.0197 14.7289 15.1212 14.639 15.199C12.4131 17.1284 7.98455 14.7775 4.59481 11.3878C1.20455 7.99785 -1.14637 3.56929 0.783045 1.34342C0.861023 1.2535 0.962534 1.18887 1.07318 1.14549C1.59935 0.939133 2.78991 0.419634 3.43937 0.134243C3.69298 0.0227214 3.98873 0.118613 4.13011 0.356936L6.11203 3.6968C6.21003 3.86206 6.21442 4.06666 6.12363 4.23596L4.89478 6.52471C4.78045 6.73774 4.81908 7.00065 4.99014 7.17171L6.90024 9.08181Z" fill="#2B72EE"/>
</svg>
