<svg width="46" height="46" viewBox="0 0 46 46" fill="none" xmlns="http://www.w3.org/2000/svg">
<path d="M8.625 18.3928V19.4062L12.9375 24.4375H43.125V1.4375H8.625V18.3928Z" fill="#2B72EE"/>
<path d="M11.5 29.4687V35.9375H2.875V29.4687L1.4375 28.7708V22.913C1.43769 21.983 1.80722 21.0912 2.46482 20.4336C3.12243 19.776 4.01428 19.4064 4.94428 19.4062H12.2188L17.8049 16.8669C18.0548 16.7533 18.3293 16.7041 18.6031 16.724C18.877 16.744 19.1414 16.8323 19.3723 16.9809C19.6032 17.1295 19.793 17.3337 19.9245 17.5747C20.056 17.8157 20.125 18.0859 20.125 18.3605C20.125 18.6474 20.0499 18.9293 19.907 19.1781C19.7641 19.4269 19.5585 19.634 19.3107 19.7786L12.9375 23.4931V28.7708L11.5 29.4687Z" fill="#FFBF69"/>
<path d="M7.1875 18.6875C9.17227 18.6875 10.7812 17.0785 10.7812 15.0938C10.7812 13.109 9.17227 11.5 7.1875 11.5C5.20273 11.5 3.59375 13.109 3.59375 15.0938C3.59375 17.0785 5.20273 18.6875 7.1875 18.6875Z" fill="#FFBF69"/>
<path d="M28.0312 5.75H40.9688V7.1875H28.0312V5.75ZM22.2812 10.0625H40.9688V11.5H22.2812V10.0625ZM22.2812 15.0938H40.9688V16.5312H22.2812V15.0938ZM22.2812 20.125H40.9688V21.5625H22.2812V20.125Z" fill="white"/>
<path d="M28.75 44.5625H15.8125V43.7C15.8125 42.4038 16.3274 41.1606 17.244 40.244C18.1606 39.3274 19.4038 38.8125 20.7 38.8125H23.8625C25.1587 38.8125 26.4019 39.3274 27.3185 40.244C28.2351 41.1606 28.75 42.4038 28.75 43.7V44.5625Z" fill="#2B72EE"/>
<path d="M22.2812 38.0938C23.8691 38.0938 25.1562 36.8066 25.1562 35.2188C25.1562 33.6309 23.8691 32.3438 22.2812 32.3438C20.6934 32.3438 19.4062 33.6309 19.4062 35.2188C19.4062 36.8066 20.6934 38.0938 22.2812 38.0938Z" fill="#2B72EE"/>
<path d="M44.5625 44.5625H31.625V43.7C31.625 42.4038 32.1399 41.1606 33.0565 40.244C33.9731 39.3274 35.2163 38.8125 36.5125 38.8125H39.675C40.9712 38.8125 42.2144 39.3274 43.131 40.244C44.0476 41.1606 44.5625 42.4038 44.5625 43.7V44.5625Z" fill="#FFBF69"/>
<path d="M38.0938 38.0938C39.6816 38.0938 40.9688 36.8066 40.9688 35.2188C40.9688 33.6309 39.6816 32.3438 38.0938 32.3438C36.5059 32.3438 35.2188 33.6309 35.2188 35.2188C35.2188 36.8066 36.5059 38.0938 38.0938 38.0938Z" fill="#FFBF69"/>
</svg>
