<svg width="48" height="37" viewBox="0 0 48 37" fill="none" xmlns="http://www.w3.org/2000/svg">
<path fillRule="evenodd" clipRule="evenodd" d="M8.56417 1.88576e-06C9.36503 -0.000771244 10.1481 0.236199 10.8143 0.680922C11.4805 1.12565 11.9999 1.75813 12.3067 2.49833C12.6136 3.23854 12.6941 4.05318 12.538 4.83917C12.382 5.62516 11.9964 6.34716 11.4301 6.9138C10.8638 7.48044 10.1423 7.86624 9.35675 8.02239C8.57125 8.17854 7.75711 8.098 7.01736 7.79098C6.27762 7.48396 5.64552 6.96426 5.20108 6.29764C4.75663 5.63102 4.5198 4.84745 4.52058 4.0461C4.52058 2.97301 4.9466 1.94387 5.70492 1.18508C6.46324 0.426286 7.49175 1.88576e-06 8.56417 1.88576e-06ZM5.70826 8.87406L7.14599 12.6465H7.29835L7.99768 10.2306L7.60699 9.8201C7.3257 9.40963 7.42337 8.94052 7.94689 8.85451C8.13547 8.84067 8.32481 8.84067 8.51339 8.85451C8.72072 8.84257 8.92873 8.85043 9.13458 8.87797C9.61903 8.98743 9.66982 9.45654 9.42759 9.83183L9.0369 10.2423L9.76749 12.6465H9.91595L11.213 8.87406C11.271 8.92628 11.3323 8.9746 11.3966 9.0187C11.7692 9.05248 12.1303 9.16579 12.4554 9.35099C12.9339 9.44655 13.3553 9.72761 13.6275 10.1328L16.7139 14.3979L18.9134 14.8201V6.51677H15.788C15.5952 6.51677 15.4104 6.44016 15.2741 6.3038C15.1378 6.16743 15.0613 5.98249 15.0613 5.78964C15.0613 5.59679 15.1378 5.41185 15.2741 5.27548C15.4104 5.13912 15.5952 5.06251 15.788 5.06251H30.3019V2.93978C30.3154 2.75564 30.398 2.58342 30.5332 2.45773C30.6684 2.33203 30.846 2.26217 31.0306 2.26217C31.2151 2.26217 31.3928 2.33203 31.5279 2.45773C31.6631 2.58342 31.7457 2.75564 31.7592 2.93978V5.08206H47.203C47.3957 5.08206 47.5806 5.15867 47.7168 5.29503C47.8531 5.43139 47.9297 5.61634 47.9297 5.80919C47.9297 6.00203 47.8531 6.18698 47.7168 6.32334C47.5806 6.4597 47.3957 6.53631 47.203 6.53631H44.1049V24.5229H47.2733C47.466 24.5229 47.6509 24.5995 47.7872 24.7359C47.9234 24.8722 48 25.0572 48 25.25C48 25.4429 47.9234 25.6278 47.7872 25.7642C47.6509 25.9005 47.466 25.9771 47.2733 25.9771H31.8608V29.3196C31.8929 29.3478 31.9269 29.3739 31.9623 29.3978L36.5021 33.698C36.578 33.7612 36.6402 33.8394 36.6847 33.9277C36.7292 34.016 36.7552 34.1124 36.761 34.2111C36.7668 34.3098 36.7523 34.4087 36.7185 34.5015C36.6846 34.5944 36.6321 34.6794 36.5641 34.7511C36.4961 34.8229 36.4142 34.8799 36.3233 34.9188C36.2324 34.9576 36.1346 34.9773 36.0357 34.9768C35.9369 34.9763 35.8393 34.9555 35.7488 34.9158C35.6584 34.876 35.577 34.8181 35.5098 34.7456L31.8608 31.2742V34.4016C31.8473 34.5858 31.7647 34.758 31.6295 34.8837C31.4943 35.0094 31.3167 35.0792 31.1321 35.0792C30.9476 35.0792 30.7699 35.0094 30.6348 34.8837C30.4996 34.758 30.417 34.5858 30.4035 34.4016V31.1491L26.6178 34.7496C26.5491 34.8156 26.468 34.8674 26.3791 34.9019C26.2903 34.9363 26.1955 34.9527 26.1002 34.9502C26.005 34.9476 25.9112 34.9262 25.8243 34.887C25.7375 34.8479 25.6592 34.7919 25.5942 34.7222C25.5277 34.6541 25.4757 34.5733 25.441 34.4847C25.4063 34.3961 25.3898 34.3014 25.3923 34.2062C25.3949 34.1111 25.4165 34.0175 25.4558 33.9308C25.4952 33.8442 25.5515 33.7663 25.6215 33.7019L30.1613 29.4017C30.2301 29.3339 30.3127 29.2819 30.4035 29.2492V25.9771H15.7723C15.5796 25.9771 15.3948 25.9005 15.2585 25.7642C15.1222 25.6278 15.0457 25.4429 15.0457 25.25C15.0457 25.0572 15.1222 24.8722 15.2585 24.7359C15.3948 24.5995 15.5796 24.5229 15.7723 24.5229H18.8978V18.6981L15.2762 17.9827C14.7919 17.9004 14.358 17.6344 14.065 17.2399L12.5296 15.1094V15.1641L12.4046 21.3329L13.9674 31.1999L14.5573 34.5815C14.8894 36.841 11.4318 38.1819 10.5762 35.2148L8.56027 23.3227L6.50917 35.4063C6.11848 37.5916 2.55152 37.6111 2.52808 34.9567L4.79015 21.4111L4.61825 14.0969C4.42555 14.3331 4.26888 14.5966 4.15333 14.8787C3.91241 15.4458 3.77989 16.0531 3.76265 16.6692L3.4501 20.9342C3.2782 23.1625 -0.0387262 23.2993 0.000342404 20.8951C0.0198767 19.8161 0.117548 18.7293 0.234754 17.623C0.461352 15.5042 0.508234 14.1907 1.71545 12.0797C2.16743 11.2956 2.76402 10.6044 3.47354 10.0429C4.03289 9.60114 4.68455 9.29114 5.38009 9.13598C5.49579 9.0569 5.60549 8.96936 5.70826 8.87406ZM20.3668 14.9569L24.4534 10.6567C24.5393 10.5599 24.6439 10.4813 24.7608 10.4257C24.8777 10.3701 25.0046 10.3387 25.1339 10.3332C25.2632 10.3277 25.3923 10.3483 25.5135 10.3937C25.6347 10.4392 25.7456 10.5085 25.8394 10.5977C25.9333 10.6869 26.0082 10.7941 26.0598 10.9129C26.1115 11.0317 26.1387 11.1596 26.1398 11.2891C26.141 11.4186 26.1161 11.5471 26.0667 11.6667C26.0172 11.7864 25.9442 11.895 25.852 11.9858L22.0077 16.028C22.1872 16.3187 22.2855 16.6523 22.2924 16.9939C22.2994 17.3356 22.2147 17.6728 22.0471 17.9706C21.8796 18.2684 21.6353 18.5158 21.3398 18.687C21.0443 18.8583 20.7083 18.9471 20.3668 18.9444V24.5229H42.6632V6.51677H20.3668V14.9569Z" fill="#2B72EE"/>
</svg>
