<svg width="17" height="17" viewBox="0 0 17 17" fill="none" xmlns="http://www.w3.org/2000/svg">
<path d="M8.99959 0.0975484C4.58854 0.0437593 0.956242 3.58846 0.902454 7.99941C0.848666 12.4104 4.39345 16.0426 8.80449 16.0964C13.2155 16.1501 16.8475 12.6054 16.9013 8.1945C16.9551 3.78355 13.4106 0.151338 8.99959 0.0975484ZM13.5096 11.4223C13.6442 11.0198 13.756 10.5983 13.842 10.1595C14.3804 10.0208 14.8603 9.85242 15.2624 9.6571C15.2339 9.77385 15.2035 9.88986 15.1681 10.0047C14.7701 10.5485 14.2029 11.0292 13.5096 11.4223ZM10.6565 14.4076C10.5412 14.4398 10.4244 14.4673 10.3067 14.4929C10.5117 14.0964 10.6914 13.6201 10.8436 13.0856C11.2844 13.0104 11.7085 12.9089 12.1137 12.7841C11.7042 13.4673 11.2098 14.0225 10.6565 14.4076ZM5.57666 12.7044C5.97946 12.839 6.40098 12.9508 6.83944 13.0368C6.97854 13.5748 7.14653 14.055 7.34187 14.4568C7.22475 14.4283 7.10874 14.3979 6.99423 14.3629C6.45043 13.9645 5.96976 13.3973 5.57666 12.7044ZM2.59129 9.85064C2.55907 9.73567 2.53158 9.61896 2.50555 9.50081C2.90244 9.70625 3.37843 9.88554 3.91331 10.0377C3.98854 10.4781 4.08999 10.9022 4.2148 11.3082C3.5309 10.8983 2.97597 10.4047 2.59129 9.85064ZM4.29415 4.77128C4.15948 5.17407 4.04808 5.59559 3.96214 6.03368C3.4237 6.17313 2.94384 6.34076 2.54171 6.53609C2.5706 6.41934 2.60093 6.30333 2.63594 6.18882C3.03401 5.64503 3.60082 5.16437 4.29415 4.77128ZM7.14759 1.78597C7.26292 1.75376 7.37964 1.72627 7.49743 1.70024C7.29235 2.09712 7.1127 2.5731 6.96051 3.10797C6.52009 3.18319 6.09597 3.28464 5.69 3.40945C6.09953 2.72592 6.59424 2.17065 7.14759 1.78597ZM12.2278 3.48917C11.825 3.3545 11.4035 3.2431 10.9646 3.15679C10.8259 2.61838 10.6576 2.13815 10.4622 1.73639C10.5793 1.76493 10.695 1.79561 10.8099 1.83027C11.3537 2.22869 11.8343 2.79585 12.2278 3.48917ZM15.2128 6.34255C15.2454 6.45752 15.2729 6.57459 15.2985 6.69201C14.902 6.48694 14.4257 6.30765 13.8908 6.15511C13.8156 5.71469 13.7141 5.29058 13.5897 4.88499C14.2728 5.29451 14.8281 5.78885 15.2128 6.34255ZM8.82212 14.6505C8.6371 14.6482 8.45511 14.6334 8.27389 14.6156C8.04637 14.3038 7.82172 13.816 7.62767 13.1606C8.02322 13.2084 8.42546 13.2411 8.83925 13.2462C9.25303 13.2512 9.6556 13.2276 10.0526 13.1901C9.84222 13.8407 9.60647 14.3225 9.37105 14.629C9.18944 14.6423 9.00715 14.6528 8.82212 14.6505ZM8.84805 12.5242C8.36488 12.5183 7.89367 12.48 7.43907 12.4137C7.32089 11.8792 7.22351 11.2697 7.15515 10.5916C7.71878 10.6389 8.29494 10.6665 8.87062 10.6736C9.4463 10.6806 10.023 10.667 10.5876 10.6334C10.5031 11.3097 10.3905 11.917 10.2593 12.4481C9.80323 12.5033 9.33122 12.5301 8.84805 12.5242ZM8.87943 9.95081C8.24557 9.94308 7.65285 9.90983 7.09503 9.86074C7.05884 9.30189 7.04041 8.7082 7.04814 8.07471C7.05586 7.44122 7.08912 6.84816 7.13857 6.29035C7.69743 6.25416 8.29077 6.23573 8.92464 6.24346C9.55851 6.25119 10.1512 6.28444 10.709 6.33389C10.7452 6.89274 10.7633 7.48607 10.7556 8.11992C10.7478 8.75377 10.7149 9.34684 10.6655 9.90428C10.1067 9.93939 9.5133 9.95854 8.87943 9.95081ZM2.34799 8.01667C2.35025 7.83165 2.36512 7.64967 2.38251 7.46844C2.69431 7.24093 3.18246 7.01629 3.83758 6.82224C3.78975 7.21778 3.75665 7.62001 3.75161 8.03379C3.74656 8.44756 3.7702 8.85084 3.80801 9.24707C3.15746 9.03674 2.67529 8.80063 2.36913 8.56522C2.35616 8.38434 2.34573 8.20206 2.34799 8.01667ZM4.47473 8.0426C4.48063 7.55945 4.5189 7.08825 4.58517 6.63366C5.11973 6.51548 5.72921 6.4181 6.40738 6.34975C6.36003 6.91336 6.3324 7.4895 6.32538 8.06517C6.31836 8.6412 6.33193 9.21749 6.36553 9.78209C5.68887 9.69722 5.0823 9.585 4.55078 9.45383C4.49526 8.99775 4.46884 8.52576 4.47473 8.0426ZM8.98196 1.54305C9.16699 1.54531 9.34897 1.56018 9.5302 1.57757C9.75808 1.88937 9.982 2.3775 10.1764 3.03297C9.78122 2.98514 9.37862 2.95204 8.96484 2.94699C8.55106 2.94195 8.14776 2.96558 7.75153 3.0034C7.96151 2.35286 8.19798 1.8707 8.43304 1.56419C8.61464 1.55122 8.79693 1.54079 8.98196 1.54305ZM8.95603 3.66938C9.4392 3.67527 9.91041 3.71355 10.365 3.77981C10.4832 4.31436 10.5809 4.92384 10.6489 5.60199C10.0853 5.55463 9.50915 5.52701 8.93346 5.51999C8.35778 5.51297 7.78112 5.52654 7.21651 5.56013C7.30138 4.88385 7.4136 4.27693 7.54477 3.74542C8.00086 3.69026 8.47286 3.66349 8.95603 3.66938ZM11.4389 6.4111C12.1149 6.49597 12.7222 6.60819 13.2533 6.73936C13.3085 7.19543 13.3352 7.66742 13.3294 8.15058C13.3235 8.63374 13.2852 9.1053 13.2189 9.55953C12.6844 9.6777 12.0749 9.77509 11.3971 9.84344C11.4441 9.27947 11.4717 8.70405 11.4787 8.12801C11.4857 7.55234 11.4722 6.9757 11.4389 6.4111ZM13.9957 6.94611C14.6463 7.15608 15.1284 7.39255 15.4346 7.6276C15.4476 7.8092 15.458 7.99149 15.4557 8.17651C15.4535 8.36153 15.4386 8.54351 15.4212 8.72474C15.1098 8.95262 14.6213 9.17689 13.9661 9.3713C14.0136 8.97575 14.0467 8.57316 14.0518 8.15975C14.0572 7.74598 14.0339 7.3427 13.9957 6.94611ZM13.1265 5.96399C12.58 5.8442 11.9935 5.74705 11.3828 5.67527C11.326 5.0634 11.2435 4.47435 11.1367 3.92548C11.6831 4.04925 12.1969 4.21526 12.6719 4.41731C12.8623 4.89744 13.0161 5.41544 13.1265 5.96399ZM6.76939 3.87259C6.6496 4.41869 6.55245 5.00519 6.48067 5.61585C5.86842 5.67272 5.27972 5.75518 4.73084 5.86197C4.8546 5.31592 5.02062 4.80218 5.22268 4.3272C5.70246 4.13643 6.22046 3.983 6.76939 3.87259ZM4.67794 10.2292C5.22407 10.3486 5.81057 10.4461 6.42125 10.5179C6.47813 11.1298 6.56058 11.7188 6.66738 12.2677C6.12131 12.1439 5.60721 11.9776 5.13257 11.7755C4.94143 11.2961 4.788 10.7781 4.67794 10.2292ZM11.0351 12.321C11.1545 11.7749 11.252 11.188 11.3238 10.5777C11.9353 10.5208 12.5244 10.4384 13.0732 10.3316C12.9495 10.878 12.7835 11.3917 12.581 11.8667C12.1016 12.0568 11.5836 12.2105 11.0351 12.321ZM14.4314 4.58876C14.0656 4.3266 13.6623 4.08748 13.2231 3.88045C13.0265 3.43602 12.7976 3.02771 12.5445 2.65488C13.2998 3.16214 13.9427 3.82091 14.4314 4.58876ZM5.3934 2.56767C5.13123 2.93422 4.8921 3.33719 4.68507 3.77633C4.24064 3.97259 3.83267 4.20182 3.45983 4.45497C3.96711 3.69927 4.62626 3.05637 5.3934 2.56767ZM3.37264 11.6051C3.7392 11.8673 4.14182 12.1061 4.58097 12.3131C4.77723 12.7579 5.00646 13.1658 5.25963 13.5383C4.50462 13.0318 3.86134 12.3726 3.37264 11.6051ZM12.4103 13.6262C12.6725 13.2597 12.9116 12.8567 13.1187 12.4172C13.5634 12.221 13.9714 11.9921 14.3442 11.7389C13.837 12.4943 13.1782 13.1375 12.4103 13.6262Z" fill="#2B72EE"/>
</svg>
